<?xml version="1.0" standalone="no"?>
<!DOCTYPE svg PUBLIC "-//W3C//DTD SVG 1.1//EN" "http://www.w3.org/Graphics/SVG/1.1/DTD/svg11.dtd" >
<svg xmlns="http://www.w3.org/2000/svg">
<metadata>
This is a custom SVG webfont generated by Font Squirrel.
Foundry     : Magenta ltd
Foundry URL : http://www.magenta.gr
</metadata>
<defs>
<font id="webfont7JjuDOLc" horiz-adv-x="596" >
<font-face units-per-em="1000" ascent="800" descent="-200" />
<missing-glyph horiz-adv-x="270" />
<glyph unicode=" "  horiz-adv-x="270" />
<glyph unicode="&#x09;" horiz-adv-x="270" />
<glyph unicode="&#xa0;" horiz-adv-x="270" />
<glyph unicode="!" horiz-adv-x="221" d="M151 532q0 -38 -16 -161l-22 -168h-74q-19 138 -29 221t-10 108v197h151v-197zM149 0h-147v146h147v-146z" />
<glyph unicode="&#x22;" horiz-adv-x="327" d="M95 435h-95v276h95v-276zM257 435h-95v276h95v-276z" />
<glyph unicode="#" horiz-adv-x="804" d="M734 520l-36 -101h-139l-42 -118h145l-37 -100h-144l-73 -205h-110l74 205h-121l-73 -205h-110l73 205h-141l36 100h141l42 118h-148l37 101h147l73 204h109l-72 -204h120l74 204h109l-73 -204h139zM452 419h-125l-43 -119h125z" />
<glyph unicode="$" horiz-adv-x="576" d="M492 498h-135q-3 40 -19 64q-20 30 -56 35v-181q123 -32 174 -84t51 -146q0 -88 -63 -145t-162 -57v-96h-60v96q-112 11 -167 66.5t-55 165.5h132q5 -50 23 -78q22 -35 67 -46v206q-108 13 -160.5 65.5t-52.5 140.5q0 89 55.5 145.5t157.5 56.5v64h60v-64q94 0 147.5 -55 t62.5 -153zM222 431v167q-37 0 -57.5 -24.5t-20.5 -60.5q0 -32 18.5 -50.5t59.5 -31.5zM282 92q42 9 61.5 33t19.5 61q0 69 -81 93v-187z" />
<glyph unicode="%" horiz-adv-x="873" d="M620 349q85 0 135 -57q45 -52 45 -127q0 -76 -45 -128q-50 -58 -136 -58t-135 57q-45 52 -45 128q0 75 45 127q50 58 136 58zM620 86q36 0 56 23t20 54q0 32 -18 53q-21 24 -58 24q-36 0 -56 -23t-20 -54q0 -32 19.5 -54.5t56.5 -22.5zM651 709l-423 -729h-80l423 729h80 zM180 709q84 0 134 -57q45 -52 45 -126q0 -75 -45 -128q-50 -58 -135 -58q-84 0 -134 58q-45 52 -45 127q0 74 45 126q50 58 135 58zM180 602q-37 0 -58 -24t-21 -55t20 -53.5t57 -22.5t58 24t21 55t-20 53.5t-57 22.5z" />
<glyph unicode="&#x26;" horiz-adv-x="725" d="M655 -1h-168l-50 61q-121 -94 -227 -94q-113 0 -174 106q-37 65 -37 125t38 113.5t120 98.5q-35 44 -48 67q-23 40 -23 78q0 83 59 131q54 44 130 44q74 0 125 -40q57 -45 57 -121q0 -57 -36 -104q-26 -34 -84 -76l106 -129q28 58 35 121h130q-15 -121 -86 -219zM332 567 q0 28 -17.5 43.5t-40.5 15.5t-40.5 -14.5t-17.5 -41.5q0 -25 17 -52q8 -12 35 -43q24 15 42 39q22 28 22 53zM360 154l-131 164q-87 -56 -87 -112q0 -27 20 -59q31 -50 88 -50q29 0 56 13.5t54 43.5z" />
<glyph unicode="'" horiz-adv-x="208" d="M138 601q0 -60 -39.5 -102.5t-98.5 -47.5v51q73 21 73 95h-73v132h138v-128z" />
<glyph unicode="(" horiz-adv-x="350" d="M280 -211h-105q-81 114 -124 221q-51 126 -51 247q0 122 50 249q43 110 125 223h105q-66 -110 -101 -228.5t-35 -242.5q0 -123 35 -240.5t101 -228.5z" />
<glyph unicode=")" horiz-adv-x="350" d="M280 257q0 -122 -50 -247q-43 -107 -125 -221h-105q65 108 100.5 227t35.5 242q0 120 -35.5 238t-100.5 233h105q81 -112 125 -223q50 -126 50 -249z" />
<glyph unicode="*" d="M513 533l-140 -37l96 -118l-87 -62l-85 125l-87 -124l-85 60l97 119l-139 38l32 100l132 -46v141h100v-141l131 46z" />
<glyph unicode="+" d="M565 254h-217v-254h-101v254h-216v98h216v253h101v-253h217v-98z" />
<glyph unicode="," horiz-adv-x="218" d="M148 4q0 -68 -40 -113t-108 -63v57q41 16 60.5 43t19.5 71h-80v149h148v-144z" />
<glyph unicode="-" horiz-adv-x="378" d="M298 201h-278v136h278v-136z" />
<glyph unicode="." horiz-adv-x="218" d="M148 0h-148v149h148v-149z" />
<glyph unicode="/" d="M455 749l-247 -842h-67l246 842h68z" />
<glyph unicode="0" d="M299 -18q-124 0 -196 112q-66 102 -66 249q0 149 65 251q73 114 197 114q123 0 196 -114q66 -103 66 -251q0 -147 -65 -248q-73 -113 -197 -113zM299 99q51 0 82 76q28 69 28 169q0 102 -27 170q-30 77 -83 77q-51 0 -80.5 -73.5t-29.5 -173.5q0 -101 28.5 -173t81.5 -72 z" />
<glyph unicode="1" d="M453 0h-140v485h-170v98q87 0 127 20q55 28 68 106h115v-709z" />
<glyph unicode="2" d="M550 493q0 -103 -64 -167q-27 -27 -137 -92q-92 -54 -128 -113h322v-121h-497q0 126 93 217q7 7 173 129q94 69 94 139q0 46 -32 77t-74 31t-71 -31q-34 -36 -40 -106h-131q0 125 75 194q66 61 166 61q99 0 172 -58q79 -63 79 -160z" />
<glyph unicode="3" d="M552 209q0 -106 -82 -172q-75 -60 -180 -60q-101 0 -169 58q-77 66 -77 181h136q0 -58 35 -91q32 -30 77 -30q47 0 78 27q35 30 35 81q0 63 -51 89q-38 19 -107 19v98q59 0 93 18q44 24 44 78q0 41 -29 66.5t-68 25.5t-66.5 -28.5t-27.5 -86.5h-135q0 111 74 173 q66 55 164 55q93 0 160 -50q73 -55 73 -142q0 -45 -22.5 -79.5t-63.5 -62.5q52 -26 80.5 -68t28.5 -99z" />
<glyph unicode="4" d="M558 153h-83v-153h-137v153h-300v124l262 413h175v-424h83v-113zM341 262v304l-194 -304h194z" />
<glyph unicode="5" d="M553 230q0 -116 -88 -187q-80 -64 -189 -64q-97 0 -161 52q-72 58 -72 159h139q0 -45 31.5 -71t75.5 -26q48 0 81 31q37 35 37 98q0 57 -36 93t-83 36q-27 0 -50 -11.5t-42 -37.5l-128 6l46 382h407v-121h-308l-17 -142q25 20 55 30t60 10q93 0 167.5 -70.5t74.5 -166.5z " />
<glyph unicode="6" d="M536 528h-144q-8 31 -32 49.5t-54 18.5q-47 0 -79 -42q-37 -49 -37 -143q57 48 135 48q109 0 173 -72q57 -64 57 -160q0 -100 -63 -170q-70 -78 -189 -78q-139 0 -206 110q-56 91 -56 239q0 191 92 295q78 88 193 88q85 0 147.5 -51.5t62.5 -131.5zM308 92 q51 0 79.5 36.5t28.5 87.5q0 52 -28 88q-32 41 -88 41q-52 0 -80 -35t-28 -84q0 -53 31.5 -93.5t84.5 -40.5z" />
<glyph unicode="7" d="M549 582q-114 -131 -173.5 -268.5t-80.5 -313.5h-147q16 169 78 304q53 116 169 264h-348v122h502v-108z" />
<glyph unicode="8" d="M450 372q52 -28 78 -72t26 -95q0 -89 -68 -155q-73 -71 -187 -71q-123 0 -194 68q-64 61 -64 150q0 55 26.5 101t79.5 74q-44 29 -65.5 67t-21.5 78q0 77 68 135t170 58t170 -59t68 -136q0 -41 -20.5 -77t-65.5 -66zM298 425q47 0 73.5 25t26.5 59q0 35 -26 61t-74 26 q-47 0 -73.5 -25.5t-26.5 -61.5q0 -35 25.5 -59.5t74.5 -24.5zM298 97q53 0 82 32q26 28 26 72q0 45 -28 77q-31 36 -82 36q-50 0 -81 -35q-27 -31 -27 -76q0 -43 28.5 -74.5t81.5 -31.5z" />
<glyph unicode="9" d="M554 355q0 -188 -88 -290q-77 -89 -189 -89q-81 0 -142 49q-64 52 -75 136h144q3 -30 29 -50t59 -20q48 0 78 40q36 48 36 146q-22 -21 -63 -35.5t-74 -14.5q-107 0 -170 73q-57 66 -57 163q0 100 62 169q69 77 190 77q140 0 206 -113q54 -92 54 -241zM299 343 q52 0 78.5 32.5t26.5 80.5q0 55 -30 95q-33 44 -84 44q-47 0 -75.5 -38t-28.5 -89q0 -52 27 -86q31 -39 86 -39z" />
<glyph unicode=":" horiz-adv-x="219" d="M149 0h-149v149h149v-149zM149 380h-149v149h149v-149z" />
<glyph unicode=";" horiz-adv-x="220" d="M150 380h-150v149h150v-149zM150 5q0 -69 -40 -113.5t-109 -62.5v57q44 16 62.5 41.5t18.5 72.5h-82v149h150v-144z" />
<glyph unicode="&#x3c;" d="M570 13l-544 241v97l544 241v-109l-404 -180l404 -181v-109z" />
<glyph unicode="=" d="M575 361h-554v96h554v-96zM575 147h-554v97h554v-97z" />
<glyph unicode="&#x3e;" d="M570 254l-544 -241v109l402 181l-402 180v109l544 -241v-97z" />
<glyph unicode="?" horiz-adv-x="565" d="M495 529q0 -72 -47 -123l-87 -79q-47 -49 -47 -116h-133v71q0 51 81 120t81 120q0 46 -31 74t-72 28t-68 -28q-31 -33 -31 -92h-140q0 117 79 184q72 61 174 61q99 0 166 -55q75 -61 75 -165zM321 0h-146v146h146v-146z" />
<glyph unicode="@" horiz-adv-x="989" d="M803 -38q-72 -56 -158 -85t-179 -29q-225 0 -352 127q-114 114 -114 285q0 188 129 324q143 150 374 150q204 0 317 -115q99 -100 99 -249q0 -129 -74 -219q-80 -98 -208 -98q-53 0 -72 12q-25 16 -34 69q-28 -38 -64.5 -59t-82.5 -21q-81 0 -124 50q-38 44 -38 118 q0 103 65 187q71 92 173 92q37 0 66.5 -17.5t53.5 -48.5l25 50h89l-56 -217q-21 -84 -21 -97q0 -18 14 -27.5t32 -9.5q71 0 118 69.5t47 164.5q0 116 -71 193q-84 91 -242 91q-199 0 -319 -123q-109 -111 -109 -267q0 -139 93 -232q104 -104 286 -104q75 0 155.5 25 t142.5 67zM554 348q1 4 1 12q0 28 -27 48.5t-59 20.5q-61 0 -103 -66q-37 -59 -37 -131q0 -47 19 -76.5t56 -29.5q46 0 79.5 33.5t44.5 80.5z" />
<glyph unicode="A" horiz-adv-x="770" d="M696 0h-158l-49 150h-283l-49 -150h-157l260 729h172zM449 271l-103 312l-101 -312h204z" />
<glyph unicode="B" horiz-adv-x="675" d="M486 394q52 -21 83.5 -69.5t31.5 -105.5q0 -105 -84 -165q-76 -54 -185 -54h-332v729h344q95 0 158 -44q72 -51 72 -142q0 -49 -22.5 -89t-65.5 -60zM316 447q41 0 72 18q37 22 37 61t-38 60q-31 17 -73 17h-171v-156h173zM321 131q49 0 83 21q41 26 41 72t-38 71.5 t-87 25.5h-177v-190h178z" />
<glyph unicode="C" horiz-adv-x="751" d="M699 249q-27 -127 -121 -198.5t-225 -71.5q-160 0 -259 115q-94 109 -94 271q0 166 97 273q101 111 265 111q119 0 215.5 -72.5t117.5 -187.5h-158q-21 59 -69.5 93.5t-110.5 34.5q-97 0 -153 -79q-50 -71 -50 -172t49 -173q56 -82 152 -82q66 0 114 36.5t73 101.5h157z " />
<glyph unicode="D" horiz-adv-x="697" d="M288 729q150 0 242 -100t92 -252q0 -166 -105.5 -271.5t-271.5 -105.5h-245v729h288zM287 602h-139v-471h120q97 0 153 68q52 64 52 164q0 92 -45 160q-52 79 -141 79z" />
<glyph unicode="E" horiz-adv-x="593" d="M548 0h-548v729h529v-127h-381v-155h349v-126h-349v-187h400v-134z" />
<glyph unicode="F" horiz-adv-x="560" d="M509 602h-361v-165h317v-126h-317v-311h-148v729h509v-127z" />
<glyph unicode="G" horiz-adv-x="761" d="M699 -1h-102l-17 86q-97 -106 -235 -106q-157 0 -254 117q-91 110 -91 271q0 164 94 270q99 112 261 112q120 0 214 -66t123 -181h-162q-19 52 -66.5 84t-103.5 32q-98 0 -155 -80q-52 -73 -52 -174q0 -103 52 -174q58 -79 159 -79q67 0 116.5 45.5t67.5 112.5h-153v125 h304v-395z" />
<glyph unicode="H" horiz-adv-x="686" d="M603 0h-151v324h-301v-324h-151v729h151v-272h301v272h151v-729z" />
<glyph unicode="I" horiz-adv-x="263" d="M180 0h-150v729h150v-729z" />
<glyph unicode="J" horiz-adv-x="547" d="M467 212q0 -122 -54.5 -177.5t-176.5 -55.5q-138 0 -192 80q-44 66 -44 211h144l-1 -47q0 -57 15 -83q21 -36 73 -36q50 0 70 35q16 28 16 82v508h150v-517z" />
<glyph unicode="K" horiz-adv-x="717" d="M648 0h-182l-238 333l-78 -77v-256h-150v729h150v-300l285 300h187l-290 -295z" />
<glyph unicode="L" horiz-adv-x="549" d="M507 0h-507v729h150v-595h357v-134z" />
<glyph unicode="M" horiz-adv-x="817" d="M734 0h-141v589l-148 -589h-155l-150 589v-589h-140v729h223l144 -555l143 555h224v-729z" />
<glyph unicode="N" horiz-adv-x="683" d="M600 0h-155l-297 501v-501h-148v729h156l297 -502v502h147v-729z" />
<glyph unicode="O" horiz-adv-x="788" d="M358 -21q-162 0 -262 113q-96 108 -96 272t95 272q100 113 263 113q162 0 262 -113q96 -108 96 -272t-95 -272q-100 -113 -263 -113zM358 111q97 0 154 81q50 71 50 173q0 101 -50 172q-57 80 -154 80q-98 0 -154 -79q-51 -72 -51 -173q0 -102 50 -173q57 -81 155 -81z " />
<glyph unicode="P" horiz-adv-x="603" d="M150 260v-260h-150v729h324q103 0 167 -67t64 -171q0 -99 -60 -165t-159 -66h-186zM304 602h-153v-210h145q50 0 82.5 25.5t32.5 74.5q0 46 -31 78t-76 32z" />
<glyph unicode="Q" horiz-adv-x="789" d="M716 34l-81 -85l-88 81q-38 -27 -87 -39t-103 -12q-162 0 -259.5 110t-97.5 274t95 272q100 114 263 114q160 0 261 -113q97 -109 97 -271q0 -67 -20 -133.5t-59 -121.5zM526 215q18 33 26.5 69.5t8.5 78.5q0 101 -47 172q-54 82 -150 82q-100 0 -159 -80 q-54 -73 -54 -176q0 -101 50 -170q56 -78 153 -78q47 0 89 18l-77 76l81 85z" />
<glyph unicode="R" horiz-adv-x="682" d="M602 0h-164q-9 15 -14.5 38.5t-5.5 65.5v26q0 12 1 25q0 66 -20 94q-25 34 -90 34h-159v-283h-150v729h354q100 0 165 -49q71 -54 71 -151q0 -58 -29 -108.5t-82 -70.5q45 -16 67 -51q26 -41 26 -132v-44q0 -39 4.5 -62.5t25.5 -37.5v-23zM333 603h-183v-191h176 q47 0 79 23q36 26 36 72q0 44 -31 70t-77 26z" />
<glyph unicode="S" horiz-adv-x="659" d="M595 221q0 -114 -90 -181q-82 -61 -200 -61q-121 0 -205 64q-90 68 -100 186h150q6 -58 58 -91q46 -29 107 -29q50 0 88 21q46 26 46 73q0 65 -113 93q-194 48 -209 55q-114 50 -114 167q0 108 85 172q78 59 190 59q116 0 195 -60q87 -66 87 -175h-144q-6 53 -47 81.5 t-96 28.5q-48 0 -83 -20q-43 -24 -43 -69q0 -63 113 -90q196 -47 211 -54q114 -51 114 -170z" />
<glyph unicode="T" horiz-adv-x="644" d="M582 598h-216v-598h-151v598h-215v131h582v-131z" />
<glyph unicode="U" horiz-adv-x="667" d="M585 261q0 -126 -83 -204t-210 -78t-209.5 77.5t-82.5 204.5v468h151v-451q0 -69 36 -116q40 -52 107 -52q66 0 105 52q35 47 35 116v451h151v-468z" />
<glyph unicode="V" horiz-adv-x="718" d="M645 729l-249 -729h-146l-250 729h167l155 -545l158 545h165z" />
<glyph unicode="W" horiz-adv-x="1007" d="M930 729l-208 -729h-144l-113 559l-112 -559h-145l-208 729h155l125 -514l105 514h160l106 -514l124 514h155z" />
<glyph unicode="X" horiz-adv-x="719" d="M644 0h-173l-150 253l-149 -253h-172l228 372l-228 357h172l149 -254l149 254h174l-228 -355z" />
<glyph unicode="Y" horiz-adv-x="670" d="M602 729l-219 -458v-271h-151v271l-232 458h150l158 -314l143 314h151z" />
<glyph unicode="Z" horiz-adv-x="652" d="M579 602l-398 -471h390v-131h-571v127l397 470h-389v132h571v-127z" />
<glyph unicode="[" horiz-adv-x="320" d="M250 -216h-250v945h250v-106h-115v-734h115v-105z" />
<glyph unicode="\" horiz-adv-x="383" d="M313 -93h-67l-246 842h66z" />
<glyph unicode="]" horiz-adv-x="321" d="M251 -216h-251v105h117v734h-117v106h251v-945z" />
<glyph unicode="^" d="M454 602h-68l-88 109l-86 -109h-70l97 183h116z" />
<glyph unicode="_" d="M552 -240h-508v103h508v-103z" />
<glyph unicode="`" horiz-adv-x="207" d="M137 471h-137v127q0 57 40 101t97 50v-51q-40 -12 -56.5 -33.5t-16.5 -62.5h73v-131z" />
<glyph unicode="a" horiz-adv-x="566" d="M504 0h-151q-14 33 -17 67q-27 -40 -72 -63t-95 -23q-75 0 -122 46t-47 121q0 108 86 147q35 16 160 31q87 11 87 50q0 31 -28.5 47.5t-62.5 16.5q-37 0 -62 -21t-25 -57h-136q0 94 63 147q58 49 155 49q83 0 151 -37q85 -46 85 -122v-300q0 -26 6.5 -46t24.5 -29v-24z M335 214v50q-77 -19 -119 -32q-77 -25 -77 -76q0 -31 22 -48t54 -17q52 0 86 35t34 88z" />
<glyph unicode="b" horiz-adv-x="592" d="M300 -18q-51 0 -92 23.5t-70 67.5v-73h-138v729h140v-256q25 40 68 62.5t92 22.5q107 0 168 -94q52 -80 52 -194q0 -112 -52 -193q-61 -95 -168 -95zM261 432q-59 0 -93 -54q-29 -47 -29 -110t27 -108q33 -55 92 -55q60 0 93 55q28 46 28 110q0 62 -27 107q-33 55 -91 55 z" />
<glyph unicode="c" d="M541 203q-19 -100 -90.5 -160.5t-173.5 -60.5q-122 0 -199.5 79.5t-77.5 202.5q0 122 71 205q76 88 196 88q106 0 177 -53t97 -154h-155q-14 38 -42 61q-31 26 -70 26q-59 0 -95 -53q-32 -48 -32 -111q0 -67 28 -114q34 -58 97 -58q44 0 76 29t43 73h150z" />
<glyph unicode="d" horiz-adv-x="602" d="M520 0h-138v73q-58 -91 -163 -91q-107 0 -167 93q-52 80 -52 194q0 112 52 194q60 95 167 95q49 0 91.5 -22.5t69.5 -62.5v256h140v-729zM260 433q-58 0 -91 -55q-28 -47 -28 -109t27 -109q32 -56 90 -56q60 0 94 53q29 46 29 110q0 63 -28 110q-34 56 -93 56z" />
<glyph unicode="e" horiz-adv-x="582" d="M510 231h-361q0 -61 34 -97q31 -33 77 -33q65 0 99 62h145q-27 -88 -96 -137q-64 -45 -147 -45q-107 0 -180 71q-81 79 -81 214q0 147 69 226t189 79q125 0 188.5 -83.5t63.5 -256.5zM361 326q0 57 -29 86t-77 29q-47 0 -76 -30t-29 -85h211z" />
<glyph unicode="f" horiz-adv-x="378" d="M307 438h-89v-438h-141v438h-77v101h77q0 105 28 145q35 50 133 50l69 -3v-115h-45q-28 0 -37 -10t-9 -32v-17q0 -9 1 -18h90v-101z" />
<glyph unicode="g" horiz-adv-x="604" d="M521 35q0 -138 -62 -196t-202 -58q-94 0 -156 36q-75 44 -84 131h158q9 -28 33.5 -40t56.5 -12q73 0 98 44q18 32 18 111v24q-24 -38 -63.5 -56.5t-87.5 -18.5q-110 0 -173 83q-57 75 -57 189q0 113 56 194q64 92 172 92q100 0 156 -85v66h137v-504zM265 120q57 0 89 51 q27 43 27 104t-28 106q-33 53 -91 53q-57 0 -89 -51q-28 -44 -28 -105q0 -62 28 -106q33 -52 92 -52z" />
<glyph unicode="h" horiz-adv-x="563" d="M482 0h-144v281q0 59 -14 98q-21 58 -69 58q-42 0 -76 -38t-34 -81v-318h-145v729h145v-250q32 36 74 56.5t88 20.5q84 0 132 -63q43 -57 43 -144v-349z" />
<glyph unicode="i" horiz-adv-x="235" d="M154 597h-144v132h144v-132zM154 0h-144v539h144v-539z" />
<glyph unicode="j" horiz-adv-x="260" d="M174 597h-144v132h144v-132zM174 -86q0 -74 -44 -107q-38 -29 -115 -29l-48 2v121h15q24 0 36 7t12 30v601h144v-625z" />
<glyph unicode="k" horiz-adv-x="555" d="M496 0h-172l-129 228l-54 -57v-171h-141v729h141v-381l171 191h174l-188 -201z" />
<glyph unicode="l" horiz-adv-x="261" d="M173 0h-143v729h143v-729z" />
<glyph unicode="m" horiz-adv-x="845" d="M767 0h-143v348q0 35 -21 58t-56 23q-42 0 -68.5 -29.5t-26.5 -72.5v-327h-140v346q0 36 -21 59t-58 23q-42 0 -66.5 -29.5t-24.5 -72.5v-326h-142v539h136v-60q27 36 65.5 57t81.5 21q45 0 84 -22t70 -60q25 39 64 61t86 22q76 0 128 -52t52 -129v-377z" />
<glyph unicode="n" horiz-adv-x="563" d="M482 0h-144v326q0 44 -19 73q-22 34 -65 34q-45 0 -77.5 -34.5t-32.5 -80.5v-318h-144v539h140v-64q26 39 69 61t91 22q83 0 132.5 -53.5t49.5 -137.5v-367z" />
<glyph unicode="o" horiz-adv-x="627" d="M274 -18q-122 0 -198 81t-76 205q0 125 75.5 207.5t198.5 82.5q124 0 200 -83t76 -207t-76 -205t-200 -81zM273 102q63 0 98 54q30 46 30 113q0 66 -30 113q-35 55 -98 55q-61 0 -96 -55q-30 -47 -30 -113q0 -65 30 -112q35 -55 96 -55z" />
<glyph unicode="p" horiz-adv-x="593" d="M300 -18q-49 0 -91.5 21.5t-68.5 62.5v-281h-140v755h138v-74q28 43 70 67.5t92 24.5q108 0 168 -93q52 -80 52 -194q0 -113 -52 -194q-61 -95 -168 -95zM262 434q-61 0 -94 -53q-29 -46 -29 -110t28 -110q33 -55 93 -55q58 0 91 54q28 46 28 108t-27 109q-32 57 -90 57z " />
<glyph unicode="q" horiz-adv-x="600" d="M520 -215h-140v285q-58 -88 -160 -88q-106 0 -167 93q-53 81 -53 193q0 113 52 195q61 95 168 95q48 0 90 -23.5t72 -63.5v69h138v-755zM260 433q-59 0 -91 -53q-27 -44 -27 -107t26 -110q32 -59 90 -59q60 0 94 53q30 47 30 110q0 64 -28 110q-34 56 -94 56z" />
<glyph unicode="r" horiz-adv-x="369" d="M311 406q-80 0 -117 -20q-50 -27 -50 -101v-285h-144v539h132v-94q30 55 73.5 81.5t105.5 26.5v-147z" />
<glyph unicode="s" horiz-adv-x="558" d="M490 165q0 -89 -81 -141q-70 -45 -164 -45q-99 0 -168 49q-77 54 -77 148h145q0 -40 37 -64q31 -20 76 -20q31 0 56 12q33 16 33 44q0 36 -85 57q-131 32 -159 46q-85 43 -85 133q0 82 75 132q66 44 152 44q90 0 154 -48.5t75 -135.5h-140q-4 35 -32 53.5t-66 18.5 q-27 0 -52 -11.5t-25 -35.5q0 -36 85 -60q136 -38 160 -50q86 -43 86 -126z" />
<glyph unicode="t" horiz-adv-x="368" d="M297 -4q-15 0 -45 -2t-45 -2q-79 0 -108 35.5t-29 118.5v292h-70v101h70v146h144v-146h83v-101h-83v-300q0 -21 13.5 -28t36.5 -7h17q8 0 16 1v-108z" />
<glyph unicode="u" horiz-adv-x="563" d="M481 0h-140v64q-35 -37 -79.5 -57.5t-93.5 -20.5q-79 0 -123.5 52.5t-44.5 133.5v367h143v-326q0 -45 19 -74q23 -34 66 -34q46 0 78 34t32 80v320h143v-539z" />
<glyph unicode="v" d="M533 539l-192 -539h-149l-192 539h160l109 -387l112 387h152z" />
<glyph unicode="w" horiz-adv-x="828" d="M761 539l-150 -539h-145l-86 386l-83 -386h-145l-152 539h146l88 -375l75 375h147l77 -375l89 375h139z" />
<glyph unicode="x" horiz-adv-x="595" d="M532 0h-169l-99 171l-98 -171h-166l182 275l-174 264h164l96 -163l94 163h160l-170 -262z" />
<glyph unicode="y" d="M532 539l-212 -616q-22 -66 -60 -94t-106 -28q-27 0 -41 1q-18 3 -26 3v116q10 -1 19.5 -2.5t22.5 -1.5q34 0 49.5 17.5t15.5 53.5q0 9 -45 137l-88 246l-61 168h157l114 -390l110 390h151z" />
<glyph unicode="z" horiz-adv-x="542" d="M478 0h-478v111l296 314h-278v114h450v-118l-291 -302h301v-119z" />
<glyph unicode="{" horiz-adv-x="431" d="M361 -205q-143 0 -195 54q-38 39 -38 125q0 20 3 60t3 57q0 59 -23 85q-31 35 -111 35v104q80 0 111 34q25 27 25 85q0 24 -2 46q-7 76 -7 84q0 80 40 117q54 50 194 50v-103q-67 0 -94 -28q-22 -23 -22 -69q0 -23 2 -43q7 -71 7 -78q0 -53 -19 -85q-25 -42 -86 -62 q62 -14 86 -55q18 -31 18 -90q0 -23 -2.5 -61t-2.5 -44q0 -55 20 -81q26 -33 93 -33v-104z" />
<glyph unicode="|" horiz-adv-x="173" d="M103 333h-103v376h103v-376zM103 -174h-103v376h103v-376z" />
<glyph unicode="}" horiz-adv-x="430" d="M360 211q-78 0 -108 -34q-24 -27 -24 -85q0 -19 4 -62t4 -65q0 -81 -40 -119q-54 -51 -196 -51v104q65 0 91 31q20 24 20 76q0 21 -2.5 60t-2.5 47q0 56 19 89q24 42 87 61q-62 18 -87 62q-20 35 -20 90q0 19 3 57t3 55q0 49 -20 72q-26 29 -91 29v103q142 0 195 -51 q40 -38 40 -120q0 -22 -3 -51q-7 -68 -7 -82q0 -54 25 -80q31 -32 110 -32v-104z" />
<glyph unicode="~" horiz-adv-x="683" d="M613 697q0 -98 -40 -156q-47 -68 -141 -68q-67 0 -139.5 62.5t-105.5 62.5q-48 0 -70 -40q-17 -32 -17 -85h-100q0 94 42 154q48 69 139 69q65 0 138 -63t111 -63q48 0 68 42q15 31 15 85h100z" />
<glyph unicode="&#xa3;" horiz-adv-x="586" d="M516 28q-42 -24 -81.5 -34.5t-72.5 -10.5q-37 0 -75 10q-95 25 -115 25q-28 0 -56 -9t-60 -30l-56 103q59 44 80 70q29 35 29 75q0 36 -24 90h-85v54h53q-15 33 -27 69q-15 44 -15 72q0 87 75 144q70 53 166 53q94 0 159 -53q75 -61 88 -175h-138q0 57 -33 89 q-29 28 -73 28q-40 0 -70 -25t-30 -65q0 -36 25 -88l24 -49h141v-54h-122q3 -19 5 -33t2 -28q0 -46 -23 -82q-17 -26 -72 -77q27 13 53.5 18.5t50.5 5.5q26 0 89 -12q32 -6 49 -6q25 0 46.5 7t47.5 26z" />
<glyph unicode="&#xa4;" horiz-adv-x="594" d="M525 570l-96 -95q18 -36 18 -77q0 -35 -15 -67l92 -92l-75 -77l-94 92q-35 -16 -79 -16q-43 0 -78 16l-93 -92l-75 76l90 92q-13 30 -13 67q0 41 18 77l-96 97l77 75l99 -99q34 12 72 12q37 0 71 -12l100 99zM277 464q-35 0 -53.5 -19.5t-18.5 -47.5q0 -25 19 -45t52 -20 q35 0 53.5 19.5t18.5 47.5q0 25 -19 45t-52 20z" />
<glyph unicode="&#xa5;" horiz-adv-x="670" d="M141 450l-141 279h150l158 -314l143 314h151l-134 -279h92v-110h-144l-29 -60h173v-110h-177v-170h-151v170h-175v110h170l-30 60h-140v110h84z" />
<glyph unicode="&#xa6;" horiz-adv-x="173" d="M103 333h-103v376h103v-376zM103 -174h-103v376h103v-376z" />
<glyph unicode="&#xa7;" horiz-adv-x="526" d="M456 338q0 -45 -23 -81.5t-64 -58.5q26 -23 42 -55.5t16 -66.5q0 -80 -66 -131q-61 -47 -144 -47q-78 0 -129 43q-57 48 -57 137h122q6 -39 28.5 -58t50.5 -19t49 16.5t21 42.5q0 41 -78 80l-146 74q-78 54 -78 129q0 44 24 78q21 30 63 54q-21 19 -35 44t-14 50 q0 85 58 135q53 46 129 46q72 0 123 -41q57 -46 65 -128h-119q0 32 -21.5 49.5t-51.5 17.5q-26 0 -45 -13.5t-19 -37.5q0 -34 77 -70q131 -61 144 -69q78 -51 78 -120zM302 241q39 27 39 55q0 18 -15.5 34.5t-44.5 31.5l-130 67q-20 -13 -30.5 -27.5t-10.5 -26.5 q0 -21 25 -43q18 -15 55 -34z" />
<glyph unicode="&#xa8;" horiz-adv-x="672" d="M439 753h-112v122h112v-122zM266 753h-113v122h113v-122z" />
<glyph unicode="&#xa9;" horiz-adv-x="795" d="M365 -4q-171 0 -272 115q-91 104 -91 254q0 149 90 252q100 115 270 115q171 0 272 -116q91 -104 91 -254q0 -149 -90 -252q-100 -114 -270 -114zM362 672q-144 0 -229 -96q-76 -86 -76 -212q0 -125 76 -212q85 -97 228 -97q144 0 229 97q76 87 76 213t-75 211 q-84 96 -229 96zM546 295q-7 -69 -58.5 -111t-122.5 -42q-95 0 -150 68q-50 62 -50 150q0 90 49 154q54 70 142 70q71 0 123.5 -36.5t61.5 -104.5h-94q0 31 -24 53t-56 22q-49 0 -75.5 -43.5t-26.5 -105.5q0 -61 25.5 -107.5t68.5 -46.5q78 0 91 80h96z" />
<glyph unicode="&#xaa;" horiz-adv-x="283" d="M252 450h-75q-3 8 -6 17t-3 17q-29 -44 -83 -44q-37 0 -61 23t-24 61q0 72 83.5 85t83.5 29q0 15 -15 23.5t-31 8.5q-43 0 -43 -39h-68q0 47 30.5 72.5t78.5 25.5q43 0 76 -18q42 -23 42 -61v-150q0 -14 2.5 -23.5t12.5 -14.5v-12zM168 557v25q-38 -9 -59 -16 q-39 -13 -39 -38q0 -15 10.5 -23.5t27.5 -8.5q27 0 43.5 17.5t16.5 43.5z" />
<glyph unicode="&#xab;" horiz-adv-x="449" d="M379 63l-165 143v126l165 143v-118l-101 -88l101 -89v-117zM165 63l-165 143v126l165 143v-118l-101 -88l101 -89v-117z" />
<glyph unicode="&#xac;" horiz-adv-x="577" d="M507 67h-110v147h-397v110h507v-257z" />
<glyph unicode="&#xad;" horiz-adv-x="577" d="M507 214h-507v110h507v-110z" />
<glyph unicode="&#xae;" horiz-adv-x="795" d="M365 -4q-171 0 -272 115q-91 104 -91 254q0 149 90 252q100 115 270 115q171 0 272 -116q91 -104 91 -254q0 -149 -90 -252q-100 -114 -270 -114zM362 672q-144 0 -229 -96q-76 -86 -76 -212q0 -125 76 -212q85 -97 228 -97q144 0 229 97q76 87 76 213t-75 211 q-84 96 -229 96zM563 137h-103q-5 9 -8.5 25.5t-3.5 43.5v29q0 42 -14 61.5t-55 19.5h-100v-179h-94v460h223q63 0 103 -30q45 -34 45 -96q0 -36 -18.5 -68.5t-51.5 -44.5q28 -10 43 -33t15 -79v-30q0 -25 3 -40t16 -23v-16zM394 517h-115v-120h111q31 0 51.5 15t20.5 45 q0 27 -19.5 43.5t-48.5 16.5z" />
<glyph unicode="&#xaf;" horiz-adv-x="555" d="M558 690h-558v110h558v-110z" />
<glyph unicode="&#xb0;" horiz-adv-x="331" d="M130 582q-62 0 -96.5 39.5t-34.5 93.5q0 53 33 90q37 41 98 41t98 -41q33 -37 33 -91q0 -53 -34.5 -92.5t-96.5 -39.5zM130 654q27 0 43 18t16 43t-15 42t-44 17q-28 0 -43.5 -17.5t-15.5 -42.5q0 -24 15.5 -42t43.5 -18z" />
<glyph unicode="&#xb1;" d="M575 346h-226v-163h-101v163h-227v97h226v163h101v-163h227v-97zM575 0h-554v98h554v-98z" />
<glyph unicode="&#xb2;" horiz-adv-x="403" d="M333 570q0 -61 -70 -118l-154 -104h219v-73h-328q0 77 61 132q9 8 115 77q62 40 62 81q0 29 -22.5 47.5t-51.5 18.5t-49 -20t-20 -62h-88q0 75 49 117q43 37 108 37q68 0 118.5 -36.5t50.5 -96.5z" />
<glyph unicode="&#xb3;" horiz-adv-x="406" d="M336 400q0 -64 -53 -102q-49 -35 -118 -35q-68 0 -114 35q-51 39 -51 109h89q6 -38 29 -58q19 -17 47 -17q29 0 50.5 18.5t21.5 48.5q0 39 -34 53q-24 10 -68 10v58q36 0 59 11q31 15 31 48q0 24 -19 40t-44 16t-43 -17t-21 -54h-89q6 69 53 106q43 33 104 33t107.5 -32 t46.5 -85q0 -29 -15 -49.5t-42 -35.5q34 -14 53.5 -39.5t19.5 -61.5z" />
<glyph unicode="&#xb4;" horiz-adv-x="215" d="M95 435h-95v276h95v-276z" />
<glyph unicode="&#xb5;" horiz-adv-x="543" d="M466 0h-122v49q-21 -27 -47.5 -42t-58.5 -15q-25 0 -50 10.5t-45 28.5v-231h-143v739h143v-281q0 -65 13 -98q20 -51 76 -51q64 0 82 64q9 31 9 116v250h143v-539z" />
<glyph unicode="&#xb6;" horiz-adv-x="488" d="M15 642h23l33 -94l34 94h22l1 -111h-15v93l-35 -93h-14l-35 96v-96h-14v111zM223 615l-1 -89q0 -29 -39 -29h-18q-10 3 -14 4l-2 12l33 -5q25 0 25 20v22q-6 -17 -31 -17q-37 0 -37 41q0 45 50 45h19q11 -3 15 -4zM208 606l-18 1q-37 0 -37 -34q0 -29 26 -29q29 0 29 29 v33zM408 711h-46v-712h-46v712h-88v-712h-46v434q-70 0 -123 37q-59 42 -59 110q0 81 73 132q67 46 150 46h185v-47z" />
<glyph unicode="&#xb7;" horiz-adv-x="219" d="M149 380h-149v149h149v-149z" />
<glyph unicode="&#x2219;" horiz-adv-x="219" d="M149 380h-149v149h149v-149z" />
<glyph unicode="&#xb9;" d="M453 0h-140v485h-170v98q87 0 127 20q55 28 68 106h115v-709z" />
<glyph unicode="&#xba;" horiz-adv-x="627" d="M274 -18q-122 0 -198 81t-76 205q0 125 75.5 207.5t198.5 82.5q124 0 200 -83t76 -207t-76 -205t-200 -81zM273 102q63 0 98 54q30 46 30 113q0 66 -30 113q-35 55 -98 55q-61 0 -96 -55q-30 -47 -30 -113q0 -65 30 -112q35 -55 96 -55z" />
<glyph unicode="&#xbb;" horiz-adv-x="449" d="M379 206l-165 -143v117l101 89l-101 88v118l165 -143v-126zM165 206l-165 -143v117l101 89l-101 88v118l165 -143v-126z" />
<glyph unicode="&#xbd;" horiz-adv-x="855" d="M785 274q0 -57 -70 -108l-154 -93q4 -4 31 -5t74 -1h19h16h14h12h27q14 0 28 1v-68h-314l3 28q8 71 116 140.5t108 102.5q0 26 -20.5 43.5t-48.5 17.5q-27 0 -45.5 -18.5t-22.5 -58.5h-83q0 70 47 109q42 35 105 35t110.5 -34t47.5 -91zM625 719l-432 -739h-82l434 739 h80zM196 304h-90v271h-106v55q66 0 91.5 18.5t31.5 52.5h73v-397z" />
<glyph unicode="&#xc0;" horiz-adv-x="770" d="M415 809h-137v127q0 57 40 101t97 50v-51q-40 -12 -56.5 -33.5t-16.5 -62.5h73v-131zM696 0h-158l-49 150h-283l-49 -150h-157l260 729h172zM449 271l-103 312l-101 -312h204z" />
<glyph unicode="&#xc1;" horiz-adv-x="770" d="M393 809h-95v276h95v-276zM696 0h-158l-49 150h-283l-49 -150h-157l260 729h172zM449 271l-103 312l-101 -312h204z" />
<glyph unicode="&#xc2;" horiz-adv-x="770" d="M502 809h-68l-88 109l-86 -109h-70l97 183h116zM696 0h-158l-49 150h-283l-49 -150h-157l260 729h172zM449 271l-103 312l-101 -312h204z" />
<glyph unicode="&#xc3;" horiz-adv-x="770" d="M653 1033q0 -98 -40 -156q-47 -68 -141 -68q-67 0 -139.5 62.5t-105.5 62.5q-48 0 -70 -40q-17 -32 -17 -85h-100q0 94 42 154q48 69 139 69q65 0 138 -63t111 -63q48 0 68 42q15 31 15 85h100zM696 0h-158l-49 150h-283l-49 -150h-157l260 729h172zM449 271l-103 312 l-101 -312h204z" />
<glyph unicode="&#xc4;" horiz-adv-x="770" d="M489 809h-112v122h112v-122zM316 809h-113v122h113v-122zM696 0h-158l-49 150h-283l-49 -150h-157l260 729h172zM449 271l-103 312l-101 -312h204z" />
<glyph unicode="&#xc5;" horiz-adv-x="770" d="M346 740q-62 0 -96.5 39.5t-34.5 93.5q0 53 33 90q37 41 98 41t98 -41q33 -37 33 -91q0 -53 -34.5 -92.5t-96.5 -39.5zM346 812q27 0 43 18t16 43t-15 42t-44 17q-28 0 -43.5 -17.5t-15.5 -42.5q0 -24 15.5 -42t43.5 -18zM696 0h-158l-49 150h-283l-49 -150h-157l260 729 h172zM449 271l-103 312l-101 -312h204z" />
<glyph unicode="&#xc8;" horiz-adv-x="593" d="M333 809h-137v127q0 57 40 101t97 50v-51q-40 -12 -56.5 -33.5t-16.5 -62.5h73v-131zM548 0h-548v729h529v-127h-381v-155h349v-126h-349v-187h400v-134z" />
<glyph unicode="&#xc9;" horiz-adv-x="593" d="M312 809h-95v276h95v-276zM548 0h-548v729h529v-127h-381v-155h349v-126h-349v-187h400v-134z" />
<glyph unicode="&#xca;" horiz-adv-x="593" d="M420 809h-68l-88 109l-86 -109h-70l97 183h116zM548 0h-548v729h529v-127h-381v-155h349v-126h-349v-187h400v-134z" />
<glyph unicode="&#xcb;" horiz-adv-x="593" d="M407 809h-112v122h112v-122zM234 809h-113v122h113v-122zM548 0h-548v729h529v-127h-381v-155h349v-126h-349v-187h400v-134z" />
<glyph unicode="&#xcc;" horiz-adv-x="263" d="M173 809h-137v127q0 57 40 101t97 50v-51q-40 -12 -56.5 -33.5t-16.5 -62.5h73v-131zM180 0h-150v729h150v-729z" />
<glyph unicode="&#xcd;" horiz-adv-x="263" d="M153 809h-95v276h95v-276zM180 0h-150v729h150v-729z" />
<glyph unicode="&#xce;" horiz-adv-x="263" d="M261 809h-68l-88 109l-86 -109h-70l97 183h116zM180 0h-150v729h150v-729z" />
<glyph unicode="&#xcf;" horiz-adv-x="263" d="M248 809h-112v122h112v-122zM75 809h-113v122h113v-122zM180 0h-150v729h150v-729z" />
<glyph unicode="&#xd1;" horiz-adv-x="683" d="M607 1033q0 -98 -40 -156q-47 -68 -141 -68q-67 0 -139.5 62.5t-105.5 62.5q-48 0 -70 -40q-17 -32 -17 -85h-100q0 94 42 154q48 69 139 69q65 0 138 -63t111 -63q48 0 68 42q15 31 15 85h100zM600 0h-155l-297 501v-501h-148v729h156l297 -502v502h147v-729z" />
<glyph unicode="&#xd2;" horiz-adv-x="788" d="M427 809h-137v127q0 57 40 101t97 50v-51q-40 -12 -56.5 -33.5t-16.5 -62.5h73v-131zM358 -21q-162 0 -262 113q-96 108 -96 272t95 272q100 113 263 113q162 0 262 -113q96 -108 96 -272t-95 -272q-100 -113 -263 -113zM358 111q97 0 154 81q50 71 50 173q0 101 -50 172 q-57 80 -154 80q-98 0 -154 -79q-51 -72 -51 -173q0 -102 50 -173q57 -81 155 -81z" />
<glyph unicode="&#xd3;" horiz-adv-x="788" d="M405 809h-95v276h95v-276zM358 -21q-162 0 -262 113q-96 108 -96 272t95 272q100 113 263 113q162 0 262 -113q96 -108 96 -272t-95 -272q-100 -113 -263 -113zM358 111q97 0 154 81q50 71 50 173q0 101 -50 172q-57 80 -154 80q-98 0 -154 -79q-51 -72 -51 -173 q0 -102 50 -173q57 -81 155 -81z" />
<glyph unicode="&#xd4;" horiz-adv-x="788" d="M514 809h-68l-88 109l-86 -109h-70l97 183h116zM358 -21q-162 0 -262 113q-96 108 -96 272t95 272q100 113 263 113q162 0 262 -113q96 -108 96 -272t-95 -272q-100 -113 -263 -113zM358 111q97 0 154 81q50 71 50 173q0 101 -50 172q-57 80 -154 80q-98 0 -154 -79 q-51 -72 -51 -173q0 -102 50 -173q57 -81 155 -81z" />
<glyph unicode="&#xd5;" horiz-adv-x="788" d="M665 1033q0 -98 -40 -156q-47 -68 -141 -68q-67 0 -139.5 62.5t-105.5 62.5q-48 0 -70 -40q-17 -32 -17 -85h-100q0 94 42 154q48 69 139 69q65 0 138 -63t111 -63q48 0 68 42q15 31 15 85h100zM358 -21q-162 0 -262 113q-96 108 -96 272t95 272q100 113 263 113 q162 0 262 -113q96 -108 96 -272t-95 -272q-100 -113 -263 -113zM358 111q97 0 154 81q50 71 50 173q0 101 -50 172q-57 80 -154 80q-98 0 -154 -79q-51 -72 -51 -173q0 -102 50 -173q57 -81 155 -81z" />
<glyph unicode="&#xd6;" horiz-adv-x="788" d="M501 809h-112v122h112v-122zM328 809h-113v122h113v-122zM358 -21q-162 0 -262 113q-96 108 -96 272t95 272q100 113 263 113q162 0 262 -113q96 -108 96 -272t-95 -272q-100 -113 -263 -113zM358 111q97 0 154 81q50 71 50 173q0 101 -50 172q-57 80 -154 80 q-98 0 -154 -79q-51 -72 -51 -173q0 -102 50 -173q57 -81 155 -81z" />
<glyph unicode="&#xd9;" horiz-adv-x="667" d="M361 809h-137v127q0 57 40 101t97 50v-51q-40 -12 -56.5 -33.5t-16.5 -62.5h73v-131zM585 261q0 -126 -83 -204t-210 -78t-209.5 77.5t-82.5 204.5v468h151v-451q0 -69 36 -116q40 -52 107 -52q66 0 105 52q35 47 35 116v451h151v-468z" />
<glyph unicode="&#xda;" horiz-adv-x="667" d="M340 809h-95v276h95v-276zM585 261q0 -126 -83 -204t-210 -78t-209.5 77.5t-82.5 204.5v468h151v-451q0 -69 36 -116q40 -52 107 -52q66 0 105 52q35 47 35 116v451h151v-468z" />
<glyph unicode="&#xdb;" horiz-adv-x="667" d="M448 809h-68l-88 109l-86 -109h-70l97 183h116zM585 261q0 -126 -83 -204t-210 -78t-209.5 77.5t-82.5 204.5v468h151v-451q0 -69 36 -116q40 -52 107 -52q66 0 105 52q35 47 35 116v451h151v-468z" />
<glyph unicode="&#xdc;" horiz-adv-x="667" d="M435 809h-112v122h112v-122zM262 809h-113v122h113v-122zM585 261q0 -126 -83 -204t-210 -78t-209.5 77.5t-82.5 204.5v468h151v-451q0 -69 36 -116q40 -52 107 -52q66 0 105 52q35 47 35 116v451h151v-468z" />
<glyph unicode="&#xdd;" horiz-adv-x="670" d="M349 809h-95v276h95v-276zM602 729l-219 -458v-271h-151v271l-232 458h150l158 -314l143 314h151z" />
<glyph unicode="&#xe0;" horiz-adv-x="566" d="M305 618h-137v127q0 57 40 101t97 50v-51q-40 -12 -56.5 -33.5t-16.5 -62.5h73v-131zM504 0h-151q-14 33 -17 67q-27 -40 -72 -63t-95 -23q-75 0 -122 46t-47 121q0 108 86 147q35 16 160 31q87 11 87 50q0 31 -28.5 47.5t-62.5 16.5q-37 0 -62 -21t-25 -57h-136 q0 94 63 147q58 49 155 49q83 0 151 -37q85 -46 85 -122v-300q0 -26 6.5 -46t24.5 -29v-24zM335 214v50q-77 -19 -119 -32q-77 -25 -77 -76q0 -31 22 -48t54 -17q52 0 86 35t34 88z" />
<glyph unicode="&#xe1;" horiz-adv-x="566" d="M285 618h-95v276h95v-276zM504 0h-151q-14 33 -17 67q-27 -40 -72 -63t-95 -23q-75 0 -122 46t-47 121q0 108 86 147q35 16 160 31q87 11 87 50q0 31 -28.5 47.5t-62.5 16.5q-37 0 -62 -21t-25 -57h-136q0 94 63 147q58 49 155 49q83 0 151 -37q85 -46 85 -122v-300 q0 -26 6.5 -46t24.5 -29v-24zM335 214v50q-77 -19 -119 -32q-77 -25 -77 -76q0 -31 22 -48t54 -17q52 0 86 35t34 88z" />
<glyph unicode="&#xe2;" horiz-adv-x="566" d="M393 618h-68l-88 109l-86 -109h-70l97 183h116zM504 0h-151q-14 33 -17 67q-27 -40 -72 -63t-95 -23q-75 0 -122 46t-47 121q0 108 86 147q35 16 160 31q87 11 87 50q0 31 -28.5 47.5t-62.5 16.5q-37 0 -62 -21t-25 -57h-136q0 94 63 147q58 49 155 49q83 0 151 -37 q85 -46 85 -122v-300q0 -26 6.5 -46t24.5 -29v-24zM335 214v50q-77 -19 -119 -32q-77 -25 -77 -76q0 -31 22 -48t54 -17q52 0 86 35t34 88z" />
<glyph unicode="&#xe3;" horiz-adv-x="566" d="M543 842q0 -98 -40 -156q-47 -68 -141 -68q-67 0 -139.5 62.5t-105.5 62.5q-48 0 -70 -40q-17 -32 -17 -85h-100q0 94 42 154q48 69 139 69q65 0 138 -63t111 -63q48 0 68 42q15 31 15 85h100zM504 0h-151q-14 33 -17 67q-27 -40 -72 -63t-95 -23q-75 0 -122 46t-47 121 q0 108 86 147q35 16 160 31q87 11 87 50q0 31 -28.5 47.5t-62.5 16.5q-37 0 -62 -21t-25 -57h-136q0 94 63 147q58 49 155 49q83 0 151 -37q85 -46 85 -122v-300q0 -26 6.5 -46t24.5 -29v-24zM335 214v50q-77 -19 -119 -32q-77 -25 -77 -76q0 -31 22 -48t54 -17q52 0 86 35 t34 88z" />
<glyph unicode="&#xe4;" horiz-adv-x="566" d="M380 618h-112v122h112v-122zM207 618h-113v122h113v-122zM504 0h-151q-14 33 -17 67q-27 -40 -72 -63t-95 -23q-75 0 -122 46t-47 121q0 108 86 147q35 16 160 31q87 11 87 50q0 31 -28.5 47.5t-62.5 16.5q-37 0 -62 -21t-25 -57h-136q0 94 63 147q58 49 155 49 q83 0 151 -37q85 -46 85 -122v-300q0 -26 6.5 -46t24.5 -29v-24zM335 214v50q-77 -19 -119 -32q-77 -25 -77 -76q0 -31 22 -48t54 -17q52 0 86 35t34 88z" />
<glyph unicode="&#xe5;" horiz-adv-x="566" d="M237 618q-62 0 -96.5 39.5t-34.5 93.5q0 53 33 90q37 41 98 41t98 -41q33 -37 33 -91q0 -53 -34.5 -92.5t-96.5 -39.5zM237 690q27 0 43 18t16 43t-15 42t-44 17q-28 0 -43.5 -17.5t-15.5 -42.5q0 -24 15.5 -42t43.5 -18zM504 0h-151q-14 33 -17 67q-27 -40 -72 -63 t-95 -23q-75 0 -122 46t-47 121q0 108 86 147q35 16 160 31q87 11 87 50q0 31 -28.5 47.5t-62.5 16.5q-37 0 -62 -21t-25 -57h-136q0 94 63 147q58 49 155 49q83 0 151 -37q85 -46 85 -122v-300q0 -26 6.5 -46t24.5 -29v-24zM335 214v50q-77 -19 -119 -32q-77 -25 -77 -76 q0 -31 22 -48t54 -17q52 0 86 35t34 88z" />
<glyph unicode="&#xe8;" horiz-adv-x="582" d="M327 631h-137v127q0 57 40 101t97 50v-51q-40 -12 -56.5 -33.5t-16.5 -62.5h73v-131zM510 231h-361q0 -61 34 -97q31 -33 77 -33q65 0 99 62h145q-27 -88 -96 -137q-64 -45 -147 -45q-107 0 -180 71q-81 79 -81 214q0 147 69 226t189 79q125 0 188.5 -83.5t63.5 -256.5z M361 326q0 57 -29 86t-77 29q-47 0 -76 -30t-29 -85h211z" />
<glyph unicode="&#xe9;" horiz-adv-x="582" d="M305 631h-95v276h95v-276zM510 231h-361q0 -61 34 -97q31 -33 77 -33q65 0 99 62h145q-27 -88 -96 -137q-64 -45 -147 -45q-107 0 -180 71q-81 79 -81 214q0 147 69 226t189 79q125 0 188.5 -83.5t63.5 -256.5zM361 326q0 57 -29 86t-77 29q-47 0 -76 -30t-29 -85h211z " />
<glyph unicode="&#xea;" horiz-adv-x="582" d="M414 631h-68l-88 109l-86 -109h-70l97 183h116zM510 231h-361q0 -61 34 -97q31 -33 77 -33q65 0 99 62h145q-27 -88 -96 -137q-64 -45 -147 -45q-107 0 -180 71q-81 79 -81 214q0 147 69 226t189 79q125 0 188.5 -83.5t63.5 -256.5zM361 326q0 57 -29 86t-77 29 q-47 0 -76 -30t-29 -85h211z" />
<glyph unicode="&#xeb;" horiz-adv-x="582" d="M401 631h-112v122h112v-122zM228 631h-113v122h113v-122zM510 231h-361q0 -61 34 -97q31 -33 77 -33q65 0 99 62h145q-27 -88 -96 -137q-64 -45 -147 -45q-107 0 -180 71q-81 79 -81 214q0 147 69 226t189 79q125 0 188.5 -83.5t63.5 -256.5zM361 326q0 57 -29 86t-77 29 q-47 0 -76 -30t-29 -85h211z" />
<glyph unicode="&#xec;" horiz-adv-x="235" d="M151 789h-137v127q0 57 40 101t97 50v-51q-40 -12 -56.5 -33.5t-16.5 -62.5h73v-131zM154 597h-144v132h144v-132zM154 0h-144v539h144v-539z" />
<glyph unicode="&#xed;" horiz-adv-x="235" d="M129 789h-95v276h95v-276zM154 597h-144v132h144v-132zM154 0h-144v539h144v-539z" />
<glyph unicode="&#xee;" horiz-adv-x="235" d="M238 789h-68l-88 109l-86 -109h-70l97 183h116zM154 597h-144v132h144v-132zM154 0h-144v539h144v-539z" />
<glyph unicode="&#xef;" horiz-adv-x="235" d="M225 789h-112v122h112v-122zM52 789h-113v122h113v-122zM154 597h-144v132h144v-132zM154 0h-144v539h144v-539z" />
<glyph unicode="&#xf1;" horiz-adv-x="563" d="M547 842q0 -98 -40 -156q-47 -68 -141 -68q-67 0 -139.5 62.5t-105.5 62.5q-48 0 -70 -40q-17 -32 -17 -85h-100q0 94 42 154q48 69 139 69q65 0 138 -63t111 -63q48 0 68 42q15 31 15 85h100zM482 0h-144v326q0 44 -19 73q-22 34 -65 34q-45 0 -77.5 -34.5t-32.5 -80.5 v-318h-144v539h140v-64q26 39 69 61t91 22q83 0 132.5 -53.5t49.5 -137.5v-367z" />
<glyph unicode="&#xf2;" horiz-adv-x="627" d="M343 618h-137v127q0 57 40 101t97 50v-51q-40 -12 -56.5 -33.5t-16.5 -62.5h73v-131zM274 -18q-122 0 -198 81t-76 205q0 125 75.5 207.5t198.5 82.5q124 0 200 -83t76 -207t-76 -205t-200 -81zM273 102q63 0 98 54q30 46 30 113q0 66 -30 113q-35 55 -98 55 q-61 0 -96 -55q-30 -47 -30 -113q0 -65 30 -112q35 -55 96 -55z" />
<glyph unicode="&#xf3;" horiz-adv-x="627" d="M321 618h-95v276h95v-276zM274 -18q-122 0 -198 81t-76 205q0 125 75.5 207.5t198.5 82.5q124 0 200 -83t76 -207t-76 -205t-200 -81zM273 102q63 0 98 54q30 46 30 113q0 66 -30 113q-35 55 -98 55q-61 0 -96 -55q-30 -47 -30 -113q0 -65 30 -112q35 -55 96 -55z" />
<glyph unicode="&#xf4;" horiz-adv-x="627" d="M430 618h-68l-88 109l-86 -109h-70l97 183h116zM274 -18q-122 0 -198 81t-76 205q0 125 75.5 207.5t198.5 82.5q124 0 200 -83t76 -207t-76 -205t-200 -81zM273 102q63 0 98 54q30 46 30 113q0 66 -30 113q-35 55 -98 55q-61 0 -96 -55q-30 -47 -30 -113q0 -65 30 -112 q35 -55 96 -55z" />
<glyph unicode="&#xf5;" horiz-adv-x="627" d="M581 842q0 -98 -40 -156q-47 -68 -141 -68q-67 0 -139.5 62.5t-105.5 62.5q-48 0 -70 -40q-17 -32 -17 -85h-100q0 94 42 154q48 69 139 69q65 0 138 -63t111 -63q48 0 68 42q15 31 15 85h100zM274 -18q-122 0 -198 81t-76 205q0 125 75.5 207.5t198.5 82.5 q124 0 200 -83t76 -207t-76 -205t-200 -81zM273 102q63 0 98 54q30 46 30 113q0 66 -30 113q-35 55 -98 55q-61 0 -96 -55q-30 -47 -30 -113q0 -65 30 -112q35 -55 96 -55z" />
<glyph unicode="&#xf6;" horiz-adv-x="627" d="M417 618h-112v122h112v-122zM244 618h-113v122h113v-122zM274 -18q-122 0 -198 81t-76 205q0 125 75.5 207.5t198.5 82.5q124 0 200 -83t76 -207t-76 -205t-200 -81zM273 102q63 0 98 54q30 46 30 113q0 66 -30 113q-35 55 -98 55q-61 0 -96 -55q-30 -47 -30 -113 q0 -65 30 -112q35 -55 96 -55z" />
<glyph unicode="&#xf9;" horiz-adv-x="563" d="M309 618h-137v127q0 57 40 101t97 50v-51q-40 -12 -56.5 -33.5t-16.5 -62.5h73v-131zM481 0h-140v64q-35 -37 -79.5 -57.5t-93.5 -20.5q-79 0 -123.5 52.5t-44.5 133.5v367h143v-326q0 -45 19 -74q23 -34 66 -34q46 0 78 34t32 80v320h143v-539z" />
<glyph unicode="&#xfa;" horiz-adv-x="563" d="M288 618h-95v276h95v-276zM481 0h-140v64q-35 -37 -79.5 -57.5t-93.5 -20.5q-79 0 -123.5 52.5t-44.5 133.5v367h143v-326q0 -45 19 -74q23 -34 66 -34q46 0 78 34t32 80v320h143v-539z" />
<glyph unicode="&#xfb;" horiz-adv-x="563" d="M396 618h-68l-88 109l-86 -109h-70l97 183h116zM481 0h-140v64q-35 -37 -79.5 -57.5t-93.5 -20.5q-79 0 -123.5 52.5t-44.5 133.5v367h143v-326q0 -45 19 -74q23 -34 66 -34q46 0 78 34t32 80v320h143v-539z" />
<glyph unicode="&#xfc;" horiz-adv-x="563" d="M383 618h-112v122h112v-122zM210 618h-113v122h113v-122zM481 0h-140v64q-35 -37 -79.5 -57.5t-93.5 -20.5q-79 0 -123.5 52.5t-44.5 133.5v367h143v-326q0 -45 19 -74q23 -34 66 -34q46 0 78 34t32 80v320h143v-539z" />
<glyph unicode="&#xfd;" d="M313 618h-95v276h95v-276zM532 539l-212 -616q-22 -66 -60 -94t-106 -28q-27 0 -41 1q-18 3 -26 3v116q10 -1 19.5 -2.5t22.5 -1.5q34 0 49.5 17.5t15.5 53.5q0 9 -45 137l-88 246l-61 168h157l114 -390l110 390h151z" />
<glyph unicode="&#xff;" horiz-adv-x="90" d="M34 2q0 -7 -7 -7q-5 0 -7 5q3 -3 8 -3q4 2 4 5l-5 -2q-7 0 -7 7t7 7l5 -3l2 3v-12zM27 1q5 0 5 5.5t-5 5.5t-5 -5.5t5 -5.5zM19 0l-2 16l-7 -16l-8 16v-16l-2 18l10 -15l6 15z" />
<glyph unicode="&#x152;" horiz-adv-x="1381" d="M1336 0h-548v729h529v-127h-381v-155h349v-126h-349v-187h400v-134zM358 -21q-162 0 -262 113q-96 108 -96 272t95 272q100 113 263 113q162 0 262 -113q96 -108 96 -272t-95 -272q-100 -113 -263 -113zM358 111q97 0 154 81q50 71 50 173q0 101 -50 172q-57 80 -154 80 q-98 0 -154 -79q-51 -72 -51 -173q0 -102 50 -173q57 -81 155 -81z" />
<glyph unicode="&#x153;" horiz-adv-x="1209" d="M1137 231h-361q0 -61 34 -97q31 -33 77 -33q65 0 99 62h145q-27 -88 -96 -137q-64 -45 -147 -45q-107 0 -180 71q-81 79 -81 214q0 147 69 226t189 79q125 0 188.5 -83.5t63.5 -256.5zM988 326q0 57 -29 86t-77 29q-47 0 -76 -30t-29 -85h211zM274 -18q-122 0 -198 81 t-76 205q0 125 75.5 207.5t198.5 82.5q124 0 200 -83t76 -207t-76 -205t-200 -81zM273 102q63 0 98 54q30 46 30 113q0 66 -30 113q-35 55 -98 55q-61 0 -96 -55q-30 -47 -30 -113q0 -65 30 -112q35 -55 96 -55z" />
<glyph unicode="&#x178;" horiz-adv-x="670" d="M444 809h-112v122h112v-122zM271 809h-113v122h113v-122zM602 729l-219 -458v-271h-151v271l-232 458h150l158 -314l143 314h151z" />
<glyph unicode="&#x2c6;" d="M454 602h-68l-88 109l-86 -109h-70l97 183h116z" />
<glyph unicode="&#x2dc;" horiz-adv-x="270" d="M307 284q0 -98 -40 -156q-47 -68 -141 -68q-67 0 -139.5 62.5t-105.5 62.5q-48 0 -70 -40q-17 -32 -17 -85h-100q0 94 42 154q48 69 139 69q65 0 138 -63t111 -63q48 0 68 42q15 31 15 85h100z" />
<glyph unicode="&#x2000;" horiz-adv-x="543" />
<glyph unicode="&#x2001;" horiz-adv-x="1087" />
<glyph unicode="&#x2002;" horiz-adv-x="543" />
<glyph unicode="&#x2003;" horiz-adv-x="1087" />
<glyph unicode="&#x2004;" horiz-adv-x="362" />
<glyph unicode="&#x2005;" horiz-adv-x="271" />
<glyph unicode="&#x2006;" horiz-adv-x="181" />
<glyph unicode="&#x2007;" horiz-adv-x="181" />
<glyph unicode="&#x2008;" horiz-adv-x="135" />
<glyph unicode="&#x2009;" horiz-adv-x="217" />
<glyph unicode="&#x200a;" horiz-adv-x="60" />
<glyph unicode="&#x2010;" horiz-adv-x="378" d="M298 201h-278v136h278v-136z" />
<glyph unicode="&#x2011;" horiz-adv-x="378" d="M298 201h-278v136h278v-136z" />
<glyph unicode="&#x2013;" horiz-adv-x="577" d="M507 214h-507v110h507v-110z" />
<glyph unicode="&#x2014;" horiz-adv-x="748" d="M678 214h-678v110h678v-110z" />
<glyph unicode="&#x2018;" horiz-adv-x="208" d="M137 454h-137v127q0 56 40 101t97 50v-50q-73 -19 -73 -97h73v-131z" />
<glyph unicode="&#x2019;" horiz-adv-x="208" d="M138 601q0 -60 -39 -102t-99 -48v51q73 19 73 96h-73v131h138v-128z" />
<glyph unicode="&#x201c;" horiz-adv-x="408" d="M337 454h-137v127q0 56 40 101t97 50v-50q-73 -19 -73 -97h73v-131zM137 454h-137v127q0 56 40 101t97 50v-50q-73 -19 -73 -97h73v-131z" />
<glyph unicode="&#x201d;" horiz-adv-x="408" d="M338 601q0 -60 -39 -102t-99 -48v51q73 19 73 96h-73v131h138v-128zM138 601q0 -60 -39 -102t-99 -48v51q73 19 73 96h-73v131h138v-128z" />
<glyph unicode="&#x201e;" horiz-adv-x="423" d="M348 4q0 -68 -40 -113t-108 -63v57q41 16 60.5 43t19.5 71h-80v149h148v-144zM148 4q0 -68 -40 -113t-108 -63v57q41 16 60.5 43t19.5 71h-80v149h148v-144z" />
<glyph unicode="&#x2022;" horiz-adv-x="558" d="M498 366q0 -108 -74 -184t-185 -76q-107 0 -183 75t-76 185q0 106 74.5 182.5t184.5 76.5q106 0 182.5 -75.5t76.5 -183.5z" />
<glyph unicode="&#x2026;" horiz-adv-x="693" d="M589 0h-148v149h148v-149zM368 0h-148v149h148v-149zM148 0h-148v149h148v-149z" />
<glyph unicode="&#x202f;" horiz-adv-x="217" />
<glyph unicode="&#x2039;" d="M570 13l-544 241v97l544 241v-109l-404 -180l404 -181v-109z" />
<glyph unicode="&#x203a;" d="M570 254l-544 -241v109l402 181l-402 180v109l544 -241v-97z" />
<glyph unicode="&#x205f;" horiz-adv-x="271" />
<glyph unicode="&#x2122;" horiz-adv-x="765" d="M291 663h-108v-299h-76v299h-107v66h291v-66zM685 364h-71v295l-74 -295h-77l-75 295v-295h-70v365h111l72 -278l72 278h112v-365z" />
</font>
</defs>
</svg>
