<?xml version="1.0" standalone="no"?>
<!DOCTYPE svg PUBLIC "-//W3C//DTD SVG 1.1//EN" "http://www.w3.org/Graphics/SVG/1.1/DTD/svg11.dtd" >
<svg xmlns="http://www.w3.org/2000/svg">
<metadata>
This is a custom SVG webfont generated by Font Squirrel.
Foundry     : Magenta ltd
Foundry URL : http://www.magenta.gr/
</metadata>
<defs>
<font id="webfont9nrricRV" horiz-adv-x="570" >
<font-face units-per-em="1000" ascent="800" descent="-200" />
<missing-glyph horiz-adv-x="270" />
<glyph unicode=" "  horiz-adv-x="270" />
<glyph unicode="&#x09;" horiz-adv-x="270" />
<glyph unicode="&#xa0;" horiz-adv-x="270" />
<glyph unicode="!" horiz-adv-x="170" d="M205 493q-13 -63 -42 -157l-49 -160h-52l18 159q11 93 25 158l51 236h100zM100 0h-100l23 109h100z" />
<glyph unicode="&#x22;" horiz-adv-x="285" d="M162 436h-69l59 275h69zM308 436h-69l59 275h69z" />
<glyph unicode="#" horiz-adv-x="764" d="M800 497l-41 -72h-150l-74 -130h159l-41 -72h-160l-127 -225h-82l128 225h-127l-130 -225h-81l127 225h-153l41 72h153l74 130h-163l40 72h164l129 227h82l-128 -227h128l128 227h82l-128 -227h150zM528 425h-131l-73 -130h130z" />
<glyph unicode="$" horiz-adv-x="571" d="M588 517h-88q0 50 -21.5 78t-70.5 33l-49 -231q94 -18 142.5 -58.5t48.5 -105.5q0 -27 -9 -59q-26 -91 -92.5 -141.5t-178.5 -50.5l-19 -91h-53l19 91q-85 0 -131.5 44.5t-46.5 122.5q0 20 1 31t6 34h89q-3 -10 -4 -22t-1 -24q0 -48 25.5 -77t77.5 -33l56 260 q-91 17 -133.5 52t-42.5 94q0 19 1 28.5t7 29.5q21 82 90.5 133.5t160.5 51.5l15 68h53l-15 -68q71 0 116 -37q50 -41 50 -115q0 -18 -3 -38zM308 407l47 221q-53 0 -91 -29t-50 -77q-4 -16 -4 -32q0 -66 98 -83zM286 55q126 14 156 116q5 16 5 37q0 79 -108 97z" />
<glyph unicode="%" horiz-adv-x="854" d="M609 0q-70 0 -108 40q-34 36 -34 95q0 81 58 146q63 71 159 71q71 0 108 -40q34 -36 34 -96q0 -80 -58 -145q-64 -71 -159 -71zM624 74q53 0 87.5 39.5t34.5 86.5q0 34 -18 54q-21 23 -61 23q-53 0 -87.5 -39.5t-34.5 -86.5q0 -34 19.5 -55.5t59.5 -21.5zM792 710 l-591 -729h-61l591 729h61zM246 337q-70 0 -108 41q-34 37 -34 97q0 81 57 145q62 70 158 70q70 0 108 -40q35 -37 35 -96q0 -82 -57 -146q-63 -71 -159 -71zM306 616q-56 0 -91.5 -40t-35.5 -87q0 -34 20.5 -55.5t61.5 -21.5q56 0 93 41q33 37 33 84q0 35 -20 57t-61 22z " />
<glyph unicode="&#x26;" horiz-adv-x="714" d="M644 0h-122l-53 89q-63 -60 -128.5 -89.5t-125.5 -29.5q-113 0 -156 96q-22 50 -22 96q0 70 52 130q56 66 180 127q-23 34 -34 61q-14 35 -14 71v22q3 11 4 15q16 76 81 121q58 40 131 40q60 0 101 -31.5t41 -89.5v-16q-3 -13 -4 -19q-13 -61 -66 -113q-42 -42 -112 -79 l101 -166q19 26 38 73q9 22 18 47h85q-23 -102 -97 -190zM489 589q3 14 3 24q0 31 -20 47t-50 16q-38 0 -70.5 -23t-41.5 -64q-3 -14 -3 -25q0 -31 16 -61q10 -18 36 -51q68 40 97 73q25 29 33 64zM433 151l-129 209q-85 -41 -125.5 -86.5t-40.5 -93.5q0 -33 18 -66 q30 -57 96 -57q84 0 181 94z" />
<glyph unicode="'" horiz-adv-x="170" d="M231 613q-10 -47 -44.5 -81.5t-83.5 -48.5l10 46q32 5 51 38q14 23 22 61h-52l22 101h100z" />
<glyph unicode="(" horiz-adv-x="299" d="M184 -209h-63q-38 74 -59.5 157.5t-21.5 168.5q0 73 16 146q27 127 98 250q64 111 169 224h63q-95 -120 -151 -229q-62 -120 -90 -249q-18 -89 -18 -169q0 -75 14.5 -149t42.5 -150z" />
<glyph unicode=")" horiz-adv-x="299" d="M285 263q-27 -125 -98 -249q-67 -116 -169 -223h-63q94 118 150 224q63 119 89 244q20 90 20 177q0 75 -14 146t-43 155h63q40 -78 60.5 -157t20.5 -168q0 -75 -16 -149z" />
<glyph unicode="*" d="M604 553l-151 -39l71 -122l-76 -48l-63 126l-113 -124l-59 46l124 122l-135 38l44 79l126 -46l31 144h75l-31 -144l146 45z" />
<glyph unicode="+" d="M610 268h-233l-57 -268h-70l57 268h-233l15 69h232l57 268h70l-57 -268h234z" />
<glyph unicode="," horiz-adv-x="172" d="M100 -9q-11 -52 -45 -87t-87 -53l11 49q32 10 50 40q12 20 21 60h-50l23 109h102z" />
<glyph unicode="-" horiz-adv-x="344" d="M302 228h-246l17 80h246z" />
<glyph unicode="." horiz-adv-x="172" d="M102 0h-102l23 109h102z" />
<glyph unicode="/" d="M598 750l-426 -843h-60l423 843h63z" />
<glyph unicode="0" d="M280 -21q-84 0 -128 69q-40 63 -40 169q0 174 90 327q99 168 234 168q84 0 128 -70q40 -63 40 -169q0 -175 -90 -327q-99 -167 -234 -167zM298 64q89 0 157 136q63 125 63 261q0 75 -23 118q-26 48 -77 48q-89 0 -157 -136q-63 -125 -63 -261q0 -75 24.5 -120.5 t75.5 -45.5z" />
<glyph unicode="1" d="M414 0h-95l107 502h-163l15 71q85 0 130 27q50 30 87 110h71z" />
<glyph unicode="2" d="M527 0h-484q29 135 149 226q3 2 213 125q115 67 132 147q3 15 3 29q0 46 -31 71.5t-79 25.5q-59 0 -108 -40q-56 -46 -74 -130h-92q27 125 115 195q77 61 175 61q81 0 137 -44.5t56 -121.5q0 -8 -0.5 -15t-4.5 -29q-24 -110 -122 -176l-191 -96q-114 -59 -157 -140h382z " />
<glyph unicode="3" d="M575 205q-22 -103 -109 -165q-81 -58 -182 -58q-93 0 -146 41q-59 46 -59 134q0 31 7 65h94q-5 -25 -5 -43q0 -55 34 -82.5t91 -27.5q64 0 111 32q52 36 66 101q4 16 4 33q0 57 -58 78q-39 14 -120 14l17 80q85 0 121 14q61 24 77 97q3 14 3 25q0 41 -28.5 65.5 t-72.5 24.5q-62 0 -107.5 -39.5t-64.5 -117.5h-90q25 117 99 177.5t175 60.5q81 0 134.5 -41t53.5 -113v-18q-3 -14 -4 -21q-10 -48 -40.5 -84t-78.5 -59q42 -15 62.5 -48t20.5 -79q0 -19 -5 -46z" />
<glyph unicode="4" d="M572 175h-101l-37 -175h-91l37 175h-308l20 90l397 425h92l-93 -435h101zM397 255l68 317l-293 -317h225z" />
<glyph unicode="5" d="M579 226q-25 -116 -117 -183q-83 -60 -184 -60q-85 0 -141 43q-61 47 -61 127q0 20 2 31h93q0 -58 34 -90q31 -29 81 -29q64 0 119 42q61 46 76 119q2 8 3 18.5t1 18.5q0 55 -35 86t-91 31q-38 0 -76 -16t-73 -48h-83l135 374h378l-18 -85h-310l-69 -188q37 24 74.5 35 t74.5 11q82 0 137.5 -51.5t55.5 -134.5q0 -24 -6 -51z" />
<glyph unicode="6" d="M580 225q-23 -108 -114 -180q-85 -67 -182 -67q-83 0 -134 53q-57 59 -57 170q0 26 3 53.5t10 62.5q42 196 152 302q95 91 206 91q74 0 125 -45t51 -118q0 -16 -3 -33h-94q1 6 1 17q0 45 -29 72t-72 27q-67 0 -126 -59q-70 -70 -99 -199q42 38 90 57.5t95 19.5 q78 0 130 -47.5t52 -127.5q0 -11 -1 -24t-4 -25zM480 215q4 19 4.5 24t0.5 19q0 54 -32.5 83.5t-81.5 29.5q-57 0 -106 -39q-54 -43 -70 -116q-4 -19 -4.5 -24t-0.5 -19q0 -54 34 -85q31 -28 80 -28q57 0 106 39q54 43 70 116z" />
<glyph unicode="7" d="M656 605q-151 -141 -247.5 -282t-166.5 -323h-103q70 180 167 318t250 280h-385l19 92h484z" />
<glyph unicode="8" d="M493 380q42 -21 63.5 -57.5t21.5 -79.5q0 -97 -82 -176q-89 -86 -215 -86q-98 0 -153 53q-50 48 -50 123q0 68 42.5 130t119.5 93q-35 21 -51 49.5t-16 62.5q0 80 76 147q81 71 188 71q86 0 137 -46q48 -43 48 -107q0 -51 -31 -96q-34 -50 -98 -81zM372 407q65 0 108 43 q39 39 39 90q0 38 -25.5 63t-76.5 25q-65 0 -108 -43q-39 -39 -39 -89q0 -38 25.5 -63.5t76.5 -25.5zM299 65q78 0 130 54q48 50 48 112q0 46 -28 73q-32 31 -92 31q-78 0 -130 -53q-47 -48 -47 -110q0 -47 28 -75q32 -32 91 -32z" />
<glyph unicode="9" d="M613 378q-44 -203 -153 -310q-93 -91 -203 -91q-77 0 -129.5 45.5t-52.5 116.5q0 9 1.5 19.5t2.5 16.5h95q-2 -8 -2 -22q0 -40 30 -67t75 -27q65 0 121 57q68 69 100 201q-86 -77 -185 -77q-90 0 -138 51q-43 46 -43 122q0 110 79 199q87 98 217 98q104 0 154 -64 q44 -56 44 -156q0 -50 -13 -112zM347 323q79 0 131 62q48 57 48 127q0 51 -27 82q-30 35 -87 35q-78 0 -131 -63q-49 -58 -49 -129q0 -50 28.5 -82t86.5 -32z" />
<glyph unicode=":" horiz-adv-x="172" d="M192 421h-102l23 110h102zM102 0h-102l23 109h102z" />
<glyph unicode=";" horiz-adv-x="172" d="M192 421h-102l23 110h102zM100 -9q-11 -52 -45 -87t-87 -53l11 49q33 11 50 40q11 19 20 60h-49l23 109h102z" />
<glyph unicode="&#x3c;" d="M563 30l-492 241l14 64l595 240l-17 -77l-483 -195l400 -195z" />
<glyph unicode="=" d="M641 367h-556l15 69h556zM599 169h-556l15 70h556z" />
<glyph unicode="&#x3e;" d="M615 271l-596 -241l17 78l483 195l-400 195l17 77l493 -240z" />
<glyph unicode="?" horiz-adv-x="507" d="M557 560q-16 -73 -76 -128l-108 -90q-60 -60 -74 -146h-87q15 90 72 155q4 5 105 95q58 52 69 103q3 17 3 30q0 42 -27.5 67.5t-68.5 25.5q-52 0 -96 -38q-50 -44 -71 -125h-89q25 120 107 185q73 58 162 58q76 0 129.5 -42.5t53.5 -111.5q0 -7 -0.5 -15t-3.5 -23zM266 0 h-100l23 109h100z" />
<glyph unicode="@" horiz-adv-x="977" d="M784 -33q-82 -52 -177.5 -82.5t-181.5 -30.5q-189 0 -289 94q-90 85 -90 224q0 201 166 370q181 184 438 184q175 0 265 -85q79 -74 79 -195q0 -144 -102 -263q-108 -125 -255 -125q-40 0 -59.5 13t-19.5 44q0 15 4 30q-36 -41 -78 -63.5t-91 -22.5q-63 0 -93.5 32.5 t-30.5 87.5q0 105 87 207q94 111 210 111q87 0 108 -73l40 57h64l-78 -164q-59 -126 -65 -155q-1 -4 -1 -11q0 -15 11.5 -23.5t29.5 -8.5q94 0 169.5 100.5t75.5 214.5q0 101 -63 162q-73 70 -220 70q-221 0 -377 -161q-143 -148 -143 -323q0 -119 74 -190q83 -80 242 -80 q79 0 170 24.5t162 68.5zM641 352q0 42 -21.5 66.5t-61.5 24.5q-79 0 -145 -88q-62 -82 -62 -163q0 -37 17 -58.5t54 -21.5q82 0 141 85q17 25 78 155z" />
<glyph unicode="A" horiz-adv-x="726" d="M653 0h-108l-30 218h-287l-125 -218h-103l427 729h110zM504 303l-45 321l-183 -321h228z" />
<glyph unicode="B" horiz-adv-x="631" d="M502 393q53 -7 81.5 -41.5t28.5 -86.5q0 -22 -4 -41q-22 -101 -110 -164q-84 -60 -187 -60h-311l156 729h296q83 0 136 -32q61 -37 61 -107v-22q-3 -11 -4 -15q-11 -54 -50 -97.5t-93 -62.5zM421 647h-183l-48 -224h173q60 0 108 26q57 31 70 87q2 8 2 22q0 42 -37 65.5 t-85 23.5zM321 89q61 0 113 33q57 36 70 96q3 14 3 25q0 50 -46 77q-39 23 -98 23h-190l-54 -254h202z" />
<glyph unicode="C" horiz-adv-x="680" d="M696 273q-26 -127 -134.5 -209.5t-237.5 -82.5t-196 79q-62 73 -62 196q0 54 12 111q36 164 143 269q117 114 277 114q102 0 172 -53q75 -57 75 -151q0 -18 -3 -36h-96q0 70 -45.5 111.5t-117.5 41.5q-116 0 -203 -93q-78 -83 -104 -203q-9 -41 -9 -81q0 -94 44 -151 q49 -64 143 -64q86 0 153 57t93 145h96z" />
<glyph unicode="D" horiz-adv-x="673" d="M436 729q122 0 189 -74q62 -69 62 -185q0 -20 -3 -45.5t-8 -49.5q-33 -152 -138 -259q-115 -116 -263 -116h-275l156 729h280zM290 89q106 0 185 89q69 78 93 189q9 39 9 79q0 86 -39 139q-44 60 -129 60h-171l-119 -556h171z" />
<glyph unicode="E" horiz-adv-x="568" d="M530 0h-530l156 729h522l-19 -89h-422l-47 -219h388l-18 -85h-388l-53 -246h430z" />
<glyph unicode="F" horiz-adv-x="516" d="M629 639h-391l-47 -219h341l-19 -90h-341l-71 -330h-101l156 729h492z" />
<glyph unicode="G" horiz-adv-x="728" d="M663 0h-64l-1 98q-55 -56 -123.5 -87t-139.5 -31q-127 0 -200 84q-68 79 -68 203q0 49 10 93q35 166 149 275q121 116 284 116q106 0 177 -55q76 -59 76 -156v-15q-2 -10 -2 -15h-96q0 70 -48.5 113.5t-123.5 43.5q-118 0 -207 -94q-80 -84 -106 -207q-9 -41 -9 -80 q0 -94 46 -153q51 -65 146 -65q101 0 178 73q72 68 99 172h-229l17 82h319z" />
<glyph unicode="H" horiz-adv-x="659" d="M578 0h-98l73 342h-379l-73 -342h-101l156 729h101l-64 -298h379l64 298h98z" />
<glyph unicode="I" horiz-adv-x="211" d="M130 0h-100l156 729h100z" />
<glyph unicode="J" horiz-adv-x="503" d="M466 201q-46 -220 -263 -220q-89 0 -129 42q-36 37 -36 112q0 45 12 101h96q-3 -13 -6 -34.5t-3 -35.5q0 -45 17 -68q21 -29 69 -29q74 0 110 54q23 35 42 119l104 487h100z" />
<glyph unicode="K" horiz-adv-x="652" d="M590 0h-122l-178 367l-135 -110l-55 -257h-100l156 729h100l-75 -350l426 350h132l-362 -297z" />
<glyph unicode="L" horiz-adv-x="501" d="M465 0h-465l156 729h101l-137 -638h364z" />
<glyph unicode="M" horiz-adv-x="768" d="M687 0h-97l134 625l-337 -625h-95l-67 623l-133 -623h-92l156 729h144l64 -615l338 615h141z" />
<glyph unicode="N" horiz-adv-x="658" d="M577 0h-108l-248 592l-127 -592h-94l156 729h109l247 -591l127 591h94z" />
<glyph unicode="O" horiz-adv-x="761" d="M510 750q131 0 203 -81q67 -76 67 -201q0 -46 -11 -99q-35 -162 -147 -271q-121 -117 -279 -117q-133 0 -207 81q-69 75 -69 201q0 47 11 100q34 163 149 271q123 116 283 116zM361 70q114 0 201 92q78 82 103 201q9 41 9 80q0 93 -44 150q-50 64 -144 64 q-114 0 -202 -92q-79 -83 -104 -202q-9 -42 -9 -82q0 -93 45 -149q50 -62 145 -62z" />
<glyph unicode="P" horiz-adv-x="580" d="M462 729q81 0 129 -44t48 -118q0 -28 -5 -49q-21 -95 -97 -153t-173 -58h-197l-66 -307h-101l156 729h306zM410 640h-172l-53 -245h167q62 0 114 30q59 35 72 94q3 14 3 25q0 47 -38.5 71.5t-92.5 24.5z" />
<glyph unicode="Q" horiz-adv-x="772" d="M688 4l-61 -61l-85 83q-46 -24 -95.5 -34.5t-102.5 -10.5q-133 0 -207 80q-70 76 -70 203q0 46 11 99q34 162 149 271q122 116 282 116q135 0 208 -80q69 -75 69 -202q0 -30 -2 -51t-9 -51q-17 -81 -57 -155.5t-102 -134.5zM550 138q46 40 80 104q29 56 43 118q9 44 9 87 q0 96 -45 153q-50 64 -147 64q-117 0 -205 -94q-80 -85 -105 -206q-9 -42 -9 -83q0 -94 46 -152q51 -64 148 -64q57 0 110 24l-67 66l61 62z" />
<glyph unicode="R" horiz-adv-x="653" d="M563 0h-114q-9 23 -9 51q0 30 12.5 92.5t12.5 84.5q0 41 -20 60q-25 24 -84 24h-194l-67 -312h-100l156 729h285q91 0 150 -38q66 -43 66 -122q0 -17 -5 -42q-11 -52 -48 -97t-89 -68q33 -11 46 -35.5t13 -61.5q0 -27 -8 -71q-18 -99 -18 -117q0 -39 19 -58zM354 397 q66 0 122 31q66 37 79 99q2 6 2 13v10q0 49 -50 74q-41 21 -100 21h-170l-53 -248h170z" />
<glyph unicode="S" horiz-adv-x="641" d="M612 210q-23 -107 -126 -171q-93 -58 -204 -58q-106 0 -170 52q-67 55 -67 149q0 19 1 30t6 31h94q-3 -11 -4 -23t-1 -25q0 -63 39.5 -98.5t109.5 -35.5q68 0 131 32q75 38 89 102q2 9 2 24q0 59 -98 91l-182 54q-99 42 -99 125q0 12 0.5 18.5t4.5 25.5q22 102 113 162 q84 55 189 55q96 0 158 -48.5t62 -133.5q0 -25 -6 -52h-94q2 8 3 19t1 20q0 55 -36 86t-99 31t-117 -30q-64 -36 -77 -95q-1 -6 -1.5 -13t-0.5 -10q0 -58 99 -87l185 -51q100 -42 100 -129q0 -10 -1 -22.5t-4 -24.5z" />
<glyph unicode="T" horiz-adv-x="601" d="M697 643h-230l-137 -643h-100l137 642h-230l19 87h560z" />
<glyph unicode="U" horiz-adv-x="651" d="M633 283q-27 -130 -128 -215.5t-231 -85.5q-107 0 -164.5 61.5t-57.5 161.5q0 27 1 39.5t7 38.5l96 446h99l-96 -447q-6 -27 -6 -53q0 -68 37.5 -110t109.5 -42q85 0 149.5 59.5t82.5 145.5l96 447h101z" />
<glyph unicode="V" horiz-adv-x="677" d="M777 729l-413 -729h-104l-104 729h103l79 -610l335 610h104z" />
<glyph unicode="W" horiz-adv-x="973" d="M1066 729l-349 -729h-98l-38 602l-289 -602h-101l-35 729h98l24 -583l279 583h104l35 -579l276 579h94z" />
<glyph unicode="X" horiz-adv-x="677" d="M615 0h-123l-124 295l-248 -295h-120l330 374l-161 355h121l116 -270l236 270h116l-315 -354z" />
<glyph unicode="Y" horiz-adv-x="638" d="M746 729l-335 -429l-64 -300h-101l64 300l-154 429h101l121 -345l267 345h101z" />
<glyph unicode="Z" horiz-adv-x="611" d="M561 0h-561l18 82l567 563h-418l18 84h532l-19 -90l-556 -550h438z" />
<glyph unicode="[" horiz-adv-x="267" d="M154 -202h-197l199 931h197l-15 -67h-108l-170 -796h108z" />
<glyph unicode="\" horiz-adv-x="376" d="M286 -93h-63l-63 843h60z" />
<glyph unicode="]" horiz-adv-x="268" d="M155 -202h-198l14 68h109l170 796h-109l15 67h198z" />
<glyph unicode="^" d="M550 556h-60l-62 114l-109 -114h-61l133 173h98z" />
<glyph unicode="_" horiz-adv-x="578" d="M457 -240h-508l15 72h508z" />
<glyph unicode="`" horiz-adv-x="170" d="M207 503h-100l25 117q10 48 43.5 81.5t84.5 48.5l-10 -46q-32 -6 -50 -38q-13 -23 -21 -62h50z" />
<glyph unicode="a" horiz-adv-x="572" d="M503 0q-34 -12 -63 -12q-36 0 -50.5 21t-14.5 60q-41 -41 -97.5 -64t-111.5 -23q-65 0 -103 30.5t-38 87.5q0 17 5 40q21 100 116 141q50 22 158 33t121 34q4 8 7 15t5 16.5t2 14.5q0 36 -31 56.5t-73 20.5q-49 0 -89.5 -27t-56.5 -74h-86q21 87 93.5 136.5t161.5 49.5 q73 0 120 -34q52 -38 52 -103v-21q-3 -11 -4 -15l-57 -265q-4 -20 -4 -28q0 -12 5.5 -18.5t21.5 -6.5l26 3zM393 189l17 79q-16 -6 -118 -22q-152 -24 -169 -101q-2 -14 -2 -20q0 -32 22.5 -48.5t59.5 -16.5q59 0 115 34q63 39 75 95z" />
<glyph unicode="b" horiz-adv-x="564" d="M550 268q-24 -114 -105 -196q-88 -90 -199 -90q-50 0 -87 22t-58 63l-14 -67h-87l156 729h87l-58 -272q35 42 81 64t96 22q91 0 145 -62q50 -58 50 -148q0 -34 -7 -65zM454 257q3 15 5 30t2 30q0 64 -29 103q-33 44 -96 44q-75 0 -133 -63q-52 -56 -68 -135 q-3 -15 -5 -30t-2 -30q0 -64 28 -102q32 -44 95 -44q76 0 134 62q51 55 69 135z" />
<glyph unicode="c" horiz-adv-x="558" d="M546 190q-34 -94 -117 -151.5t-178 -57.5q-99 0 -150.5 57t-51.5 151q0 37 9 78q26 121 108 198q88 83 206 83q90 0 145.5 -52.5t55.5 -140.5h-96q0 50 -34.5 81.5t-85.5 31.5q-79 0 -135 -62q-50 -55 -68 -138q-3 -15 -5 -30t-2 -30q0 -62 29 -101q33 -44 96 -44 q56 0 103.5 35t73.5 92h97z" />
<glyph unicode="d" horiz-adv-x="573" d="M492 0h-86l14 67q-43 -40 -91 -62.5t-97 -22.5q-87 0 -137 66q-46 60 -46 150q0 34 7 65q25 115 107 197q89 89 201 89q50 0 86.5 -21t55.5 -62l56 263h86zM476 269q6 29 6 58q0 62 -28 100q-32 43 -94 43q-79 0 -138 -66q-51 -57 -69 -141q-6 -29 -6 -57q0 -62 29 -101 q33 -44 95 -44q79 0 137 67q51 59 68 141z" />
<glyph unicode="e" horiz-adv-x="585" d="M564 235h-413q-1 -8 -1.5 -15.5t-0.5 -17.5q0 -61 29 -98q33 -42 94 -42q52 0 99.5 32t70.5 83h98q-38 -89 -116.5 -142.5t-169.5 -53.5q-99 0 -152.5 58t-53.5 152q0 31 8 71q25 119 111 201q92 88 209 88q100 0 152 -66q47 -59 47 -157q0 -20 -3 -45t-8 -48zM481 309 q1 7 1 20q0 60 -33 99.5t-93 39.5q-65 0 -118 -48q-47 -43 -71 -111h314z" />
<glyph unicode="f" horiz-adv-x="340" d="M370 459h-95l-98 -459h-90l98 459h-87l15 72h87q24 108 43 142q38 67 124 67q18 0 29 -1t33 -4l-17 -81q-21 7 -38 7q-36 0 -56 -34q-13 -22 -21 -65l-7 -31h95z" />
<glyph unicode="g" horiz-adv-x="603" d="M499 25q-24 -112 -109.5 -178.5t-197.5 -66.5q-73 0 -125 32q-59 37 -59 101q0 17 2 26h89q0 -40 37 -64t81 -24q79 0 136 70q46 56 68 143q-40 -38 -87.5 -59.5t-95.5 -21.5q-91 0 -142 63q-47 59 -47 150q0 33 8 71q23 108 104 190q88 89 194 89q49 0 86.5 -21 t63.5 -61l14 67h88zM476 265q6 29 6 58q0 65 -28 103q-32 44 -96 44q-77 0 -135 -65q-51 -58 -69 -139q-6 -29 -6 -58q0 -64 29 -103q33 -44 96 -44q77 0 135 66q50 57 68 138z" />
<glyph unicode="h" horiz-adv-x="521" d="M516 340l-73 -340h-90l70 327q6 24 6 49q0 43 -18 67q-21 28 -66 28q-62 0 -119 -47t-71 -110l-67 -314h-88l156 729h88l-59 -273q30 44 84.5 67.5t108.5 23.5q72 0 110 -41q35 -38 35 -105q0 -12 -2 -27.5t-5 -33.5z" />
<glyph unicode="i" horiz-adv-x="198" d="M232 628h-88l22 101h88zM98 0h-88l113 531h88z" />
<glyph unicode="j" horiz-adv-x="251" d="M254 627h-90l22 102h90zM108 -58q-17 -75 -56 -108.5t-114 -33.5l-37 1l18 82h26q38 0 52 15t23 56l123 577h90z" />
<glyph unicode="k" horiz-adv-x="502" d="M555 532l-239 -197l122 -335h-100l-98 275l-114 -94l-39 -181h-87l156 729h87l-94 -439l294 242h112z" />
<glyph unicode="l" horiz-adv-x="201" d="M120 0h-90l156 729h90z" />
<glyph unicode="m" horiz-adv-x="812" d="M734 0h-88l70 327q3 14 4 21t1 22q0 46 -19 73q-22 32 -67 32q-58 0 -103 -53q-39 -46 -52 -108l-67 -314h-91l70 327q5 25 5 45q0 45 -18 70q-21 30 -66 30q-58 0 -104 -51q-40 -45 -54 -107l-67 -314h-88l114 532h84l-15 -71q31 40 74.5 63.5t87.5 23.5q47 0 83 -23.5 t50 -63.5q32 43 81.5 65.5t100.5 22.5q71 0 114 -37.5t43 -102.5q0 -21 -4 -40z" />
<glyph unicode="n" horiz-adv-x="521" d="M514 334l-71 -334h-90l70 327q5 27 5 46q0 44 -20 70q-23 29 -68 29q-65 0 -121 -51.5t-70 -117.5l-65 -303h-84l114 532h84l-17 -78q33 45 87.5 70.5t108.5 25.5q73 0 110 -43q34 -39 34 -108q0 -20 -1 -31t-6 -34z" />
<glyph unicode="o" horiz-adv-x="591" d="M253 -18q-99 0 -151.5 58t-52.5 152q0 33 8 73q25 119 109 198q90 85 208 85q98 0 153 -61q51 -57 51 -151q0 -33 -8 -71q-26 -120 -110 -199q-89 -84 -207 -84zM270 61q78 0 137 65q52 58 70 140q6 29 6 58q0 64 -29 102q-33 43 -97 43q-77 0 -135 -65q-50 -56 -68 -138 q-3 -15 -5 -30t-2 -29q0 -64 28 -102q32 -44 95 -44z" />
<glyph unicode="p" horiz-adv-x="566" d="M549 262q-24 -113 -104 -193q-86 -86 -197 -86q-103 0 -147 81l-57 -264h-87l157 732h87l-17 -76q37 42 86 67t100 25q91 0 141 -63q46 -58 46 -150q0 -33 -8 -73zM458 267q6 29 6 56q0 63 -29 102q-33 44 -97 44q-78 0 -136 -66q-50 -57 -68 -139q-6 -29 -6 -56 q0 -63 29 -102q33 -44 96 -44q77 0 136 66q51 58 69 139z" />
<glyph unicode="q" horiz-adv-x="631" d="M449 -200h-86l58 270q-31 -42 -79 -64.5t-97 -22.5q-94 0 -145.5 59.5t-51.5 150.5q0 32 8 69q24 113 105 195q89 90 199 90q104 0 144 -88l15 72h86zM477 270q6 27 6 55q0 63 -29 101q-33 43 -96 43q-76 0 -134 -62q-52 -56 -69 -136q-3 -15 -5 -30t-2 -31 q0 -64 29 -104q33 -46 96 -46q78 0 136 69q50 59 68 141z" />
<glyph unicode="r" horiz-adv-x="311" d="M352 447h-9q-77 0 -126.5 -37t-65.5 -114l-63 -296h-88l113 531h84l-20 -96q33 59 81 83t114 24z" />
<glyph unicode="s" horiz-adv-x="502" d="M468 156q-17 -81 -101 -130q-74 -43 -160 -43q-78 0 -126.5 37t-48.5 106v14q0 7 5 31h87q-3 -14 -3 -25q0 -41 30 -63t78 -22q47 0 88 20q50 24 60 68q1 4 1 8v6q0 40 -70 60l-139 40q-74 32 -74 95v14q0 5 4 20q16 75 90 118q65 38 143 38q72 0 120 -32q54 -36 54 -99 v-20q-3 -10 -4 -14h-87q2 14 2 19q0 35 -30 53t-71 18t-75 -15q-44 -19 -52 -56q-2 -12 -2 -16q0 -40 71 -59l139 -37q75 -31 75 -97v-22q-3 -11 -4 -15z" />
<glyph unicode="t" horiz-adv-x="330" d="M264 0l-40 -4q-20 -2 -36 -2q-92 0 -92 72q0 18 4 37l76 356h-78l15 72h78l32 149h89l-32 -149h97l-15 -72h-97l-70 -326q-3 -12 -3 -23q0 -37 45 -37q17 0 27.5 2t15.5 2z" />
<glyph unicode="u" horiz-adv-x="525" d="M444 0h-85l17 79q-37 -45 -92.5 -71t-110.5 -26q-70 0 -105 39t-35 104q0 19 1 30t6 31l73 345h90l-69 -326q-6 -24 -6 -50q0 -42 19.5 -69t62.5 -27q69 0 128 60q54 55 69 126l61 286h89z" />
<glyph unicode="v" horiz-adv-x="548" d="M599 531l-308 -531h-95l-83 531h96l59 -425l235 425h96z" />
<glyph unicode="w" horiz-adv-x="792" d="M840 531l-276 -531h-90l-26 408l-199 -408h-89l-47 531h94l25 -406l192 406h104l18 -406l201 406h93z" />
<glyph unicode="x" horiz-adv-x="550" d="M486 0h-107l-96 206l-179 -206h-104l243 273l-121 258h105l89 -190l169 190h104l-233 -257z" />
<glyph unicode="y" horiz-adv-x="555" d="M606 531l-339 -591q-36 -60 -77 -96q-52 -45 -108 -45q-29 0 -53 9l18 85q3 -1 18.5 -4.5t30.5 -3.5q34 0 60 33q8 10 38 63l-81 550h99l56 -430l240 430h98z" />
<glyph unicode="z" horiz-adv-x="502" d="M442 0h-442l15 72l394 381h-297l16 78h413l-15 -73l-391 -379h324z" />
<glyph unicode="{" horiz-adv-x="416" d="M302 -206q-103 0 -146 33q-36 28 -36 84q0 38 25 118t25 112q0 41 -25 61q-30 24 -97 24l16 74q135 0 168 111l46 208q50 112 224 112l-15 -72q-112 0 -142 -85l-32 -173q-28 -106 -130 -138q42 -15 58 -41t16 -65q0 -35 -21 -109t-21 -103q0 -37 22.5 -56.5t80.5 -19.5z " />
<glyph unicode="|" d="M394 333h-76l81 377h76zM286 -174h-76l80 376h76z" />
<glyph unicode="}" horiz-adv-x="416" d="M394 226q-137 0 -165 -112l-39 -208q-48 -112 -234 -112l16 75q109 0 140 86l34 174q29 104 130 134q-41 14 -58 41.5t-17 64.5q0 36 21 110t21 103q0 38 -20 56q-24 21 -82 21l15 72q103 0 146 -33q36 -28 36 -84q0 -35 -15 -87q-35 -121 -35 -142q0 -41 25 -61 q30 -24 97 -24z" />
<glyph unicode="~" horiz-adv-x="670" d="M747 690q-19 -91 -70 -147q-59 -64 -147 -64q-66 0 -123 69t-102 69q-54 0 -88 -44q-27 -35 -40 -94h-75q19 90 70 146q59 65 146 65q69 0 124.5 -69.5t103.5 -69.5q56 0 89 45q25 34 37 94h75z" />
<glyph unicode="&#xa3;" horiz-adv-x="577" d="M513 30q-34 -26 -65.5 -37.5t-61.5 -11.5q-29 0 -125 30q-48 15 -80 15q-33 0 -62.5 -9t-68.5 -32l-34 70q105 78 135 123.5t30 92.5q0 12 -3 27l-4 21h-106l11 50h78q-19 50 -19 103q0 107 70 178q76 77 205 77q82 0 137 -43.5t55 -117.5q0 -18 -5 -41l-7 -32h-91 q6 26 6 47q0 49 -27 77t-82 28q-88 0 -128 -47q-33 -39 -33 -107q0 -29 5 -57.5t15 -64.5h158l-11 -50h-136q3 -17 3 -31q0 -68 -68 -139q-22 -23 -78 -72q29 12 57.5 18.5t48.5 6.5q33 0 81.5 -16.5t73.5 -16.5q24 0 46 6.5t55 24.5z" />
<glyph unicode="&#xa4;" horiz-adv-x="594" d="M572 219l-69 -57l-78 99q-44 -22 -98 -22q-51 0 -86 22l-120 -99l-45 57l120 99q-7 20 -7 44q0 67 48 123l-82 104l69 57l84 -107q20 8 42 13t46 5t44.5 -5t35.5 -13l130 107l45 -57l-125 -103q10 -23 10 -54q0 -63 -42 -114zM382 491q-55 0 -89.5 -35.5t-34.5 -78.5 q0 -32 20.5 -52.5t62.5 -20.5q55 0 89.5 35.5t34.5 78.5q0 32 -19 51q-22 22 -64 22z" />
<glyph unicode="&#xa5;" horiz-adv-x="638" d="M492 404h96l-12 -54h-126l-39 -50l-5 -26h155l-13 -52l-154 -2l-47 -220h-101l47 221h-156l12 53h156l5 26l-17 49l-128 2l11 53h96l-116 325h101l121 -345l267 345h101z" />
<glyph unicode="&#xa6;" d="M394 333h-76l81 377h76zM286 -174h-76l80 376h76z" />
<glyph unicode="&#xa7;" horiz-adv-x="497" d="M492 306q-8 -40 -44 -81.5t-76 -56.5q31 -34 31 -80q0 -14 -3 -28q-15 -69 -81 -114q-61 -42 -132 -42q-65 0 -103 36t-38 96q0 16 3 33h86q-3 -12 -3 -23q0 -30 19.5 -47.5t52.5 -17.5q32 0 63 15q38 18 44 47q2 6 2 11v9q0 45 -62 84l-116 69q-63 46 -63 105q0 15 3 32 q9 43 41.5 80.5t78.5 61.5q-30 30 -30 69q0 14 2 21q16 77 80 124q57 42 127 42q58 0 97 -32.5t39 -94.5q0 -7 -0.5 -15t-3.5 -23h-85q1 6 1 16q0 36 -20 55t-49 19q-32 0 -60 -19.5t-34 -50.5q-1 -5 -1 -15q0 -36 61 -73l115 -68q62 -47 62 -109v-17q-3 -12 -4 -18z M399 295q1 4 1 13q0 50 -93 107l-69 39q-28 -16 -43 -31q-20 -20 -25 -45q-1 -4 -1 -12q0 -43 68 -92q78 -47 96 -59q25 13 43 34t23 46z" />
<glyph unicode="&#xa8;" horiz-adv-x="167" d="M338 753h-92l22 103h92zM174 753h-92l22 103h92z" />
<glyph unicode="&#xa9;" horiz-adv-x="796" d="M361 -5q-145 0 -224 84q-71 76 -71 197q0 169 121 304q132 148 331 148q146 0 224 -84q71 -76 71 -198q0 -169 -120 -303q-132 -148 -332 -148zM371 43q172 0 287 129q104 117 104 263q0 106 -61 172q-68 73 -194 73q-171 0 -286 -129q-105 -118 -105 -264 q0 -105 61 -171q68 -73 194 -73zM595 284q-22 -66 -81 -106.5t-127 -40.5q-76 0 -114.5 46t-38.5 117q0 104 68 190q75 95 183 95q59 0 99.5 -32t40.5 -87q0 -10 -1 -16h-71q0 35 -23 57t-58 22q-69 0 -117 -74q-43 -66 -43 -146q0 -50 21 -81.5t62 -31.5q43 0 76.5 23.5 t49.5 64.5h74z" />
<glyph unicode="&#xaa;" horiz-adv-x="286" d="M348 450q-17 -6 -31 -6q-18 0 -25.5 10.5t-7.5 30.5q-21 -21 -49 -32.5t-56 -11.5q-70 0 -70 60q0 5 2 19q12 56 68 75l130 29l6 15q1 5 1 9q0 16 -12 26q-16 12 -40 12t-44.5 -13.5t-28.5 -37.5h-43q11 44 47 68.5t81 24.5q35 0 60 -18t25 -50q0 -6 -2 -18l-28 -133 q-2 -10 -2 -14q0 -12 13 -12l13 1zM293 545l9 39q-53 -9 -82 -15q-55 -12 -62 -46q-1 -4 -1 -10q0 -33 41 -33q30 0 59.5 18t35.5 47z" />
<glyph unicode="&#xab;" horiz-adv-x="435" d="M386 99l-135 119l21 99l187 121l-19 -88l-124 -82l89 -83zM181 99l-134 119l21 99l186 121l-19 -88l-124 -82l89 -83z" />
<glyph unicode="&#xac;" horiz-adv-x="578" d="M571 296l-39 -182h-55l28 127h-453l11 55h508z" />
<glyph unicode="&#xad;" horiz-adv-x="578" d="M560 241h-508l11 55h508z" />
<glyph unicode="&#xae;" horiz-adv-x="796" d="M445 383q46 0 85 22q46 26 55 69q2 12 2 17q0 34 -31.5 49.5t-73.5 15.5h-119l-37 -173h119zM361 -5q-145 0 -224 84q-71 76 -71 197q0 169 121 304q132 148 331 148q146 0 224 -84q71 -76 71 -198q0 -169 -120 -303q-132 -148 -332 -148zM371 43q172 0 287 129 q104 117 104 263q0 106 -61 172q-68 73 -194 73q-171 0 -286 -129q-105 -118 -105 -264q0 -105 61 -171q68 -73 194 -73zM590 105h-79q-6 17 -6 35q0 20 5 47q12 65 12 77q0 28 -14 42q-18 17 -59 17h-136l-47 -218h-70l109 510h200q65 0 105 -26q46 -30 46 -85 q0 -13 -3 -30q-8 -37 -33.5 -68t-61.5 -48q23 -8 32 -24.5t9 -42.5q0 -17 -13 -85q-6 -31 -6 -48q0 -28 13 -40z" />
<glyph unicode="&#xaf;" horiz-adv-x="675" d="M837 744h-678l12 55h678z" />
<glyph unicode="&#xb0;" horiz-adv-x="320" d="M249 578q-50 0 -76 28t-26 69q0 58 41 104q45 51 114 51q50 0 77 -29q24 -26 24 -69q0 -57 -41 -103q-45 -51 -113 -51zM261 637q35 0 57 25t22 55q0 21 -13 35t-38 14q-35 0 -57 -25t-22 -55q0 -21 13 -35t38 -14z" />
<glyph unicode="&#xb1;" d="M637 353h-241l-36 -169h-70l36 169h-243l15 69h242l36 168h70l-36 -168h242zM565 15h-554l15 68h554z" />
<glyph unicode="&#xb2;" horiz-adv-x="388" d="M377 275h-318q17 79 94 132l139 74q75 42 86 93q2 10 2 16q0 28 -21.5 44.5t-54.5 16.5q-39 0 -72 -25.5t-44 -77.5h-61q16 74 74 116q51 37 116 37q54 0 90.5 -27t36.5 -75q0 -11 -3 -25q-14 -66 -90 -117q-25 -16 -136 -69q-72 -34 -79 -61h252z" />
<glyph unicode="&#xb3;" horiz-adv-x="394" d="M409 398q-14 -62 -73 -100q-54 -34 -120 -34q-57 0 -93 27q-40 30 -40 84v13q0 5 4 20h61q-1 -6 -1.5 -13t-0.5 -10q0 -34 23.5 -52t59.5 -18q40 0 73.5 22t41.5 61q2 12 2 17q0 30 -26 44t-64 14h-14q-10 -2 -14 -2l10 49q53 0 77 8q42 14 51 59q1 4 1 8v6 q0 23 -19.5 37.5t-48.5 14.5q-37 0 -68 -22.5t-41 -68.5h-59q15 68 69 105q48 33 109 33q54 0 90 -24t36 -67q0 -6 -2 -20q-14 -62 -78 -87q57 -19 57 -80q0 -12 -3 -24z" />
<glyph unicode="&#xb4;" horiz-adv-x="181" d="M162 436h-69l59 275h69z" />
<glyph unicode="&#xb5;" horiz-adv-x="538" d="M501 -3q-13 -3 -25 -5t-25 -2q-77 0 -77 80q-29 -41 -68 -64t-84 -23q-41 0 -72 20t-52 55l-55 -258h-86l156 731h89l-60 -284q-6 -27 -6 -58q0 -56 21 -89q26 -41 78 -41q67 0 118 69q41 56 57 130l58 273h89l-80 -377q-2 -10 -4 -23.5t-2 -24.5q0 -19 6 -29.5t23 -10.5 q6 0 17 3z" />
<glyph unicode="&#xb6;" horiz-adv-x="488" d="M152 642h23l13 -94l54 94h22l-23 -111h-15l20 93l-55 -93h-14l-14 96l-21 -96h-14zM354 615l-20 -89q-6 -29 -45 -29h-18q-9 3 -13 4l1 12l32 -5q23 0 29 20l5 22q-11 -17 -35 -17q-29 0 -29 27q0 9 1 14q9 45 59 45h13q5 0 20 -4zM338 606l-18 1q-36 0 -45 -34 q-1 -4 -1 -10q0 -19 21 -19q28 0 35 29zM560 711h-46l-152 -712h-46l152 712h-88l-152 -712h-46l93 434q-70 0 -116 37q-38 32 -38 80q0 15 3 30q16 81 101 132q78 46 160 46h185z" />
<glyph unicode="&#xb7;" horiz-adv-x="172" d="M192 421h-102l23 110h102z" />
<glyph unicode="&#x2219;" horiz-adv-x="172" d="M192 421h-102l23 110h102z" />
<glyph unicode="&#xb9;" d="M414 0h-95l107 502h-163l15 71q85 0 130 27q50 30 87 110h71z" />
<glyph unicode="&#xba;" horiz-adv-x="591" d="M253 -18q-99 0 -151.5 58t-52.5 152q0 33 8 73q25 119 109 198q90 85 208 85q98 0 153 -61q51 -57 51 -151q0 -33 -8 -71q-26 -120 -110 -199q-89 -84 -207 -84zM270 61q78 0 137 65q52 58 70 140q6 29 6 58q0 64 -29 102q-33 43 -97 43q-77 0 -135 -65q-50 -56 -68 -138 q-3 -15 -5 -30t-2 -29q0 -64 28 -102q32 -44 95 -44z" />
<glyph unicode="&#xbb;" horiz-adv-x="433" d="M410 218l-186 -119l19 86l123 83l-88 82l19 88l134 -121zM207 218l-186 -119l19 86l122 83l-87 82l19 88l134 -121z" />
<glyph unicode="&#xbd;" horiz-adv-x="827" d="M757 0h-307q16 77 91 129q11 8 133 71q72 38 81 78q2 10 2 15q0 26 -19.5 40.5t-50.5 14.5q-39 0 -69 -22q-35 -26 -45 -72h-58q15 69 70 108q50 35 112 35q51 0 86 -25t35 -69q0 -11 -3 -25q-13 -61 -73 -97l-118 -52q-71 -33 -98 -80h241zM753 709l-602 -729h-61 l602 729h61zM226 304h-59l60 280h-102l8 40q45 0 79 16q42 20 56 61h43z" />
<glyph unicode="&#xc0;" horiz-adv-x="726" d="M550 810h-100l25 117q10 48 43.5 81.5t84.5 48.5l-10 -46q-32 -6 -50 -38q-13 -23 -21 -62h50zM653 0h-108l-30 218h-287l-125 -218h-103l427 729h110zM504 303l-45 321l-183 -321h228z" />
<glyph unicode="&#xc1;" horiz-adv-x="726" d="M534 810h-69l59 275h69zM653 0h-108l-30 218h-287l-125 -218h-103l427 729h110zM504 303l-45 321l-183 -321h228z" />
<glyph unicode="&#xc2;" horiz-adv-x="726" d="M646 810h-60l-62 114l-109 -114h-61l133 173h98zM653 0h-108l-30 218h-287l-125 -218h-103l427 729h110zM504 303l-45 321l-183 -321h228z" />
<glyph unicode="&#xc3;" horiz-adv-x="726" d="M845 1021q-19 -91 -70 -147q-59 -64 -147 -64q-66 0 -123 69t-102 69q-54 0 -88 -44q-27 -35 -40 -94h-75q19 90 70 146q59 65 146 65q69 0 124.5 -69.5t103.5 -69.5q56 0 89 45q25 34 37 94h75zM653 0h-108l-30 218h-287l-125 -218h-103l427 729h110zM504 303l-45 321 l-183 -321h228z" />
<glyph unicode="&#xc4;" horiz-adv-x="726" d="M628 810h-92l22 103h92zM464 810h-92l22 103h92zM653 0h-108l-30 218h-287l-125 -218h-103l427 729h110zM504 303l-45 321l-183 -321h228z" />
<glyph unicode="&#xc5;" horiz-adv-x="726" d="M488 742q-50 0 -76 28t-26 69q0 58 41 104q45 51 114 51q50 0 77 -29q24 -26 24 -69q0 -57 -41 -103q-45 -51 -113 -51zM500 801q35 0 57 25t22 55q0 21 -13 35t-38 14q-35 0 -57 -25t-22 -55q0 -21 13 -35t38 -14zM653 0h-108l-30 218h-287l-125 -218h-103l427 729h110z M504 303l-45 321l-183 -321h228z" />
<glyph unicode="&#xc8;" horiz-adv-x="568" d="M485 810h-100l25 117q10 48 43.5 81.5t84.5 48.5l-10 -46q-32 -6 -50 -38q-13 -23 -21 -62h50zM530 0h-530l156 729h522l-19 -89h-422l-47 -219h388l-18 -85h-388l-53 -246h430z" />
<glyph unicode="&#xc9;" horiz-adv-x="568" d="M469 810h-69l59 275h69zM530 0h-530l156 729h522l-19 -89h-422l-47 -219h388l-18 -85h-388l-53 -246h430z" />
<glyph unicode="&#xca;" horiz-adv-x="568" d="M581 810h-60l-62 114l-109 -114h-61l133 173h98zM530 0h-530l156 729h522l-19 -89h-422l-47 -219h388l-18 -85h-388l-53 -246h430z" />
<glyph unicode="&#xcb;" horiz-adv-x="568" d="M563 810h-92l22 103h92zM399 810h-92l22 103h92zM530 0h-530l156 729h522l-19 -89h-422l-47 -219h388l-18 -85h-388l-53 -246h430z" />
<glyph unicode="&#xcc;" horiz-adv-x="211" d="M304 810h-100l25 117q10 48 43.5 81.5t84.5 48.5l-10 -46q-32 -6 -50 -38q-13 -23 -21 -62h50zM130 0h-100l156 729h100z" />
<glyph unicode="&#xcd;" horiz-adv-x="211" d="M288 810h-69l59 275h69zM130 0h-100l156 729h100z" />
<glyph unicode="&#xce;" horiz-adv-x="211" d="M400 810h-60l-62 114l-109 -114h-61l133 173h98zM130 0h-100l156 729h100z" />
<glyph unicode="&#xcf;" horiz-adv-x="211" d="M382 810h-92l22 103h92zM218 810h-92l22 103h92zM130 0h-100l156 729h100z" />
<glyph unicode="&#xd1;" horiz-adv-x="658" d="M807 1021q-19 -91 -70 -147q-59 -64 -147 -64q-66 0 -123 69t-102 69q-54 0 -88 -44q-27 -35 -40 -94h-75q19 90 70 146q59 65 146 65q69 0 124.5 -69.5t103.5 -69.5q56 0 89 45q25 34 37 94h75zM577 0h-108l-248 592l-127 -592h-94l156 729h109l247 -591l127 591h94z " />
<glyph unicode="&#xd2;" horiz-adv-x="761" d="M573 810h-100l25 117q10 48 43.5 81.5t84.5 48.5l-10 -46q-32 -6 -50 -38q-13 -23 -21 -62h50zM510 750q131 0 203 -81q67 -76 67 -201q0 -46 -11 -99q-35 -162 -147 -271q-121 -117 -279 -117q-133 0 -207 81q-69 75 -69 201q0 47 11 100q34 163 149 271 q123 116 283 116zM361 70q114 0 201 92q78 82 103 201q9 41 9 80q0 93 -44 150q-50 64 -144 64q-114 0 -202 -92q-79 -83 -104 -202q-9 -42 -9 -82q0 -93 45 -149q50 -62 145 -62z" />
<glyph unicode="&#xd3;" horiz-adv-x="761" d="M558 810h-69l59 275h69zM510 750q131 0 203 -81q67 -76 67 -201q0 -46 -11 -99q-35 -162 -147 -271q-121 -117 -279 -117q-133 0 -207 81q-69 75 -69 201q0 47 11 100q34 163 149 271q123 116 283 116zM361 70q114 0 201 92q78 82 103 201q9 41 9 80q0 93 -44 150 q-50 64 -144 64q-114 0 -202 -92q-79 -83 -104 -202q-9 -42 -9 -82q0 -93 45 -149q50 -62 145 -62z" />
<glyph unicode="&#xd4;" horiz-adv-x="761" d="M669 810h-60l-62 114l-109 -114h-61l133 173h98zM510 750q131 0 203 -81q67 -76 67 -201q0 -46 -11 -99q-35 -162 -147 -271q-121 -117 -279 -117q-133 0 -207 81q-69 75 -69 201q0 47 11 100q34 163 149 271q123 116 283 116zM361 70q114 0 201 92q78 82 103 201 q9 41 9 80q0 93 -44 150q-50 64 -144 64q-114 0 -202 -92q-79 -83 -104 -202q-9 -42 -9 -82q0 -93 45 -149q50 -62 145 -62z" />
<glyph unicode="&#xd5;" horiz-adv-x="761" d="M868 1021q-19 -91 -70 -147q-59 -64 -147 -64q-66 0 -123 69t-102 69q-54 0 -88 -44q-27 -35 -40 -94h-75q19 90 70 146q59 65 146 65q69 0 124.5 -69.5t103.5 -69.5q56 0 89 45q25 34 37 94h75zM510 750q131 0 203 -81q67 -76 67 -201q0 -46 -11 -99q-35 -162 -147 -271 q-121 -117 -279 -117q-133 0 -207 81q-69 75 -69 201q0 47 11 100q34 163 149 271q123 116 283 116zM361 70q114 0 201 92q78 82 103 201q9 41 9 80q0 93 -44 150q-50 64 -144 64q-114 0 -202 -92q-79 -83 -104 -202q-9 -42 -9 -82q0 -93 45 -149q50 -62 145 -62z" />
<glyph unicode="&#xd6;" horiz-adv-x="761" d="M651 810h-92l22 103h92zM487 810h-92l22 103h92zM510 750q131 0 203 -81q67 -76 67 -201q0 -46 -11 -99q-35 -162 -147 -271q-121 -117 -279 -117q-133 0 -207 81q-69 75 -69 201q0 47 11 100q34 163 149 271q123 116 283 116zM361 70q114 0 201 92q78 82 103 201 q9 41 9 80q0 93 -44 150q-50 64 -144 64q-114 0 -202 -92q-79 -83 -104 -202q-9 -42 -9 -82q0 -93 45 -149q50 -62 145 -62z" />
<glyph unicode="&#xd9;" horiz-adv-x="651" d="M510 810h-100l25 117q10 48 43.5 81.5t84.5 48.5l-10 -46q-32 -6 -50 -38q-13 -23 -21 -62h50zM633 283q-27 -130 -128 -215.5t-231 -85.5q-107 0 -164.5 61.5t-57.5 161.5q0 27 1 39.5t7 38.5l96 446h99l-96 -447q-6 -27 -6 -53q0 -68 37.5 -110t109.5 -42 q85 0 149.5 59.5t82.5 145.5l96 447h101z" />
<glyph unicode="&#xda;" horiz-adv-x="651" d="M495 810h-69l59 275h69zM633 283q-27 -130 -128 -215.5t-231 -85.5q-107 0 -164.5 61.5t-57.5 161.5q0 27 1 39.5t7 38.5l96 446h99l-96 -447q-6 -27 -6 -53q0 -68 37.5 -110t109.5 -42q85 0 149.5 59.5t82.5 145.5l96 447h101z" />
<glyph unicode="&#xdb;" horiz-adv-x="651" d="M606 810h-60l-62 114l-109 -114h-61l133 173h98zM633 283q-27 -130 -128 -215.5t-231 -85.5q-107 0 -164.5 61.5t-57.5 161.5q0 27 1 39.5t7 38.5l96 446h99l-96 -447q-6 -27 -6 -53q0 -68 37.5 -110t109.5 -42q85 0 149.5 59.5t82.5 145.5l96 447h101z" />
<glyph unicode="&#xdc;" horiz-adv-x="651" d="M588 810h-92l22 103h92zM424 810h-92l22 103h92zM633 283q-27 -130 -128 -215.5t-231 -85.5q-107 0 -164.5 61.5t-57.5 161.5q0 27 1 39.5t7 38.5l96 446h99l-96 -447q-6 -27 -6 -53q0 -68 37.5 -110t109.5 -42q85 0 149.5 59.5t82.5 145.5l96 447h101z" />
<glyph unicode="&#xdd;" horiz-adv-x="638" d="M503 810h-69l59 275h69zM746 729l-335 -429l-64 -300h-101l64 300l-154 429h101l121 -345l267 345h101z" />
<glyph unicode="&#xe0;" horiz-adv-x="572" d="M421 616h-100l25 117q10 48 43.5 81.5t84.5 48.5l-10 -46q-32 -6 -50 -38q-13 -23 -21 -62h50zM503 0q-34 -12 -63 -12q-36 0 -50.5 21t-14.5 60q-41 -41 -97.5 -64t-111.5 -23q-65 0 -103 30.5t-38 87.5q0 17 5 40q21 100 116 141q50 22 158 33t121 34q4 8 7 15t5 16.5 t2 14.5q0 36 -31 56.5t-73 20.5q-49 0 -89.5 -27t-56.5 -74h-86q21 87 93.5 136.5t161.5 49.5q73 0 120 -34q52 -38 52 -103v-21q-3 -11 -4 -15l-57 -265q-4 -20 -4 -28q0 -12 5.5 -18.5t21.5 -6.5l26 3zM393 189l17 79q-16 -6 -118 -22q-152 -24 -169 -101q-2 -14 -2 -20 q0 -32 22.5 -48.5t59.5 -16.5q59 0 115 34q63 39 75 95z" />
<glyph unicode="&#xe1;" horiz-adv-x="572" d="M406 616h-69l59 275h69zM503 0q-34 -12 -63 -12q-36 0 -50.5 21t-14.5 60q-41 -41 -97.5 -64t-111.5 -23q-65 0 -103 30.5t-38 87.5q0 17 5 40q21 100 116 141q50 22 158 33t121 34q4 8 7 15t5 16.5t2 14.5q0 36 -31 56.5t-73 20.5q-49 0 -89.5 -27t-56.5 -74h-86 q21 87 93.5 136.5t161.5 49.5q73 0 120 -34q52 -38 52 -103v-21q-3 -11 -4 -15l-57 -265q-4 -20 -4 -28q0 -12 5.5 -18.5t21.5 -6.5l26 3zM393 189l17 79q-16 -6 -118 -22q-152 -24 -169 -101q-2 -14 -2 -20q0 -32 22.5 -48.5t59.5 -16.5q59 0 115 34q63 39 75 95z" />
<glyph unicode="&#xe2;" horiz-adv-x="572" d="M517 616h-60l-62 114l-109 -114h-61l133 173h98zM503 0q-34 -12 -63 -12q-36 0 -50.5 21t-14.5 60q-41 -41 -97.5 -64t-111.5 -23q-65 0 -103 30.5t-38 87.5q0 17 5 40q21 100 116 141q50 22 158 33t121 34q4 8 7 15t5 16.5t2 14.5q0 36 -31 56.5t-73 20.5 q-49 0 -89.5 -27t-56.5 -74h-86q21 87 93.5 136.5t161.5 49.5q73 0 120 -34q52 -38 52 -103v-21q-3 -11 -4 -15l-57 -265q-4 -20 -4 -28q0 -12 5.5 -18.5t21.5 -6.5l26 3zM393 189l17 79q-16 -6 -118 -22q-152 -24 -169 -101q-2 -14 -2 -20q0 -32 22.5 -48.5t59.5 -16.5 q59 0 115 34q63 39 75 95z" />
<glyph unicode="&#xe3;" horiz-adv-x="572" d="M716 827q-19 -91 -70 -147q-59 -64 -147 -64q-66 0 -123 69t-102 69q-54 0 -88 -44q-27 -35 -40 -94h-75q19 90 70 146q59 65 146 65q69 0 124.5 -69.5t103.5 -69.5q56 0 89 45q25 34 37 94h75zM503 0q-34 -12 -63 -12q-36 0 -50.5 21t-14.5 60q-41 -41 -97.5 -64 t-111.5 -23q-65 0 -103 30.5t-38 87.5q0 17 5 40q21 100 116 141q50 22 158 33t121 34q4 8 7 15t5 16.5t2 14.5q0 36 -31 56.5t-73 20.5q-49 0 -89.5 -27t-56.5 -74h-86q21 87 93.5 136.5t161.5 49.5q73 0 120 -34q52 -38 52 -103v-21q-3 -11 -4 -15l-57 -265q-4 -20 -4 -28 q0 -12 5.5 -18.5t21.5 -6.5l26 3zM393 189l17 79q-16 -6 -118 -22q-152 -24 -169 -101q-2 -14 -2 -20q0 -32 22.5 -48.5t59.5 -16.5q59 0 115 34q63 39 75 95z" />
<glyph unicode="&#xe4;" horiz-adv-x="572" d="M499 616h-92l22 103h92zM335 616h-92l22 103h92zM503 0q-34 -12 -63 -12q-36 0 -50.5 21t-14.5 60q-41 -41 -97.5 -64t-111.5 -23q-65 0 -103 30.5t-38 87.5q0 17 5 40q21 100 116 141q50 22 158 33t121 34q4 8 7 15t5 16.5t2 14.5q0 36 -31 56.5t-73 20.5 q-49 0 -89.5 -27t-56.5 -74h-86q21 87 93.5 136.5t161.5 49.5q73 0 120 -34q52 -38 52 -103v-21q-3 -11 -4 -15l-57 -265q-4 -20 -4 -28q0 -12 5.5 -18.5t21.5 -6.5l26 3zM393 189l17 79q-16 -6 -118 -22q-152 -24 -169 -101q-2 -14 -2 -20q0 -32 22.5 -48.5t59.5 -16.5 q59 0 115 34q63 39 75 95z" />
<glyph unicode="&#xe5;" horiz-adv-x="572" d="M372 616q-50 0 -76 28t-26 69q0 58 41 104q45 51 114 51q50 0 77 -29q24 -26 24 -69q0 -57 -41 -103q-45 -51 -113 -51zM384 675q35 0 57 25t22 55q0 21 -13 35t-38 14q-35 0 -57 -25t-22 -55q0 -21 13 -35t38 -14zM503 0q-34 -12 -63 -12q-36 0 -50.5 21t-14.5 60 q-41 -41 -97.5 -64t-111.5 -23q-65 0 -103 30.5t-38 87.5q0 17 5 40q21 100 116 141q50 22 158 33t121 34q4 8 7 15t5 16.5t2 14.5q0 36 -31 56.5t-73 20.5q-49 0 -89.5 -27t-56.5 -74h-86q21 87 93.5 136.5t161.5 49.5q73 0 120 -34q52 -38 52 -103v-21q-3 -11 -4 -15 l-57 -265q-4 -20 -4 -28q0 -12 5.5 -18.5t21.5 -6.5l26 3zM393 189l17 79q-16 -6 -118 -22q-152 -24 -169 -101q-2 -14 -2 -20q0 -32 22.5 -48.5t59.5 -16.5q59 0 115 34q63 39 75 95z" />
<glyph unicode="&#xe8;" horiz-adv-x="585" d="M439 611h-100l25 117q10 48 43.5 81.5t84.5 48.5l-10 -46q-32 -6 -50 -38q-13 -23 -21 -62h50zM564 235h-413q-1 -8 -1.5 -15.5t-0.5 -17.5q0 -61 29 -98q33 -42 94 -42q52 0 99.5 32t70.5 83h98q-38 -89 -116.5 -142.5t-169.5 -53.5q-99 0 -152.5 58t-53.5 152 q0 31 8 71q25 119 111 201q92 88 209 88q100 0 152 -66q47 -59 47 -157q0 -20 -3 -45t-8 -48zM481 309q1 7 1 20q0 60 -33 99.5t-93 39.5q-65 0 -118 -48q-47 -43 -71 -111h314z" />
<glyph unicode="&#xe9;" horiz-adv-x="585" d="M424 611h-69l59 275h69zM564 235h-413q-1 -8 -1.5 -15.5t-0.5 -17.5q0 -61 29 -98q33 -42 94 -42q52 0 99.5 32t70.5 83h98q-38 -89 -116.5 -142.5t-169.5 -53.5q-99 0 -152.5 58t-53.5 152q0 31 8 71q25 119 111 201q92 88 209 88q100 0 152 -66q47 -59 47 -157 q0 -20 -3 -45t-8 -48zM481 309q1 7 1 20q0 60 -33 99.5t-93 39.5q-65 0 -118 -48q-47 -43 -71 -111h314z" />
<glyph unicode="&#xea;" horiz-adv-x="585" d="M535 611h-60l-62 114l-109 -114h-61l133 173h98zM564 235h-413q-1 -8 -1.5 -15.5t-0.5 -17.5q0 -61 29 -98q33 -42 94 -42q52 0 99.5 32t70.5 83h98q-38 -89 -116.5 -142.5t-169.5 -53.5q-99 0 -152.5 58t-53.5 152q0 31 8 71q25 119 111 201q92 88 209 88q100 0 152 -66 q47 -59 47 -157q0 -20 -3 -45t-8 -48zM481 309q1 7 1 20q0 60 -33 99.5t-93 39.5q-65 0 -118 -48q-47 -43 -71 -111h314z" />
<glyph unicode="&#xeb;" horiz-adv-x="585" d="M517 611h-92l22 103h92zM353 611h-92l22 103h92zM564 235h-413q-1 -8 -1.5 -15.5t-0.5 -17.5q0 -61 29 -98q33 -42 94 -42q52 0 99.5 32t70.5 83h98q-38 -89 -116.5 -142.5t-169.5 -53.5q-99 0 -152.5 58t-53.5 152q0 31 8 71q25 119 111 201q92 88 209 88q100 0 152 -66 q47 -59 47 -157q0 -20 -3 -45t-8 -48zM481 309q1 7 1 20q0 60 -33 99.5t-93 39.5q-65 0 -118 -48q-47 -43 -71 -111h314z" />
<glyph unicode="&#xec;" horiz-adv-x="198" d="M273 789h-100l25 117q10 48 43.5 81.5t84.5 48.5l-10 -46q-32 -6 -50 -38q-13 -23 -21 -62h50zM232 628h-88l22 101h88zM98 0h-88l113 531h88z" />
<glyph unicode="&#xed;" horiz-adv-x="198" d="M258 789h-69l59 275h69zM232 628h-88l22 101h88zM98 0h-88l113 531h88z" />
<glyph unicode="&#xee;" horiz-adv-x="198" d="M369 789h-60l-62 114l-109 -114h-61l133 173h98zM232 628h-88l22 101h88zM98 0h-88l113 531h88z" />
<glyph unicode="&#xef;" horiz-adv-x="198" d="M351 789h-92l22 103h92zM187 789h-92l22 103h92zM232 628h-88l22 101h88zM98 0h-88l113 531h88z" />
<glyph unicode="&#xf1;" horiz-adv-x="521" d="M697 821q-19 -91 -70 -147q-59 -64 -147 -64q-66 0 -123 69t-102 69q-54 0 -88 -44q-27 -35 -40 -94h-75q19 90 70 146q59 65 146 65q69 0 124.5 -69.5t103.5 -69.5q56 0 89 45q25 34 37 94h75zM514 334l-71 -334h-90l70 327q5 27 5 46q0 44 -20 70q-23 29 -68 29 q-65 0 -121 -51.5t-70 -117.5l-65 -303h-84l114 532h84l-17 -78q33 45 87.5 70.5t108.5 25.5q73 0 110 -43q34 -39 34 -108q0 -20 -1 -31t-6 -34z" />
<glyph unicode="&#xf2;" horiz-adv-x="591" d="M437 608h-100l25 117q10 48 43.5 81.5t84.5 48.5l-10 -46q-32 -6 -50 -38q-13 -23 -21 -62h50zM253 -18q-99 0 -151.5 58t-52.5 152q0 33 8 73q25 119 109 198q90 85 208 85q98 0 153 -61q51 -57 51 -151q0 -33 -8 -71q-26 -120 -110 -199q-89 -84 -207 -84zM270 61 q78 0 137 65q52 58 70 140q6 29 6 58q0 64 -29 102q-33 43 -97 43q-77 0 -135 -65q-50 -56 -68 -138q-3 -15 -5 -30t-2 -29q0 -64 28 -102q32 -44 95 -44z" />
<glyph unicode="&#xf3;" horiz-adv-x="591" d="M422 608h-69l59 275h69zM253 -18q-99 0 -151.5 58t-52.5 152q0 33 8 73q25 119 109 198q90 85 208 85q98 0 153 -61q51 -57 51 -151q0 -33 -8 -71q-26 -120 -110 -199q-89 -84 -207 -84zM270 61q78 0 137 65q52 58 70 140q6 29 6 58q0 64 -29 102q-33 43 -97 43 q-77 0 -135 -65q-50 -56 -68 -138q-3 -15 -5 -30t-2 -29q0 -64 28 -102q32 -44 95 -44z" />
<glyph unicode="&#xf4;" horiz-adv-x="591" d="M533 608h-60l-62 114l-109 -114h-61l133 173h98zM253 -18q-99 0 -151.5 58t-52.5 152q0 33 8 73q25 119 109 198q90 85 208 85q98 0 153 -61q51 -57 51 -151q0 -33 -8 -71q-26 -120 -110 -199q-89 -84 -207 -84zM270 61q78 0 137 65q52 58 70 140q6 29 6 58q0 64 -29 102 q-33 43 -97 43q-77 0 -135 -65q-50 -56 -68 -138q-3 -15 -5 -30t-2 -29q0 -64 28 -102q32 -44 95 -44z" />
<glyph unicode="&#xf5;" horiz-adv-x="591" d="M732 819q-19 -91 -70 -147q-59 -64 -147 -64q-66 0 -123 69t-102 69q-54 0 -88 -44q-27 -35 -40 -94h-75q19 90 70 146q59 65 146 65q69 0 124.5 -69.5t103.5 -69.5q56 0 89 45q25 34 37 94h75zM253 -18q-99 0 -151.5 58t-52.5 152q0 33 8 73q25 119 109 198 q90 85 208 85q98 0 153 -61q51 -57 51 -151q0 -33 -8 -71q-26 -120 -110 -199q-89 -84 -207 -84zM270 61q78 0 137 65q52 58 70 140q6 29 6 58q0 64 -29 102q-33 43 -97 43q-77 0 -135 -65q-50 -56 -68 -138q-3 -15 -5 -30t-2 -29q0 -64 28 -102q32 -44 95 -44z" />
<glyph unicode="&#xf6;" horiz-adv-x="591" d="M515 608h-92l22 103h92zM351 608h-92l22 103h92zM253 -18q-99 0 -151.5 58t-52.5 152q0 33 8 73q25 119 109 198q90 85 208 85q98 0 153 -61q51 -57 51 -151q0 -33 -8 -71q-26 -120 -110 -199q-89 -84 -207 -84zM270 61q78 0 137 65q52 58 70 140q6 29 6 58q0 64 -29 102 q-33 43 -97 43q-77 0 -135 -65q-50 -56 -68 -138q-3 -15 -5 -30t-2 -29q0 -64 28 -102q32 -44 95 -44z" />
<glyph unicode="&#xf9;" horiz-adv-x="525" d="M402 608h-100l25 117q10 48 43.5 81.5t84.5 48.5l-10 -46q-32 -6 -50 -38q-13 -23 -21 -62h50zM444 0h-85l17 79q-37 -45 -92.5 -71t-110.5 -26q-70 0 -105 39t-35 104q0 19 1 30t6 31l73 345h90l-69 -326q-6 -24 -6 -50q0 -42 19.5 -69t62.5 -27q69 0 128 60 q54 55 69 126l61 286h89z" />
<glyph unicode="&#xfa;" horiz-adv-x="525" d="M386 608h-69l59 275h69zM444 0h-85l17 79q-37 -45 -92.5 -71t-110.5 -26q-70 0 -105 39t-35 104q0 19 1 30t6 31l73 345h90l-69 -326q-6 -24 -6 -50q0 -42 19.5 -69t62.5 -27q69 0 128 60q54 55 69 126l61 286h89z" />
<glyph unicode="&#xfb;" horiz-adv-x="525" d="M498 608h-60l-62 114l-109 -114h-61l133 173h98zM444 0h-85l17 79q-37 -45 -92.5 -71t-110.5 -26q-70 0 -105 39t-35 104q0 19 1 30t6 31l73 345h90l-69 -326q-6 -24 -6 -50q0 -42 19.5 -69t62.5 -27q69 0 128 60q54 55 69 126l61 286h89z" />
<glyph unicode="&#xfc;" horiz-adv-x="525" d="M480 608h-92l22 103h92zM316 608h-92l22 103h92zM444 0h-85l17 79q-37 -45 -92.5 -71t-110.5 -26q-70 0 -105 39t-35 104q0 19 1 30t6 31l73 345h90l-69 -326q-6 -24 -6 -50q0 -42 19.5 -69t62.5 -27q69 0 128 60q54 55 69 126l61 286h89z" />
<glyph unicode="&#xfd;" horiz-adv-x="555" d="M411 608h-69l59 275h69zM606 531l-339 -591q-36 -60 -77 -96q-52 -45 -108 -45q-29 0 -53 9l18 85q3 -1 18.5 -4.5t30.5 -3.5q34 0 60 33q8 10 38 63l-81 550h99l56 -430l240 430h98z" />
<glyph unicode="&#xff;" horiz-adv-x="90" d="M34 2q-1 -7 -8 -7q-6 0 -6 5q2 -3 7 -3q5 2 5 5l-5 -2q-6 0 -5 7t8 7l4 -3l1 3zM27 1q5 0 7 5v3q0 3 -4 3q-5 0 -7 -5.5t4 -5.5zM19 0l1 16l-10 -16l-5 16l-3 -16l2 18l7 -15l9 15z" />
<glyph unicode="&#x152;" horiz-adv-x="1329" d="M1291 0h-530l156 729h522l-19 -89h-422l-47 -219h388l-18 -85h-388l-53 -246h430zM510 750q131 0 203 -81q67 -76 67 -201q0 -46 -11 -99q-35 -162 -147 -271q-121 -117 -279 -117q-133 0 -207 81q-69 75 -69 201q0 47 11 100q34 163 149 271q123 116 283 116zM361 70 q114 0 201 92q78 82 103 201q9 41 9 80q0 93 -44 150q-50 64 -144 64q-114 0 -202 -92q-79 -83 -104 -202q-9 -42 -9 -82q0 -93 45 -149q50 -62 145 -62z" />
<glyph unicode="&#x153;" horiz-adv-x="1176" d="M1155 235h-413q-1 -8 -1.5 -15.5t-0.5 -17.5q0 -61 29 -98q33 -42 94 -42q52 0 99.5 32t70.5 83h98q-38 -89 -116.5 -142.5t-169.5 -53.5q-99 0 -152.5 58t-53.5 152q0 31 8 71q25 119 111 201q92 88 209 88q100 0 152 -66q47 -59 47 -157q0 -20 -3 -45t-8 -48zM1072 309 q1 7 1 20q0 60 -33 99.5t-93 39.5q-65 0 -118 -48q-47 -43 -71 -111h314zM253 -18q-99 0 -151.5 58t-52.5 152q0 33 8 73q25 119 109 198q90 85 208 85q98 0 153 -61q51 -57 51 -151q0 -33 -8 -71q-26 -120 -110 -199q-89 -84 -207 -84zM270 61q78 0 137 65q52 58 70 140 q6 29 6 58q0 64 -29 102q-33 43 -97 43q-77 0 -135 -65q-50 -56 -68 -138q-3 -15 -5 -30t-2 -29q0 -64 28 -102q32 -44 95 -44z" />
<glyph unicode="&#x178;" horiz-adv-x="638" d="M597 810h-92l22 103h92zM433 810h-92l22 103h92zM746 729l-335 -429l-64 -300h-101l64 300l-154 429h101l121 -345l267 345h101z" />
<glyph unicode="&#x2c6;" d="M550 556h-60l-62 114l-109 -114h-61l133 173h98z" />
<glyph unicode="&#x2dc;" horiz-adv-x="270" d="M358 271q-19 -91 -70 -147q-59 -64 -147 -64q-66 0 -123 69t-102 69q-54 0 -88 -44q-27 -35 -40 -94h-75q19 90 70 146q59 65 146 65q69 0 124.5 -69.5t103.5 -69.5q56 0 89 45q25 34 37 94h75z" />
<glyph unicode="&#x2000;" horiz-adv-x="542" />
<glyph unicode="&#x2001;" horiz-adv-x="1085" />
<glyph unicode="&#x2002;" horiz-adv-x="542" />
<glyph unicode="&#x2003;" horiz-adv-x="1085" />
<glyph unicode="&#x2004;" horiz-adv-x="361" />
<glyph unicode="&#x2005;" horiz-adv-x="271" />
<glyph unicode="&#x2006;" horiz-adv-x="180" />
<glyph unicode="&#x2007;" horiz-adv-x="180" />
<glyph unicode="&#x2008;" horiz-adv-x="135" />
<glyph unicode="&#x2009;" horiz-adv-x="217" />
<glyph unicode="&#x200a;" horiz-adv-x="60" />
<glyph unicode="&#x2010;" horiz-adv-x="344" d="M302 228h-246l17 80h246z" />
<glyph unicode="&#x2011;" horiz-adv-x="344" d="M302 228h-246l17 80h246z" />
<glyph unicode="&#x2013;" horiz-adv-x="578" d="M560 241h-508l11 55h508z" />
<glyph unicode="&#x2014;" horiz-adv-x="748" d="M730 241h-678l11 55h678z" />
<glyph unicode="&#x2018;" horiz-adv-x="170" d="M204 482h-100l25 116q10 47 44.5 81.5t83.5 48.5l-10 -46q-31 -5 -51 -38q-15 -25 -22 -61h52z" />
<glyph unicode="&#x2019;" horiz-adv-x="170" d="M231 613q-10 -47 -44.5 -81.5t-83.5 -48.5l10 46q32 5 51 38q14 23 22 61h-52l22 101h100z" />
<glyph unicode="&#x201c;" horiz-adv-x="327" d="M354 482h-100l25 116q10 47 44.5 81.5t83.5 48.5l-10 -46q-31 -5 -51 -38q-15 -25 -22 -61h52zM204 482h-100l25 116q10 47 44.5 81.5t83.5 48.5l-10 -46q-31 -5 -51 -38q-15 -25 -22 -61h52z" />
<glyph unicode="&#x201d;" horiz-adv-x="327" d="M381 613q-10 -47 -44.5 -81.5t-83.5 -48.5l10 46q32 5 51 38q14 23 22 61h-52l22 101h100zM231 613q-10 -47 -44.5 -81.5t-83.5 -48.5l10 46q32 5 51 38q14 23 22 61h-52l22 101h100z" />
<glyph unicode="&#x201e;" horiz-adv-x="336" d="M260 -9q-11 -52 -45 -87t-87 -53l11 49q32 10 50 40q12 20 21 60h-50l23 109h102zM100 -9q-11 -52 -45 -87t-87 -53l11 49q32 10 50 40q12 20 21 60h-50l23 109h102z" />
<glyph unicode="&#x2022;" horiz-adv-x="558" d="M559 381q-21 -98 -106 -169t-184 -71t-154 70q-39 51 -39 118q0 12 1 25.5t4 26.5q21 98 106 168.5t184 70.5q101 0 154 -71q40 -52 40 -117q0 -24 -6 -51z" />
<glyph unicode="&#x2026;" horiz-adv-x="510" d="M442 0h-102l23 109h102zM272 0h-102l23 109h102zM102 0h-102l23 109h102z" />
<glyph unicode="&#x202f;" horiz-adv-x="217" />
<glyph unicode="&#x2039;" d="M563 30l-492 241l14 64l595 240l-17 -77l-483 -195l400 -195z" />
<glyph unicode="&#x203a;" d="M615 271l-596 -241l17 78l483 195l-400 195l17 77l493 -240z" />
<glyph unicode="&#x205f;" horiz-adv-x="271" />
<glyph unicode="&#x2122;" horiz-adv-x="720" d="M426 685h-115l-69 -323h-50l69 321h-115l10 45h280zM720 362h-48l67 314l-169 -314h-47l-33 313l-67 -313h-46l79 366h72l32 -309l169 309h70z" />
</font>
</defs>
</svg>
