<?xml version="1.0" standalone="no"?>
<!DOCTYPE svg PUBLIC "-//W3C//DTD SVG 1.1//EN" "http://www.w3.org/Graphics/SVG/1.1/DTD/svg11.dtd" >
<svg xmlns="http://www.w3.org/2000/svg">
<metadata>
This is a custom SVG webfont generated by Font Squirrel.
Foundry     : Magenta Ltd.
Foundry URL : http://www.magenta.gr/
</metadata>
<defs>
<font id="webfontH4MTzWfG" horiz-adv-x="539" >
<font-face units-per-em="1000" ascent="800" descent="-200" />
<missing-glyph horiz-adv-x="270" />
<glyph unicode=" "  horiz-adv-x="270" />
<glyph unicode="&#x09;" horiz-adv-x="270" />
<glyph unicode="&#xa0;" horiz-adv-x="270" />
<glyph unicode="!" horiz-adv-x="321" d="M108 -9q-27 0 -45 17t-18 44q0 24 18 42t42 18q26 0 43.5 -17.5t17.5 -43.5q0 -14 -9.5 -37t-48.5 -23zM157 595q0 33 14 59.5t44 26.5q22 0 38 -12t16 -32q0 -15 -6 -34.5t-11 -37.5l-117 -386l-27 2z" />
<glyph unicode="&#x22;" horiz-adv-x="274" d="M95 423h-48v266h48v-266zM227 423h-49v266h49v-266z" />
<glyph unicode="#" horiz-adv-x="756" d="M359 466h127l84 233h61l-82 -233h151l-18 -50h-152l-47 -134h162l-16 -51h-165l-81 -231h-62l82 231h-128l-83 -231h-61l82 231h-157l17 51h159l46 134h-168l17 50h169l83 233h61zM340 416l-46 -135h128l46 135h-128z" />
<glyph unicode="$" d="M55 128l12 -2q17 -48 46 -73.5t77 -25.5l55 276q-68 27 -110 62.5t-42 94.5q0 85 65.5 135.5t155.5 60.5l4 32q2 15 2 29q11 -3 27 -4t17 -1q-4 -9 -8 -27l-8 -31q37 0 75 -12.5t67 -34.5q-22 -33 -34 -72h-12q-8 33 -36 51t-69 27l-46 -245q79 -35 122 -69.5t43 -96.5 q0 -97 -71.5 -156t-169.5 -59q-5 -23 -9 -47t-4 -45l-28 3l-16 -2q6 17 12.5 43.5t10.5 48.5q-44 0 -84 14t-82 42q15 23 24 42t14 42zM373 172q0 41 -26.5 70t-70.5 48l-52 -267q60 0 104.5 43.5t44.5 105.5zM307 616q-55 0 -96 -35t-41 -90q0 -39 25.5 -66.5t64.5 -41.5z " />
<glyph unicode="%" horiz-adv-x="774" d="M352 527q0 -75 -53 -130t-129 -55q-60 0 -98 37t-38 98q0 73 54 126t127 53q55 0 89 -29.5t47 -84.5zM728 166q0 -75 -53 -127t-129 -52q-58 0 -95.5 35.5t-37.5 93.5q0 73 53.5 126.5t127.5 53.5q53 0 89.5 -30.5t43.5 -82.5zM146 -90h-59l521 821h58zM485 86 q0 -32 16.5 -53t47.5 -21q52 0 78 57t26 115q0 36 -13 60t-50 24q-48 0 -73.5 -49t-30.5 -106zM108 452q0 -31 16 -56.5t45 -25.5q54 0 80 56t26 117q0 36 -14.5 59.5t-48.5 23.5q-49 0 -73.5 -48.5t-29.5 -105.5z" />
<glyph unicode="&#x26;" horiz-adv-x="674" d="M175 520q0 68 52.5 113.5t123.5 45.5q52 0 89.5 -30.5t37.5 -81.5q0 -59 -45.5 -98.5t-120.5 -79.5q34 -54 66 -99l91 -125q39 37 66 85t43 105h10q2 -10 11.5 -27t19.5 -30q-17 -43 -49 -83t-77 -82l58 -74l49 -60q-31 3 -62 7q-11 0 -23.5 -1.5t-30.5 -5.5 q-13 19 -22 33.5t-31 43.5q-53 -42 -108 -65.5t-116 -23.5q-75 0 -128.5 45t-53.5 119q0 81 53 134t143 101q-21 31 -33.5 65.5t-12.5 68.5zM416 564q0 32 -20 56t-52 24q-38 0 -67 -31t-29 -69q0 -25 9 -52.5t38 -72.5q57 35 89 66t32 79zM355 192l-117 163 q-55 -31 -88 -68t-38 -92q0 -64 41 -108t105 -44q40 0 76.5 17t75.5 48z" />
<glyph unicode="'" horiz-adv-x="270" d="M184 631q8 24 21.5 37.5t37.5 13.5q19 0 29.5 -7t10.5 -25q0 -13 -6.5 -26.5t-16.5 -26.5l-160 -206l-20 9z" />
<glyph unicode="(" horiz-adv-x="268" d="M100 169q0 -149 77 -267l-29 -14q-55 76 -84.5 155.5t-29.5 166.5q0 146 74 268.5t201 214.5l24 -19q-113 -93 -173 -224.5t-60 -280.5z" />
<glyph unicode=")" horiz-adv-x="268" d="M149 412q0 70 -20.5 140t-57.5 127l30 14q54 -74 83 -154.5t29 -167.5q0 -146 -73 -269t-199 -214l-24 20q113 87 172.5 221t59.5 283z" />
<glyph unicode="*" horiz-adv-x="486" d="M247 480q-67 -28 -129 -67q-3 19 -9.5 38.5t-17.5 35.5q78 9 145 27q-28 21 -54.5 37.5t-70.5 40.5q30 23 51 59q16 -22 37.5 -48.5t58.5 -62.5q5 34 7 72.5t2 75.5q8 -5 30.5 -10.5t43.5 -5.5q-15 -34 -27.5 -69t-19.5 -68q34 11 57.5 23.5t75.5 42.5q0 -37 25 -75 q-46 -5 -79 -10.5t-68 -16.5q26 -20 59 -41t66 -38q-9 -5 -28 -26.5t-25 -32.5q-47 65 -95 113q-4 -21 -6 -41t-2 -44v-32q0 -16 2 -31q-20 9 -28.5 11.5t-22.5 2.5h-25q11 28 22.5 62.5t24.5 77.5z" />
<glyph unicode="+" horiz-adv-x="820" d="M434 316h264v-46h-264v-270h-48v270h-264v46h264v270h48v-270z" />
<glyph unicode="," horiz-adv-x="270" d="M55 66q14 29 24.5 41t34.5 12q19 0 29.5 -7t10.5 -25q0 -11 -3 -18.5t-20 -36.5l-159 -205l-21 11z" />
<glyph unicode="-" horiz-adv-x="321" d="M30 281q20 0 61 -2t62 -2q20 0 60 2t61 2q-6 -16 -10.5 -38t-7.5 -47q-28 0 -71 2.5t-50 2.5q-26 0 -70 -2.5t-54 -2.5q8 23 11.5 39.5t7.5 45.5z" />
<glyph unicode="." horiz-adv-x="270" d="M86 114q26 0 43 -17t17 -43t-17 -43t-43 -17t-43.5 17.5t-17.5 44.5q0 7 2 11.5t9.5 25.5t49.5 21z" />
<glyph unicode="/" horiz-adv-x="276" d="M294 738l-266 -829h-53l266 829h53z" />
<glyph unicode="0" d="M311 655q101 0 149 -68.5t48 -173.5q0 -155 -72.5 -290.5t-213.5 -135.5q-106 0 -153.5 67.5t-47.5 179.5q0 28 3.5 58.5t19.5 106.5t86.5 166t180.5 90zM105 191q0 -69 26 -118.5t88 -49.5q75 0 119.5 75t64 177t19.5 176q0 68 -26 117.5t-87 49.5q-101 0 -135 -96 t-47.5 -167.5t-17.5 -99.5t-4 -64z" />
<glyph unicode="1" d="M302 571q-80 -36 -108.5 -50t-72.5 -42q-1 15 -3.5 30t-7.5 30q70 24 145 55.5t143 64.5l14 -14q-80 -314 -133 -645q-8 0 -25 3t-27 3t-23.5 -2t-25.5 -4q35 144 67 289t57 282z" />
<glyph unicode="2" d="M229 71q31 0 102.5 5.5t93.5 5.5q-10 -30 -10 -56l1 -26l-203 5q-50 0 -127.5 -2.5t-89.5 -2.5l4 37l162 136q85 73 147 157.5t62 166.5q0 50 -28.5 84t-78.5 34q-45 0 -76 -27.5t-47 -73.5h-16q-4 14 -12.5 29t-19.5 29q78 83 187 83q82 0 136 -43.5t54 -124.5 q0 -78 -60.5 -152.5t-147.5 -140.5l-163 -123h130z" />
<glyph unicode="3" d="M30 111l10 -6q16 -38 52.5 -58t81.5 -20q77 0 131.5 49.5t54.5 126.5q0 48 -27.5 82.5t-75.5 34.5q-14 0 -32 -3l-35 -6l9 53q11 -2 21 -2h19q63 0 106 44t43 107q0 46 -29 75t-76 29q-45 0 -77 -25t-48 -70h-10q-3 15 -7.5 28.5t-18.5 41.5q81 64 177 64q70 0 122 -37 t52 -105q0 -53 -35.5 -94.5t-136.5 -74.5q67 -9 109.5 -42.5t42.5 -97.5q0 -98 -87.5 -158t-191.5 -60q-45 0 -91 7.5t-81 23.5q6 25 13 47z" />
<glyph unicode="4" d="M292 183q-50 0 -139 -3t-139 -3l7 38l109 123l172 192l110 125q4 -1 13 -2.5t18 -2.5l37 3l-40 -151q-15 -58 -32 -135l-25 -124q20 0 54.5 2t52.5 4q-16 -25 -16 -48l2 -25q-25 0 -63 2.5t-42 2.5q-13 -54 -20.5 -97.5t-7.5 -83.5l-46 5q-11 0 -30 -2.5t-23 -2.5 q12 39 24 85zM306 243q20 75 47 188l30 126l-104 -110l-115 -131l-65 -76z" />
<glyph unicode="5" d="M272 397q72 0 121.5 -46.5t49.5 -118.5q0 -105 -83.5 -175t-190.5 -70q-40 0 -81 10.5t-84 29.5q11 47 26 88l7 -2q21 -41 47 -63.5t67 -22.5q82 0 136.5 54.5t54.5 135.5q0 57 -31.5 96.5t-87.5 39.5q-22 0 -50 -11.5t-52 -28.5l-19 13q16 67 31 152t25 161l156 -2 l171 2q-6 -19 -9 -42.5t-3 -43.5q-35 0 -104 4t-102 4l-67 -1l-39 -187q51 24 111 24z" />
<glyph unicode="6" d="M395 613q-105 0 -172.5 -90.5t-88.5 -206.5q35 37 77.5 58t90.5 21q73 0 124.5 -48.5t51.5 -121.5q0 -99 -69.5 -168.5t-169.5 -69.5q-101 0 -151.5 62t-50.5 165q0 163 97 300.5t253 137.5q20 0 29 -1t42 -7l9 -47q-31 16 -72 16zM117 166q0 -57 30 -100t85 -43 q73 0 115.5 59t42.5 136q0 53 -33.5 90.5t-86.5 37.5q-56 0 -97.5 -41t-50.5 -97q-5 -19 -5 -42z" />
<glyph unicode="7" d="M443 559l-220 -3l-123 -6q10 18 14 30.5t4 28.5v30l190 -2l233 2v-27l-35 -49q-11 -15 -27 -40l-147 -226q-51 -78 -92 -150t-76 -147q-12 0 -27 3t-27 3t-26 -3t-27 -3q69 77 128 160.5t129 193.5z" />
<glyph unicode="8" d="M115 494q0 75 63.5 118.5t141.5 43.5q68 0 121.5 -33t53.5 -97t-45 -106t-113 -58q59 -7 97.5 -51.5t38.5 -103.5q0 -97 -73 -158.5t-173 -61.5q-86 0 -147 45.5t-61 128.5q0 82 58 136t143 70q-47 12 -76 45.5t-29 81.5zM195 486q0 -47 26 -78t73 -31q53 0 84.5 42 t31.5 98q0 45 -25.5 73.5t-70.5 28.5q-43 0 -74.5 -30.5t-39.5 -74.5q-3 -9 -5 -28zM110 152q0 -56 31 -92t86 -36q74 0 116 61t42 139q0 52 -32 84t-83 32q-57 0 -100.5 -41.5t-51.5 -80.5t-8 -66z" />
<glyph unicode="9" d="M39 95q24 -31 51 -49t61 -18q99 0 155 86t77 202q-32 -33 -69 -49.5t-82 -16.5q-77 0 -126.5 50.5t-49.5 127.5q0 95 70.5 161.5t167.5 66.5q95 0 148 -61.5t53 -158.5q0 -166 -95.5 -307.5t-251.5 -141.5q-23 0 -47 4t-50 9q-7 23 -12 46t-9 47zM150 427q0 -54 30 -90.5 t83 -36.5q69 0 109.5 53.5t40.5 124.5q0 60 -30.5 100t-89.5 40q-50 0 -88.5 -43.5t-45.5 -79t-8 -43.5t-1 -25z" />
<glyph unicode=":" horiz-adv-x="307" d="M98 114q26 0 43 -17t17 -43t-17 -43t-43 -17q-25 0 -43 18t-18 44q0 7 2 11.5t6 14.5t19 21t34 11zM172 465q24 0 42 -18t18 -42q0 -23 -18 -42t-42 -19t-42 17t-18 42l3 24q7 18 22 28t35 10z" />
<glyph unicode=";" horiz-adv-x="307" d="M166 464q25 0 43 -18t18 -42t-18.5 -42.5t-42.5 -18.5q-25 0 -42 18t-17 43q0 13 9.5 36.5t49.5 23.5zM69 66q14 30 24 41.5t35 11.5q20 0 30.5 -7t10.5 -25q0 -12 -5.5 -23.5t-18.5 -31.5l-158 -205l-21 11z" />
<glyph unicode="&#x3c;" horiz-adv-x="820" d="M202 294l490 -201v-52l-565 233v39l565 232v-53z" />
<glyph unicode="=" horiz-adv-x="820" d="M698 359h-576v47h576v-47zM698 179h-576v48h576v-48z" />
<glyph unicode="&#x3e;" horiz-adv-x="820" d="M693 274l-566 -233v52l491 201l-491 198v53l566 -232v-39z" />
<glyph unicode="?" horiz-adv-x="432" d="M155 112q41 0 49.5 -22t9.5 -27t1 -13t-1 -13t-5.5 -15t-21 -20.5t-35.5 -10.5q-23 0 -40.5 16.5t-17.5 43.5q0 13 10.5 37t50.5 24zM230 168q-52 0 -87.5 31.5t-35.5 83.5q0 59 54 107l100 75q55 48 55 105q0 32 -21.5 53.5t-54.5 21.5q-24 0 -43.5 -11.5t-43.5 -33.5 l-12 2l4 34l-1 31q44 15 99 15q63 0 106.5 -36.5t43.5 -98.5q0 -71 -54 -122l-107 -78q-56 -40 -61 -85q0 -28 17 -41.5t45 -13.5q14 0 25 4l-12 -42z" />
<glyph unicode="@" horiz-adv-x="983" d="M651 460h47l-67 -268l-10 -44q0 -24 16 -34.5t41 -10.5q86 0 140.5 87.5t54.5 179.5q0 131 -103.5 208.5t-239.5 77.5q-173 0 -295.5 -112t-122.5 -283q0 -162 106.5 -258.5t270.5 -96.5q79 0 161.5 23.5t145.5 67.5l18 -27q-69 -50 -149.5 -77t-165.5 -27 q-183 0 -313 103.5t-130 283.5q0 190 141 318t334 128q155 0 275.5 -91t120.5 -242q0 -116 -73 -211t-185 -95q-37 0 -68 15t-31 48l1 24q-22 -40 -60.5 -64t-81.5 -24q-74 0 -112.5 41.5t-38.5 116.5q0 100 62 181t158 81q45 0 76.5 -19t47.5 -59zM611 344 q-10 41 -37.5 67.5t-68.5 26.5q-79 0 -124 -70.5t-45 -153.5q0 -48 26.5 -81t73.5 -33q53 0 91.5 35.5t53.5 89.5z" />
<glyph unicode="A" horiz-adv-x="582" d="M357 688l21 -6l24 6q36 -226 48 -296t36 -177.5t59 -214.5q-11 0 -31 2.5t-26 2.5q-21 0 -36 -2t-25 -3q0 58 -13 134l-21 118l-112 3l-113 -3l-55 -98l-43 -76l-41 -78q-11 0 -28 2.5t-19 2.5q-15 0 -27 -2t-19 -3q112 157 232 350t189 338zM281 300l101 3l-47 245 l-143 -245z" />
<glyph unicode="B" horiz-adv-x="547" d="M146 671l73 -3q18 0 62 2t47 2q77 0 133 -32.5t56 -103.5q0 -79 -56.5 -120.5t-144.5 -56.5q76 -7 124.5 -42.5t48.5 -106.5q0 -96 -76.5 -153t-175.5 -57l-143 3l-85 -2q43 144 77 316.5t60 353.5zM427 524q0 53 -33 84t-86 31q-16 0 -36 -2t-37 -4q-13 -48 -29 -122.5 t-27 -135.5q105 0 176.5 29t71.5 120zM187 39q82 0 145 43t63 121q0 66 -44.5 100t-113.5 34l-65 -1q-19 -87 -32 -154t-22 -139l43 -3q14 -1 26 -1z" />
<glyph unicode="C" horiz-adv-x="631" d="M439 640q-138 0 -222.5 -102t-84.5 -242q0 -115 53.5 -190t165.5 -75q64 0 119.5 27t111.5 76l8 -9q-10 -20 -18 -44.5t-13 -49.5q-53 -21 -106.5 -32.5t-107.5 -11.5q-52 0 -112 13q-96 26 -149 106.5t-53 183.5q0 163 120.5 279.5t284.5 116.5q57 0 116 -13t108 -37 q-11 -17 -20.5 -41.5t-13.5 -46.5h-13q-60 92 -174 92z" />
<glyph unicode="D" horiz-adv-x="728" d="M141 671l71 -1l176 2q141 0 224.5 -72t83.5 -212q0 -186 -134.5 -287t-326.5 -101l-152 3l-75 -2q37 127 63 230.5t48 228.5t22 211zM215 45q162 0 272 93.5t110 252.5q0 110 -62 174t-173 64q-21 0 -71.5 -2t-53.5 -2q-33 -102 -66.5 -270t-51.5 -304q16 0 48 -3t48 -3z " />
<glyph unicode="E" horiz-adv-x="466" d="M147 671l169 -3l154 3q-15 -32 -15 -61q-29 5 -57 7t-61 2h-101q-9 -27 -19 -73l-15 -68l-20 -96h85q50 0 74.5 1t70.5 7q-12 -29 -12 -65q-27 4 -61.5 7t-63.5 3h-102l-23 -111q-8 -37 -15.5 -80.5t-14.5 -89.5q103 0 156.5 2.5t100.5 8.5q-5 -13 -7.5 -23.5t-2.5 -21.5 l1 -20l-224 6q-68 0 -134 -6q37 119 78.5 325t58.5 346z" />
<glyph unicode="F" horiz-adv-x="446" d="M147 671l180 -3l154 3q-11 -27 -17 -61q-28 5 -55 7t-61 2h-109q-10 -29 -18.5 -64t-16.5 -76l-19 -97h87q58 0 80 1.5t64 6.5q-6 -14 -8.5 -28.5t-4.5 -34.5q-31 4 -59.5 6t-63.5 2h-104l-24 -112q-3 -18 -19.5 -95t-16.5 -128l-31 4q-13 1 -22 1q-11 0 -30 -2.5 t-23 -2.5q46 157 78.5 321t58.5 350z" />
<glyph unicode="G" horiz-adv-x="707" d="M436 640q-132 0 -213.5 -104.5t-81.5 -239.5q0 -121 59 -194.5t177 -73.5q39 0 62.5 5.5t63.5 16.5q23 94 32.5 142t14.5 92q30 -10 56 -10q12 0 22.5 2t30.5 8q-21 -68 -37.5 -134t-26.5 -131l-228 -32q-41 0 -59 1.5t-85.5 13.5t-126 94t-58.5 185q0 176 117.5 290.5 t293.5 114.5q61 0 120 -15.5t125 -44.5l-18 -24q-7 -8 -13.5 -24t-11.5 -30l-12 -1q-42 46 -92 69.5t-111 23.5z" />
<glyph unicode="H" horiz-adv-x="728" d="M147 671l50 -4q10 0 32.5 2t23.5 2q-13 -40 -22 -78t-45 -209l180 -3l195 3l22 109q13 55 20.5 96.5t7.5 81.5q15 -2 30.5 -3.5t19.5 -1.5q18 0 30.5 1.5t27.5 3.5q-48 -147 -82 -318t-56 -353l-51 4q-9 0 -27 -2t-28 -2l27 103q11 44 22 100l27 131l-187 1l-188 -1 l-23 -110q-20 -106 -36 -224q-10 1 -27 3t-25 2q-12 0 -31.5 -2.5t-23.5 -2.5q40 133 77.5 320.5t59.5 350.5z" />
<glyph unicode="I" horiz-adv-x="277" d="M124 0l-52 4q-24 0 -37.5 -2t-20.5 -2q48 179 84 347.5t54 323.5q14 -2 26 -3t29 -1q22 0 35 2t19 2q-47 -158 -81 -327.5t-56 -343.5z" />
<glyph unicode="J" horiz-adv-x="277" d="M173 254l-22 -127q-23 -135 -80 -209t-179 -74l-4 40q38 0 69 15.5t49 47.5q30 40 61 183.5t52.5 289t32.5 251.5l34 -3q11 -1 21 -1q13 0 29.5 1.5t25.5 2.5q-28 -111 -50 -212t-39 -205z" />
<glyph unicode="K" horiz-adv-x="538" d="M195 360q27 22 55 49l43 42l84 87q30 30 58 61.5t60 71.5l47 -4l60 4l-48 -39q-22 -18 -58 -50l-73 -68l-155 -148l125 -188l75 -115l37 -50v-13q-13 0 -33 2.5t-22 2.5q-19 0 -30 -1l-26 -4l-74 124l-67 107l-66 96h-13l-21 -103q-20 -106 -36 -224q-10 1 -27 3t-25 2 q-12 0 -31.5 -2.5t-23.5 -2.5q49 169 83 334t54 337l50 -4q10 0 32.5 2t23.5 2q-28 -87 -47 -192l-24 -116z" />
<glyph unicode="L" horiz-adv-x="432" d="M147 671q12 -2 23.5 -3t28.5 -1q12 0 27.5 1.5t23.5 2.5q-37 -121 -76.5 -309.5t-51.5 -307.5q73 0 136 3t134 11q-13 -24 -13 -48l2 -20l-233 6q-69 0 -138 -6q48 163 84.5 338t52.5 333z" />
<glyph unicode="M" horiz-adv-x="841" d="M154 671q8 0 27.5 -2t20.5 -2q11 0 25 1.5t22 2.5q3 -18 8 -41l10 -43l53 -199l68 -253l177 274l163 262l42 -4q12 0 26 1l24 3q-37 -130 -74.5 -331.5t-50.5 -339.5q-13 0 -33 2.5t-23 2.5q-11 0 -31 -2.5t-26 -2.5q18 63 34.5 127t30.5 134l59 287l-223 -354l-56 -89 q-11 -17 -26 -44l-34 -61h-33l-50 182l-50 182l-51 181l-44 -213q-16 -80 -32 -170.5t-25 -161.5l-39 4q-6 0 -20 -2t-22 -2q48 159 89.5 337.5t63.5 333.5z" />
<glyph unicode="N" horiz-adv-x="721" d="M49 182l42 181q22 87 36 162t23 155q15 -5 20 -5q3 0 10 2t11 3l107 -166l116 -172l135 -192l59 300q10 48 20 109.5t16 111.5l35 -4q11 0 22.5 1.5t18.5 2.5q-47 -174 -83 -339.5t-64 -340.5q-2 1 -8 2.5t-11 2.5q-12 -2 -17 -5q-75 124 -155 236l-206 290l-47 -220 q-15 -73 -28.5 -150.5t-22.5 -146.5q-8 0 -21.5 2.5t-16.5 2.5q-10 0 -22 -2.5t-16 -2.5z" />
<glyph unicode="O" horiz-adv-x="794" d="M443 686q135 0 227.5 -76t92.5 -210q0 -171 -120 -292t-291 -121q-140 0 -230.5 77t-90.5 215q0 38 19.5 133t132.5 184.5t260 89.5zM436 639q-136 0 -219.5 -109.5t-83.5 -251.5q0 -108 59 -177.5t165 -69.5q136 0 220.5 105.5t84.5 244.5q0 48 -7 87.5t-30.5 81 t-75 65.5t-113.5 24z" />
<glyph unicode="P" horiz-adv-x="512" d="M147 671l58 -3q25 0 67.5 2.5t51.5 2.5q80 0 138 -41.5t58 -118.5q0 -74 -49 -129t-106.5 -66t-105 -14t-91.5 -3l-30 -159q-15 -85 -22 -142l-31 4q-13 1 -22 1q-11 0 -30 -2.5t-23 -2.5q49 166 84 335t53 336zM421 504q0 60 -39 93t-101 33l-41 -3q-40 -144 -64 -285 q108 0 176.5 33.5t68.5 128.5z" />
<glyph unicode="Q" horiz-adv-x="794" d="M231 5q-95 25 -146.5 102.5t-51.5 179.5q0 164 119.5 281.5t283.5 117.5q143 0 236 -79.5t93 -221.5q0 -104 -53 -196t-142 -146q-27 -14 -60 -25.5t-74 -22.5q67 -17 147 -33.5t143 -26.5v-6q-10 -14 -18 -32.5t-13 -36.5l-209 81q-68 25 -155 47q-47 4 -100 17z M134 298q0 -117 54.5 -191.5t167.5 -74.5q138 0 223 108t85 249q0 105 -62 178.5t-166 73.5q-116 0 -193.5 -80t-90.5 -149t-15.5 -86.5t-2.5 -27.5z" />
<glyph unicode="R" horiz-adv-x="546" d="M147 671l73 -3l112 3q81 0 142.5 -36t61.5 -112q0 -92 -67 -136t-171 -57q106 -179 211 -330l-48 3q-15 0 -33 -2l-36 -4l-114 196l-81 133h-24l-21 -103q-3 -18 -19.5 -95t-16.5 -128l-31 4q-13 1 -22 1q-11 0 -30 -2.5t-23 -2.5q46 157 78.5 321t58.5 350zM442 516 q0 59 -41.5 86.5t-104.5 27.5l-55 -4q-17 -59 -33 -129.5t-28 -135.5q113 0 187.5 30t74.5 125z" />
<glyph unicode="S" horiz-adv-x="472" d="M11 152h17q15 -54 53.5 -86.5t94.5 -32.5q66 0 112.5 42.5t46.5 108.5q0 65 -68 111l-126 75q-69 50 -69 124q0 87 69 137t160 50q54 0 97 -11t82 -39q-10 -18 -19 -40.5t-13 -42.5l-13 2q-24 44 -59 69.5t-82 25.5q-57 0 -96 -34t-39 -91q0 -60 65 -102l128 -80 q68 -52 68 -125q0 -100 -76 -161.5t-178 -61.5q-51 0 -104 17t-87 49q26 44 36 96z" />
<glyph unicode="T" horiz-adv-x="482" d="M258 617q-70 0 -115 -1.5t-94 -7.5q3 7 7 30.5t4 32.5q36 0 109 -3.5t99 -3.5q49 0 149 3.5t137 3.5l-8 -21q-4 -11 -4 -20l-1 -10l1 -12q-35 5 -87.5 7t-98.5 2q-43 -165 -75 -322t-46 -295q-14 1 -26.5 2.5t-28.5 1.5q-14 0 -29.5 -1.5t-24.5 -2.5q38 133 71 291.5 t61 325.5z" />
<glyph unicode="U" horiz-adv-x="714" d="M192 667q11 0 31 2t29 2l-53 -173q-20 -67 -34 -139t-14 -143l-1 -17l1 -26q0 -65 52 -101t121 -36q57 0 105 23t80.5 73.5t57.5 146.5t40.5 202t22.5 190l22 -3q8 -1 20 -1q10 0 22.5 1.5t19.5 2.5q-38 -150 -67 -290.5t-56.5 -215t-94 -125.5t-189.5 -51 q-104 0 -178.5 44.5t-74.5 143.5q0 26 3 43t20.5 96t36.5 177t29 178z" />
<glyph unicode="V" horiz-adv-x="533" d="M35 671q8 0 31 -2t25 -2q9 0 30.5 2t22.5 2q8 -73 18 -141l26 -167l44 -247l143 268q42 78 74.5 145.5t61.5 141.5l41 -4q12 0 27 1.5t23 2.5l-102 -173l-106 -186l-85 -158l-78 -154l-25 4h-26q-10 -3 -17 -4q-10 110 -28 214.5t-39 199.5z" />
<glyph unicode="W" horiz-adv-x="849" d="M51 671l49 -4q9 0 27 2t27 2q0 -67 4.5 -126.5t14.5 -141.5l30 -259l131 268q62 129 118 259l37 -4q7 0 21 2t23 2q0 -84 8 -169.5t22 -181.5l28 -186l115 248q65 136 116 289l38 -4q13 0 28.5 1.5t24.5 2.5l-50 -82l-64 -133l-99 -201l-56 -118l-62 -137l-30 4 q-14 0 -22 -2t-12 -2q-13 136 -28.5 265t-36.5 276l-143 -285q-64 -134 -111 -256q-15 2 -30 5q-6 0 -14.5 -1.5t-18.5 -3.5q-34 346 -85 671z" />
<glyph unicode="X" horiz-adv-x="503" d="M111 207l106 128l-85 178l-42 89l-39 69l56 -4q24 0 37.5 2t20.5 2q12 -36 29 -77l29 -69l52 -120l81 112q56 74 106 154l45 -4q24 0 37.5 2t20.5 2q-43 -41 -79 -81l-83 -93l-109 -132l100 -220q33 -74 71 -145l-43 4l-73 -4q-12 40 -21.5 66.5t-27.5 68.5l-64 155 l-108 -148q-22 -29 -42 -59l-54 -83l-42 4q-15 0 -23 -0.5t-36 -3.5l80 88z" />
<glyph unicode="Y" horiz-adv-x="480" d="M184 274l-58 146l-46 114l-58 137q24 -3 30.5 -3.5t24.5 -0.5q9 0 31.5 2t24.5 2q20 -73 34 -114.5t88 -232.5l106 162l55 90q29 50 51 95l42 -4q21 0 32.5 2t18.5 2l-77 -99l-67 -94l-141 -199l-22 -109q-16 -85 -24 -170q-13 1 -29.5 3t-25.5 2q-18 0 -30 -1l-25 -4 q21 65 37 144z" />
<glyph unicode="Z" horiz-adv-x="565" d="M-19 17l243 306l225 300l-122 -2q-54 0 -105 -4.5t-121 -12.5q6 17 8.5 29t5.5 38q33 0 112 -2t85 -2l77 1l198 3v-12l-149 -190l-142 -185l-175 -232l117 2q67 0 122.5 4t176.5 15q-7 -12 -12.5 -32.5t-7.5 -40.5q-56 0 -167 3t-167 3q-51 0 -97.5 -0.5t-104.5 -5.5v17z " />
<glyph unicode="[" horiz-adv-x="268" d="M108 -64l35 2l-9 -36l-69 1l-70 -1q82 376 157 776l66 -2l66 2l-7 -39l-41 3l-23 -1l-43 -201l-48 -244l-51 -258z" />
<glyph unicode="\" horiz-adv-x="276" d="M173 -91l-133 829h52l132 -829h-51z" />
<glyph unicode="]" horiz-adv-x="268" d="M144 644l-35 -2l6 37l71 -1l70 1l-45 -214l-61 -302l-51 -261l-66 1l-66 -1l6 38l40 -3l23 1l40 189l56 282l46 233z" />
<glyph unicode="^" horiz-adv-x="241" d="M254 536l-79 103l-121 -103h-48l149 168h55l80 -168h-36z" />
<glyph unicode="_" horiz-adv-x="492" d="M492 -233h-492v49h492v-49z" />
<glyph unicode="`" horiz-adv-x="270" d="M180 444q-6 -22 -21.5 -37.5t-37.5 -15.5q-18 0 -29 5.5t-11 26.5q0 13 5.5 25t17.5 29l160 205l20 -9z" />
<glyph unicode="a" horiz-adv-x="461" d="M117 -10q-53 0 -89.5 31t-36.5 84q0 90 78 123l155 40q79 22 88 87q0 41 -22.5 65.5t-63.5 24.5q-86 0 -129 -77l-16 4q3 12 5 22.5t2 23.5l-1 25q43 21 73 31t66 10q65 0 114 -28t49 -89q0 -19 -4 -47t-9 -49l-32 -168l-6 -36q0 -9 9 -20t18 -12q7 0 15.5 2t18.5 5 l14 -25q-41 -25 -86 -25q-32 0 -47.5 19t-22.5 53q-33 -37 -65 -55.5t-75 -18.5zM73 116q0 -33 21 -54t54 -21q39 0 76.5 30t45.5 69l21 110q-113 -24 -165.5 -45.5t-52.5 -88.5z" />
<glyph unicode="b" horiz-adv-x="551" d="M124 633l19 105l25 -4q13 -3 23 -3q12 0 26 3t22 4q-24 -80 -50 -198t-30 -138q33 39 75 59.5t92 20.5q80 0 125 -57.5t45 -141.5q0 -118 -71.5 -206t-186.5 -88q-46 0 -84 16.5t-74 49.5q-29 -21 -55 -55h-33q25 93 48.5 202.5t41.5 203.5zM404 295q0 57 -26 97t-81 40 q-92 0 -136.5 -84.5t-44.5 -186.5q0 -54 29.5 -92t83.5 -38q66 0 108 55t52 106.5t12.5 67t2.5 35.5z" />
<glyph unicode="c" horiz-adv-x="451" d="M221 -11q-91 0 -151.5 58.5t-60.5 149.5q0 116 77.5 200.5t191.5 84.5q41 0 81 -10t83 -29q-10 -22 -16.5 -41.5t-10.5 -41.5h-16q-19 39 -48 61.5t-69 22.5q-87 0 -134 -81t-47 -175q0 -62 33 -108t93 -46q43 0 84.5 17t63.5 50l16 -11l-15 -32q-5 -12 -10 -31 q-68 -38 -145 -38z" />
<glyph unicode="d" horiz-adv-x="551" d="M184 -10q-80 0 -126 57.5t-46 139.5q0 115 72 205t185 90q46 0 86.5 -29t57.5 -73l23 109q8 39 22 117t22 132q17 -3 29.5 -5t19.5 -2q12 0 26.5 3t22.5 4q-53 -174 -90.5 -357.5t-64.5 -380.5l-42 2l-46 -2l20 68q-44 -39 -82.5 -58.5t-88.5 -19.5zM104 173 q0 -57 25 -96.5t81 -39.5q79 0 122 64t49.5 111.5t7.5 60t1 19.5q0 25 -0.5 31.5t-2.5 10.5q-7 42 -37 67t-73 25q-66 0 -108 -54t-51 -99t-11.5 -68t-2.5 -32z" />
<glyph unicode="e" horiz-adv-x="478" d="M103 170q0 -60 35.5 -98.5t94.5 -38.5q39 0 80 21.5t75 55.5l11 -11q-14 -31 -23 -64q-34 -22 -75.5 -35t-83.5 -13q-93 0 -151 57t-58 151q0 115 76 201t189 86q74 0 122 -54t48 -129q0 -10 -2 -34t-2 -25l-165 2l-166 -2q-3 -15 -4 -32.5t-1 -37.5zM234 279l119 1l3 47 q0 47 -23.5 82.5t-69.5 35.5q-59 0 -96 -49.5t-51 -115.5z" />
<glyph unicode="f" horiz-adv-x="275" d="M103 430h-61q-25 -3 -37 -4q7 17 9.5 24t5.5 22q23 -3 45.5 -5t44.5 -2q17 103 69 188t139 85q24 0 29 -1.5t23 -13.5q-5 -17 -8 -28.5t-13 -58.5l-7 -3q-10 12 -24.5 23t-39.5 15q-62 0 -76.5 -58.5t-14.5 -147.5l114 8q-3 -9 -4 -22t-1 -25q-20 0 -65.5 2t-48.5 2 l-33 -184q-11 -61 -22 -129t-11 -117l-50 3l-47 -3q23 101 45.5 216t38.5 214z" />
<glyph unicode="g" horiz-adv-x="459" d="M33 310q0 79 62 126t144 47q21 0 67.5 -11.5t62.5 -11.5q24 0 61.5 2.5t44.5 2.5q-4 -8 -8.5 -22.5t-6.5 -22.5q-23 2 -40.5 3t-42.5 1q19 -24 28.5 -44t9.5 -45q0 -80 -62.5 -123.5t-146.5 -43.5q-14 0 -44 5.5t-39 5.5q-18 0 -34 -18t-16 -37q0 -39 106.5 -52.5 t158.5 -31.5t52 -99q0 -93 -82 -150.5t-180 -57.5q-75 0 -134.5 38t-59.5 110q0 50 36 87t89 57q-29 9 -44 27t-15 48q7 35 32 57t66 40q-32 24 -48.5 50.5t-16.5 62.5zM330 348q0 44 -24.5 72.5t-68.5 28.5q-53 0 -85.5 -45t-32.5 -100q0 -41 22 -69.5t63 -28.5 q57 0 91.5 41.5t34.5 100.5zM1 -116q0 -53 40.5 -82t94.5 -29q68 0 120.5 38t52.5 103q0 81 -118 93q-76 4 -103 6q-40 -26 -63.5 -56.5t-23.5 -72.5z" />
<glyph unicode="h" horiz-adv-x="551" d="M139 738q14 -3 21 -4t22 -1q9 0 17.5 0.5t33.5 4.5q-11 -40 -28 -125.5t-19 -94.5l-25 -133q33 46 81 71.5t103 25.5q56 0 96 -33t40 -87q0 -67 -27 -201t-31 -161l-48 6q-10 0 -23 -2l-25 -4q30 95 47.5 178.5t17.5 159.5q0 38 -22.5 62.5t-60.5 24.5l-12 -1 q-86 -13 -126 -81t-52 -163.5t-21 -179.5q-8 0 -25.5 2.5t-21.5 2.5q-11 0 -28.5 -2.5t-19.5 -2.5q48 163 92 386.5t44 351.5z" />
<glyph unicode="i" horiz-adv-x="241" d="M93 472q27 -6 52 -6q27 0 51 6q-39 -130 -62 -247.5t-23 -224.5q-11 1 -26.5 3t-24.5 2q-18 0 -31.5 -2t-22.5 -3q38 130 62.5 251t24.5 221zM169 693q19 0 33 -14t14 -35q0 -20 -13.5 -34.5t-33.5 -14.5q-21 0 -35 14t-14 34t14 35t35 15z" />
<glyph unicode="j" horiz-adv-x="243" d="M168 693q19 0 32.5 -13.5t13.5 -33.5q0 -21 -14 -36t-35 -15q-20 0 -34 14t-14 34t15 35t36 15zM-101 -242q55 5 78.5 45.5t35.5 107.5l31 166l34 205q17 107 17 190q26 -6 51 -6t46 6q-20 -93 -36 -187t-33 -206.5t-33.5 -177t-60.5 -118.5t-124 -54z" />
<glyph unicode="k" horiz-adv-x="477" d="M136 738q11 -2 20.5 -3.5t25.5 -1.5q9 0 17.5 0.5t33.5 4.5l-19 -70l-28 -150l-44 -240l17 -2q60 33 110.5 79t115.5 117q28 -5 52 -5q19 0 46 5l2 -11q-23 -14 -66 -44l-83 -59l-107 -79q96 -138 209 -279q-10 0 -31 2.5t-26 2.5q-19 0 -33.5 -2t-23.5 -3l-85 128 q-37 53 -85 115l-20 -1q-9 -53 -18.5 -117.5t-17.5 -124.5q-8 0 -25.5 2.5t-21.5 2.5q-11 0 -28.5 -2.5t-19.5 -2.5q100 365 133 738z" />
<glyph unicode="l" horiz-adv-x="243" d="M144 738q16 -3 23 -4t23 -1q23 0 53 5q-43 -169 -80.5 -366t-58.5 -372q-12 1 -26 3t-23 2q-16 0 -26.5 -1.5t-22.5 -3.5q47 169 84 365t54 373z" />
<glyph unicode="m" horiz-adv-x="862" d="M384 338q0 39 -21.5 62.5t-59.5 23.5q-87 0 -129 -70t-55 -170t-22 -184q-10 0 -26.5 2.5t-19.5 2.5q-11 0 -28.5 -2.5t-19.5 -2.5q36 116 61.5 245t25.5 227l42 -6q25 0 49 6q-18 -52 -26 -95q38 51 84 78t103 27q110 0 125 -105q38 48 87 76.5t105 28.5q55 0 94 -33 t39 -88q0 -11 -2 -30t-4 -28l-37 -203l-15 -100l-45 6q-8 0 -24 -3t-25 -3q26 86 44 176t18 162q0 41 -18.5 63.5t-62.5 22.5q-86 0 -128.5 -71t-59.5 -184q-9 -85 -17 -169q-7 0 -23 3t-24 3q-9 0 -23.5 -2.5t-23.5 -3.5q26 87 44 177t18 161z" />
<glyph unicode="n" horiz-adv-x="551" d="M90 472l42 -6q25 0 49 6q-16 -46 -25 -95q41 50 86 77.5t102 27.5q58 0 97 -33t39 -91q0 -20 -3 -43t-8 -44l-26 -142q-6 -31 -11 -69l-9 -60l-48 6q-10 0 -23 -2l-25 -4q26 87 45.5 179t19.5 159q-4 40 -25 63t-60 23q-87 0 -130 -71t-56.5 -170t-22.5 -183 q-8 0 -25.5 2.5t-21.5 2.5q-11 0 -28.5 -2.5t-19.5 -2.5q36 116 61.5 245t25.5 227z" />
<glyph unicode="o" horiz-adv-x="548" d="M268 482q104 0 169.5 -52.5t65.5 -155.5q0 -111 -77 -197.5t-186 -86.5q-103 0 -167.5 52t-64.5 154q0 27 5.5 54t26 81t83.5 102.5t145 48.5zM97 170q0 -62 30.5 -102.5t90.5 -40.5q93 0 142.5 88.5t49.5 188.5q0 59 -33.5 100.5t-92.5 41.5q-64 0 -108 -50.5 t-62 -120.5q-17 -53 -17 -105z" />
<glyph unicode="p" horiz-adv-x="551" d="M-16 -105l64 298q32 155 44 278q21 -4 43 -4q11 0 25 1.5t21 2.5l-19 -70q32 38 75 59.5t91 21.5q81 0 128 -57.5t47 -141.5q0 -114 -72 -203.5t-184 -89.5q-48 0 -86.5 27.5t-56.5 73.5l-22 -109q-12 -57 -23 -118l-23 -133q-10 2 -23 4t-23 2q-11 0 -24 -2l-25 -4 q16 54 27 95t16 69zM413 293q0 56 -26.5 98t-80.5 42q-89 0 -134.5 -82t-45.5 -178q0 -55 28.5 -92t81.5 -37q69 0 111.5 53.5t50.5 99t11.5 67.5t3.5 29z" />
<glyph unicode="q" horiz-adv-x="551" d="M193 -10q-81 0 -128.5 57.5t-47.5 141.5q0 116 73.5 204.5t187.5 88.5q48 0 83 -26t55 -73q8 47 9.5 58.5t1.5 29.5q8 -2 20 -3t23 -1t24.5 1.5t21.5 2.5q-26 -100 -44 -188t-84 -446l-18 -106q-12 3 -21.5 4.5t-26.5 1.5q-18 0 -27 -1.5t-21 -4.5q24 81 42 159l28 132 l11 47q-37 -37 -76 -58t-86 -21zM108 174q0 -55 26 -95.5t79 -40.5q89 0 134.5 81.5t45.5 178.5q0 56 -29.5 93t-84.5 37q-66 0 -107.5 -54t-52.5 -109t-11 -91z" />
<glyph unicode="r" horiz-adv-x="326" d="M90 473l42 -6q23 0 46 6q-14 -52 -21 -97q29 44 64.5 75t76.5 31q18 -3 28 -4q-7 -20 -10.5 -39.5t-3.5 -42.5l-45 6q-96 0 -119.5 -95t-49.5 -307q-8 0 -25.5 2.5t-21.5 2.5q-11 0 -28.5 -2.5t-19.5 -2.5q35 114 61 244.5t26 228.5z" />
<glyph unicode="s" horiz-adv-x="379" d="M30 129q6 -44 36 -72t75 -28q40 0 70 23t30 62q0 59 -101 104t-101 116q0 66 48.5 107t116.5 41q36 0 69.5 -8t63.5 -27q-15 -36 -25 -80h-13q-14 39 -37 58t-63 19q-31 0 -58 -25t-27 -56q0 -49 101.5 -95.5t101.5 -110.5q0 -76 -53.5 -122t-131.5 -46q-39 0 -80 12.5 t-69 35.5q6 24 12.5 46t16.5 46h18z" />
<glyph unicode="t" horiz-adv-x="312" d="M24 422q4 10 6 23t2 27q15 -3 35 -5t53 -2l12 58q6 34 10 63q25 5 42 11t46 20l8 -10l-27 -102l-9 -40q59 0 112 7q-1 -3 -5 -22.5t-4 -27.5q-29 4 -53.5 5t-58.5 1l-52 -235q-8 -29 -11.5 -49.5t-3.5 -43.5q0 -28 17 -44t45 -16q17 0 26.5 3t35.5 15l-4 -37 q-25 -13 -50 -21.5t-50 -8.5q-44 0 -75.5 24t-31.5 67q0 22 7 53l9 45l57 248q-26 0 -46 -1t-42 -5z" />
<glyph unicode="u" horiz-adv-x="551" d="M423 0l-44 4q-11 0 -25 -1.5t-22 -2.5q17 45 24 93q-38 -50 -83.5 -76.5t-104.5 -26.5t-98 32t-39 90q0 50 18 147l41 213q26 -7 46 -7q11 0 23.5 2t25.5 5q-36 -133 -50.5 -198t-14.5 -141q0 -35 16.5 -58.5t51.5 -27.5q136 0 170.5 107t55.5 318q23 -6 48 -6q24 0 48 6 q-32 -105 -59.5 -243t-27.5 -229z" />
<glyph unicode="v" horiz-adv-x="436" d="M11 472q27 -6 51 -6q25 0 51 6q9 -102 28 -194l36 -192l89 157q30 52 54 103.5t55 125.5q20 -6 39 -6q24 0 47 6q-77 -111 -144.5 -226.5t-132.5 -245.5q-12 2 -20 3.5t-14 1.5q-12 0 -21.5 -2t-15.5 -3q-12 76 -29.5 160t-31.5 144z" />
<glyph unicode="w" horiz-adv-x="731" d="M16 472q23 -6 50 -6q24 0 47 6q9 -86 22 -175.5t30 -189.5l73 133q29 53 56 109.5t54 122.5q18 -6 39 -6q20 0 35 6q0 -62 18 -149l27 -131l20 -101l70 131q37 75 61 129.5t48 120.5q8 -2 17.5 -3.5t16.5 -2.5q23 0 46 6l-136 -244q-71 -126 -118 -228q-8 0 -20.5 2.5 t-15.5 2.5q-6 0 -18 -2.5t-16 -2.5q-12 78 -22 132l-48 237q-93 -175 -184 -369l-34 4q-8 0 -18 -2l-18 -2q-30 238 -82 472z" />
<glyph unicode="x" horiz-adv-x="443" d="M93 149l76 82l-63 119l-68 122q26 -6 53 -6q26 0 52 6q18 -48 35 -87l45 -95l85 106q24 30 54 76q18 -6 37 -6q22 0 49 6l-122 -128l-84 -91l49 -97q22 -47 35.5 -71t50.5 -85q-12 0 -32 2.5t-23 2.5q-12 0 -31 -2.5t-22 -2.5q-16 42 -25.5 65t-56.5 128 q-36 -42 -76.5 -94.5t-71.5 -98.5q-9 0 -24 2.5t-19 2.5q-9 0 -24.5 -2.5t-19.5 -2.5z" />
<glyph unicode="y" horiz-adv-x="436" d="M64 -127l59 102l-39 184l-37 177l-37 136q15 -3 27.5 -5t25.5 -2q10 0 21.5 1.5t31.5 5.5q12 -117 30 -206l38 -187l71 131q35 61 65.5 122t65.5 140q23 -7 43 -7q9 0 19.5 1.5t23.5 5.5q-119 -180 -226 -368t-193 -373l-29 5q-15 0 -30 -1t-29 -4l63 86z" />
<glyph unicode="z" horiz-adv-x="456" d="M224 305l98 119q-80 0 -129 -1t-113 -7l3 36l-1 20q44 -4 58 -4.5t31 -0.5q65 0 165.5 2.5t117.5 2.5v-18l-122 -136l-102 -120l-119 -148q75 0 140.5 3t139.5 11q-5 -15 -10 -32t-6 -32q-34 0 -101 3t-101 3q-94 0 -198 -9v25q125 131 249 283z" />
<glyph unicode="{" horiz-adv-x="492" d="M354 656q-33 -4 -51 -28t-18 -56v-35v-117q0 -66 -19.5 -107.5t-75.5 -58.5q54 -15 74.5 -57.5t20.5 -106.5v-116q0 -53 12.5 -82.5t42 -34.5t42.5 -5h27v-51q-78 0 -130 26t-52 96l-1 56v115q0 46 -13.5 82t-50.5 45q-23 7 -45.5 7.5t-32.5 0.5v51q77 0 109.5 29.5 t32.5 106.5v115q0 76 18 119.5t80 53.5q39 4 85 4v-50z" />
<glyph unicode="|" horiz-adv-x="492" d="M272 323h-53v365h53v-365zM272 -169h-53v364h53v-364z" />
<glyph unicode="}" horiz-adv-x="492" d="M266 416q0 -66 26 -101t89 -35h27v-51q-75 0 -108.5 -29t-33.5 -106v-115q0 -112 -35 -145t-148 -33v51q59 0 91.5 17t32.5 71v34v116q0 65 19.5 106t74.5 58q-59 20 -76.5 57.5t-17.5 108.5v117q0 51 -12.5 81.5t-56.5 38.5l-55 1v50q109 0 145.5 -31t36.5 -90l1 -56 v-115z" />
<glyph unicode="~" horiz-adv-x="984" d="M614 469q-55 0 -135 71t-111 71q-57 0 -82.5 -40.5t-25.5 -101.5h-55q0 83 40.5 139.5t122.5 56.5q68 0 134 -72t113 -72q59 0 83 40t24 104h56q0 -85 -40.5 -140.5t-123.5 -55.5z" />
<glyph unicode="&#xa3;" d="M-3 71l13 -1q91 0 120 73.5t29 182.5h-47q-23 0 -50 -3l8 44q15 0 45 -2t45 -2q0 11 0.5 20.5t4.5 39.5q0 92 66.5 162.5t159.5 70.5q46 0 88 -20.5t65 -58.5q-35 -30 -58 -60l-18 5q0 43 -18.5 70t-58.5 27q-76 0 -107.5 -82t-31.5 -174l86 -1l97 5q-6 -10 -8 -22 t-2 -28q-83 7 -176 7q-10 -94 -38.5 -146t-103.5 -109l116 -2q50 0 142 4t112 4l-7 -80q-53 0 -151 4.5t-109 4.5q-39 0 -127.5 -2t-93.5 -2z" />
<glyph unicode="&#xa5;" d="M200 209q-29 0 -86.5 -1t-85.5 -1l10 39q27 0 67.5 -1.5t41.5 -1.5h62l13 71l-169 -2l7 40l152 -3l-54 135l-69 155q7 0 24 -2t26 -2q7 0 22 2t23 2q13 -43 28 -85l31 -84l42 -113l72 107q54 82 103 175l39 -4q9 0 29 2t21 2l-75 -93l-66 -90l-79 -107l152 3l-7 -40 l-172 2l-13 -71q41 0 84 1l86 2l-8 -39q-28 0 -84.5 1t-84.5 1q-11 -49 -20 -109l-15 -100q-14 1 -26 2.5t-29 1.5l-46 -4q16 47 28.5 96.5t25.5 112.5z" />
<glyph unicode="&#xa6;" horiz-adv-x="717" d="M252 -7q-98 0 -169.5 63.5t-71.5 162.5q0 137 93.5 196t239.5 59q14 60 23.5 118t19.5 135q15 -3 24.5 -4t26.5 -1q13 0 22 1t26 4l-35 -142q-14 -59 -24 -115q105 -14 173.5 -70.5t68.5 -156.5q0 -118 -87.5 -185.5t-208.5 -67.5l-40 2q-24 -114 -42 -261q-18 5 -33 5 q-17 0 -31.5 -0.5t-34.5 -4.5q21 76 36 137.5t24 124.5zM368 28q99 0 154 62.5t55 163.5q0 73 -41.5 122.5t-114.5 59.5l-78 -408h25zM104 217q0 -76 41.5 -132t113.5 -56l79 410q-108 0 -171 -56.5t-63 -165.5z" />
<glyph unicode="&#xa7;" horiz-adv-x="486" d="M30 31l12 -1q25 -46 60 -73t83 -27q50 0 84.5 29t34.5 78q0 56 -62 101l-116 74q-63 49 -63 114q0 41 23.5 73t63.5 59q-9 17 -14 32.5t-5 33.5q0 64 52.5 111.5t119.5 47.5q37 0 73 -12.5t60 -35.5l-11 -19q-6 -10 -20 -38h-13q-20 30 -44.5 47.5t-56.5 17.5 q-40 0 -69.5 -26.5t-29.5 -66.5q0 -50 60 -89l117 -74q62 -48 62 -113q0 -36 -22 -69t-55 -59q21 -32 21 -76q0 -76 -57.5 -130.5t-132.5 -54.5q-100 0 -180 64q13 25 19 43t6 39zM372 245q0 40 -70 93l-130 96q-22 -12 -36 -30.5t-14 -41.5q0 -48 74 -100l136 -93 q16 15 28 35.5t12 40.5z" />
<glyph unicode="&#xa8;" horiz-adv-x="436" d="M176 444q-15 -33 -27.5 -43t-31.5 -10l-20 3q-9 3 -14.5 7.5t-5.5 21.5q0 12 7 27l15 27l161 205l20 -9zM367 444l-12 -26q-7 -15 -18 -21t-30 -6t-29.5 7.5t-10.5 25.5q0 16 7.5 29t16.5 24l159 205l20 -9z" />
<glyph unicode="&#xa9;" horiz-adv-x="820" d="M587 651q81 -46 127.5 -127.5t46.5 -176.5q0 -144 -104.5 -247.5t-247.5 -103.5t-247 104t-104 247q0 144 104 248t248 104q93 0 177 -48zM410 661q-128 0 -221 -93t-93 -221q0 -126 93 -220t219 -94q127 0 221 93t94 219q0 84 -41 157.5t-115 116t-157 42.5zM412 520 q-62 0 -93.5 -51t-31.5 -116q0 -68 28.5 -122.5t88.5 -54.5q42 0 74.5 25.5t41.5 64.5h56q-8 -62 -57 -99t-114 -37q-84 0 -132 63t-48 150q0 91 49 156.5t139 65.5q60 0 104 -34t55 -93h-56q-8 38 -36.5 60t-67.5 22z" />
<glyph unicode="&#xaa;" horiz-adv-x="461" d="M117 -10q-53 0 -89.5 31t-36.5 84q0 90 78 123l155 40q79 22 88 87q0 41 -22.5 65.5t-63.5 24.5q-86 0 -129 -77l-16 4q3 12 5 22.5t2 23.5l-1 25q43 21 73 31t66 10q65 0 114 -28t49 -89q0 -19 -4 -47t-9 -49l-32 -168l-6 -36q0 -9 9 -20t18 -12q7 0 15.5 2t18.5 5 l14 -25q-41 -25 -86 -25q-32 0 -47.5 19t-22.5 53q-33 -37 -65 -55.5t-75 -18.5zM73 116q0 -33 21 -54t54 -21q39 0 76.5 30t45.5 69l21 110q-113 -24 -165.5 -45.5t-52.5 -88.5z" />
<glyph unicode="&#xab;" horiz-adv-x="432" d="M397 469q5 -20 17 -34q-28 -47 -59.5 -89.5t-75.5 -96.5q20 -50 39 -107t31 -109q-8 -7 -15 -17.5t-11 -15.5q-25 65 -51 125l-57 130zM214 469q3 -10 7 -18t11 -16q-29 -47 -63.5 -94t-71.5 -92q26 -63 42 -110.5t27 -105.5q-7 -7 -14 -17.5t-11 -15.5q-25 65 -51 125 l-57 130l103 120z" />
<glyph unicode="&#xac;" horiz-adv-x="388" d="M228 571l-106 -49q-34 -16 -75 -42l-4 29q-2 14 -8 30q75 25 136.5 50.5t152.5 69.5l13 -14q-79 -318 -132 -645q-9 0 -26 3t-26 3q-10 0 -23 -2l-27 -4q72 287 125 571z" />
<glyph unicode="&#xad;" horiz-adv-x="492" d="M-13 270h490l-10 -61h-491z" />
<glyph unicode="&#xae;" horiz-adv-x="820" d="M587 651q81 -46 127.5 -127.5t46.5 -176.5q0 -144 -104.5 -247.5t-247.5 -103.5t-247 104t-104 247q0 144 104 248t248 104q93 0 177 -48zM410 661q-128 0 -221 -93t-93 -221q0 -126 93 -220t219 -94q127 0 221 93t94 219q0 84 -41 157.5t-115 116t-157 42.5zM586 447 q0 -41 -27.5 -71t-67.5 -39l91 -186h-69l-86 178h-94v-178h-61v404h147q70 0 118.5 -23t48.5 -85zM333 515v-146h75q49 0 82.5 14t33.5 56q0 45 -33.5 60.5t-83.5 15.5h-74z" />
<glyph unicode="&#xb0;" horiz-adv-x="492" d="M314 763q44 0 76 -27.5t32 -70.5q0 -56 -40.5 -97.5t-96.5 -41.5q-41 0 -71.5 29.5t-30.5 71.5q0 55 38.5 95.5t92.5 40.5zM287 557q38 0 62 32.5t24 72.5q0 31 -15.5 51t-45.5 20q-40 0 -60.5 -35.5t-20.5 -78.5q3 -27 17 -44.5t39 -17.5z" />
<glyph unicode="&#xb1;" horiz-adv-x="820" d="M435 394h263v-47h-263v-168h-49v168h-264v47h264v168h49v-168zM698 24h-576v48h576v-48z" />
<glyph unicode="&#xb2;" horiz-adv-x="357" d="M280 306q-2 -6 -5 -17.5t-3 -17.5l2 -16q-23 0 -76.5 2t-56.5 2q-24 0 -82 -2t-61 -2l2 24q122 90 183.5 147.5t61.5 127.5q0 31 -19 51t-51 20q-28 0 -50 -16.5t-33 -44.5h-9q-5 18 -21 35q26 26 57 38t68 12q50 0 87 -26.5t37 -74.5q0 -82 -95 -148l-150 -102h27h24 q30 0 67 0.5t96 7.5z" />
<glyph unicode="&#xb3;" horiz-adv-x="357" d="M18 321l8 -2q13 -25 35.5 -36.5t52.5 -11.5q50 0 87.5 29t37.5 78q0 30 -19 50t-50 20l-44 -4q4 13 6 31l25 -1q33 0 63.5 23t34.5 56q0 34 -17 54t-51 20q-59 0 -83 -57h-7q-3 20 -17 41q51 39 118 39q44 0 79 -22t35 -66q0 -41 -32.5 -63.5t-80.5 -34.5q41 -4 71 -25 t30 -60q0 -66 -62.5 -99.5t-134.5 -33.5q-28 0 -44 3.5t-58 15.5z" />
<glyph unicode="&#xb4;" horiz-adv-x="270" d="M184 631q8 24 22 38t37 14q19 0 30 -7t11 -26q0 -13 -6.5 -25.5t-18.5 -27.5l-159 -206l-21 9z" />
<glyph unicode="&#xb5;" horiz-adv-x="553" d="M464 466q24 0 48 6q-33 -110 -60 -245t-27 -227l-43 4l-45 -4l16 78q-36 -43 -69.5 -65.5t-79.5 -22.5q-33 0 -57.5 11.5t-51.5 36.5q-19 -75 -35 -164l-25 -143q-13 3 -24 4.5t-21 1.5q-11 0 -24 -2l-25 -4q32 103 60 225.5t51.5 260.5t39.5 255q16 -4 25 -5.5t22 -1.5 q11 0 23.5 2t25.5 5q-37 -124 -50 -194.5t-13 -125.5q0 -42 26.5 -69.5t67.5 -27.5q85 0 125.5 70t52 167t19.5 180q24 -6 48 -6z" />
<glyph unicode="&#xb6;" horiz-adv-x="425" d="M363 697h168l-9 -42h-42l-138 -652h-42l138 652h-79l-138 -652h-42l84 399q-60 0 -99 31.5t-39 83.5q0 57 66 118.5t172 61.5z" />
<glyph unicode="&#xb9;" horiz-adv-x="357" d="M224 599l-60 -26q-31 -13 -60 -30q0 18 -6 36q113 40 121 43t70 29l9 -7q-25 -92 -47 -189t-41 -200q-15 4 -33 4q-15 0 -23 -2t-11 -2q50 173 81 344z" />
<glyph unicode="&#xba;" horiz-adv-x="548" d="M268 482q104 0 169.5 -52.5t65.5 -155.5q0 -111 -77 -197.5t-186 -86.5q-103 0 -167.5 52t-64.5 154q0 27 5.5 54t26 81t83.5 102.5t145 48.5zM97 170q0 -62 30.5 -102.5t90.5 -40.5q93 0 142.5 88.5t49.5 188.5q0 59 -33.5 100.5t-92.5 41.5q-64 0 -108 -50.5 t-62 -120.5q-17 -53 -17 -105z" />
<glyph unicode="&#xbb;" horiz-adv-x="432" d="M192 0q-4 15 -16 34q28 48 53.5 83t80.5 104q-25 62 -41.5 110.5t-27.5 104.5q7 7 14.5 17t11.5 16q24 -65 39.5 -102t68.5 -154l-90 -103zM10 0q-4 17 -15 34q26 47 52 82.5t81 104.5q-47 106 -69 215l26 33q22 -60 46.5 -118.5t60.5 -137.5z" />
<glyph unicode="&#xbd;" horiz-adv-x="844" d="M218 602q-45 -17 -65.5 -26t-48.5 -26q0 9 -3 18.5t-4 14.5q57 19 95.5 33t86.5 35l9 -7q-25 -87 -42.5 -164t-41.5 -198l-33 3l-31 -3q24 79 43.5 159.5t34.5 160.5zM729 731l-545 -821h-58l543 821h60zM772 45q-7 -18 -7 -32l1 -13l-127 2l-139 -2l4 20 q137 103 185 146.5t48 111.5q0 28 -18 47t-48 19q-27 0 -48 -15t-30 -41h-10q-8 20 -21 32q50 48 120 48q46 0 82 -25.5t36 -70.5q0 -74 -90 -136l-143 -98q40 0 112 3.5t93 3.5z" />
<glyph unicode="&#xc0;" horiz-adv-x="582" d="M467 801q-6 -22 -21.5 -37.5t-37.5 -15.5q-18 0 -29 5.5t-11 26.5q0 13 5.5 25t17.5 29l160 205l20 -9zM357 688l21 -6l24 6q36 -226 48 -296t36 -177.5t59 -214.5q-11 0 -31 2.5t-26 2.5q-21 0 -36 -2t-25 -3q0 58 -13 134l-21 118l-112 3l-113 -3l-55 -98l-43 -76 l-41 -78q-11 0 -28 2.5t-19 2.5q-15 0 -27 -2t-19 -3q112 157 232 350t189 338zM281 300l101 3l-47 245l-143 -245z" />
<glyph unicode="&#xc1;" horiz-adv-x="582" d="M488 988q8 24 22 38t37 14q19 0 30 -7t11 -26q0 -13 -6.5 -25.5t-18.5 -27.5l-159 -206l-21 9zM357 688l21 -6l24 6q36 -226 48 -296t36 -177.5t59 -214.5q-11 0 -31 2.5t-26 2.5q-21 0 -36 -2t-25 -3q0 58 -13 134l-21 118l-112 3l-113 -3l-55 -98l-43 -76l-41 -78 q-11 0 -28 2.5t-19 2.5q-15 0 -27 -2t-19 -3q112 157 232 350t189 338zM281 300l101 3l-47 245l-143 -245z" />
<glyph unicode="&#xc2;" horiz-adv-x="582" d="M499 748l-79 103l-121 -103h-48l149 168h55l80 -168h-36zM357 688l21 -6l24 6q36 -226 48 -296t36 -177.5t59 -214.5q-11 0 -31 2.5t-26 2.5q-21 0 -36 -2t-25 -3q0 58 -13 134l-21 118l-112 3l-113 -3l-55 -98l-43 -76l-41 -78q-11 0 -28 2.5t-19 2.5q-15 0 -27 -2 t-19 -3q112 157 232 350t189 338zM281 300l101 3l-47 245l-143 -245z" />
<glyph unicode="&#xc3;" horiz-adv-x="582" d="M536 748q-55 0 -135 71t-111 71q-57 0 -82.5 -40.5t-25.5 -101.5h-55q0 83 40.5 139.5t122.5 56.5q68 0 134 -72t113 -72q59 0 83 40t24 104h56q0 -85 -40.5 -140.5t-123.5 -55.5zM357 688l21 -6l24 6q36 -226 48 -296t36 -177.5t59 -214.5q-11 0 -31 2.5t-26 2.5 q-21 0 -36 -2t-25 -3q0 58 -13 134l-21 118l-112 3l-113 -3l-55 -98l-43 -76l-41 -78q-11 0 -28 2.5t-19 2.5q-15 0 -27 -2t-19 -3q112 157 232 350t189 338zM281 300l101 3l-47 245l-143 -245z" />
<glyph unicode="&#xc4;" horiz-adv-x="583" d="M357 688l22 -5l24 5l38 -235q20 -120 45.5 -236t58.5 -217q-11 0 -31 2.5t-26 2.5q-20 0 -35.5 -2t-25.5 -3q0 57 -13 134l-21 118l-111 3l-115 -3l-54 -97l-56 -99q-3 -5 -29 -56q-9 0 -25 2.5t-21 2.5q-14 0 -26.5 -2t-20.5 -3q71 98 152 222t152.5 246t117.5 220z M315 867q21 0 35 -16q16 -16 16 -38t-16 -35.5t-36 -13.5q-21 0 -37 15t-16 36q0 22 16 37t38 15zM483 867q20 0 36 -16t16 -37t-16 -35.5t-36 -14.5q-21 0 -36 15t-15 36t14.5 36.5t36.5 15.5zM282 301q16 0 49 1t51 1l-46 245l-144 -245q15 0 45 -1t45 -1z" />
<glyph unicode="&#xc5;" horiz-adv-x="582" d="M417 917q44 0 76 -27.5t32 -70.5q0 -56 -40.5 -97.5t-96.5 -41.5q-41 0 -71.5 29.5t-30.5 71.5q0 55 38.5 95.5t92.5 40.5zM390 711q38 0 62 32.5t24 72.5q0 31 -15.5 51t-45.5 20q-40 0 -60.5 -35.5t-20.5 -78.5q3 -27 17 -44.5t39 -17.5zM357 688l21 -6l24 6 q36 -226 48 -296t36 -177.5t59 -214.5q-11 0 -31 2.5t-26 2.5q-21 0 -36 -2t-25 -3q0 58 -13 134l-21 118l-112 3l-113 -3l-55 -98l-43 -76l-41 -78q-11 0 -28 2.5t-19 2.5q-15 0 -27 -2t-19 -3q112 157 232 350t189 338zM281 300l101 3l-47 245l-143 -245z" />
<glyph unicode="&#xc8;" horiz-adv-x="466" d="M399 799q-6 -22 -21.5 -37.5t-37.5 -15.5q-18 0 -29 5.5t-11 26.5q0 13 5.5 25t17.5 29l160 205l20 -9zM147 671l169 -3l154 3q-15 -32 -15 -61q-29 5 -57 7t-61 2h-101q-9 -27 -19 -73l-15 -68l-20 -96h85q50 0 74.5 1t70.5 7q-12 -29 -12 -65q-27 4 -61.5 7t-63.5 3 h-102l-23 -111q-8 -37 -15.5 -80.5t-14.5 -89.5q103 0 156.5 2.5t100.5 8.5q-5 -13 -7.5 -23.5t-2.5 -21.5l1 -20l-224 6q-68 0 -134 -6q37 119 78.5 325t58.5 346z" />
<glyph unicode="&#xc9;" horiz-adv-x="466" d="M146 671l171 -2l153 2q-11 -26 -16 -61q-32 6 -58 8t-59 2h-101q-11 -34 -16.5 -58.5t-16.5 -83.5l-21 -96h84q59 0 81 1.5t64 6.5q-11 -30 -11 -65q-40 6 -66 8.5t-58 2.5l-105 -1l-21 -111q-8 -39 -14.5 -78t-14.5 -92q101 0 155.5 3t101.5 8q-6 -17 -8 -25t-2 -21v-19 l-224 6q-68 0 -134 -6q38 122 79 328t57 343zM247 737l141 143q17 16 29 23.5t27 7.5t26 -13t11 -28q0 -13 -9 -21t-27 -19l-155 -93h-43z" />
<glyph unicode="&#xca;" horiz-adv-x="466" d="M431 746l-79 103l-121 -103h-48l149 168h55l80 -168h-36zM147 671l169 -3l154 3q-15 -32 -15 -61q-29 5 -57 7t-61 2h-101q-9 -27 -19 -73l-15 -68l-20 -96h85q50 0 74.5 1t70.5 7q-12 -29 -12 -65q-27 4 -61.5 7t-63.5 3h-102l-23 -111q-8 -37 -15.5 -80.5t-14.5 -89.5 q103 0 156.5 2.5t100.5 8.5q-5 -13 -7.5 -23.5t-2.5 -21.5l1 -20l-224 6q-68 0 -134 -6q37 119 78.5 325t58.5 346z" />
<glyph unicode="&#xcb;" horiz-adv-x="466" d="M261 799q-15 -33 -27.5 -43t-31.5 -10l-20 3q-9 3 -14.5 7.5t-5.5 21.5q0 12 7 27l15 27l161 205l20 -9zM452 799l-12 -26q-7 -15 -18 -21t-30 -6t-29.5 7.5t-10.5 25.5q0 16 7.5 29t16.5 24l159 205l20 -9zM147 671l169 -3l154 3q-15 -32 -15 -61q-29 5 -57 7t-61 2 h-101q-9 -27 -19 -73l-15 -68l-20 -96h85q50 0 74.5 1t70.5 7q-12 -29 -12 -65q-27 4 -61.5 7t-63.5 3h-102l-23 -111q-8 -37 -15.5 -80.5t-14.5 -89.5q103 0 156.5 2.5t100.5 8.5q-5 -13 -7.5 -23.5t-2.5 -21.5l1 -20l-224 6q-68 0 -134 -6q37 119 78.5 325t58.5 346z" />
<glyph unicode="&#xcc;" horiz-adv-x="277" d="M297 799q-6 -22 -21.5 -37.5t-37.5 -15.5q-18 0 -29 5.5t-11 26.5q0 13 5.5 25t17.5 29l160 205l20 -9zM124 0l-52 4q-24 0 -37.5 -2t-20.5 -2q48 179 84 347.5t54 323.5q14 -2 26 -3t29 -1q22 0 35 2t19 2q-47 -158 -81 -327.5t-56 -343.5z" />
<glyph unicode="&#xcd;" horiz-adv-x="277" d="M318 986q8 24 22 38t37 14q19 0 30 -7t11 -26q0 -13 -6.5 -25.5t-18.5 -27.5l-159 -206l-21 9zM124 0l-52 4q-24 0 -37.5 -2t-20.5 -2q48 179 84 347.5t54 323.5q14 -2 26 -3t29 -1q22 0 35 2t19 2q-47 -158 -81 -327.5t-56 -343.5z" />
<glyph unicode="&#xce;" horiz-adv-x="277" d="M329 746l-79 103l-121 -103h-48l149 168h55l80 -168h-36zM124 0l-52 4q-24 0 -37.5 -2t-20.5 -2q48 179 84 347.5t54 323.5q14 -2 26 -3t29 -1q22 0 35 2t19 2q-47 -158 -81 -327.5t-56 -343.5z" />
<glyph unicode="&#xcf;" horiz-adv-x="277" d="M159 799q-15 -33 -27.5 -43t-31.5 -10l-20 3q-9 3 -14.5 7.5t-5.5 21.5q0 12 7 27l15 27l161 205l20 -9zM350 799l-12 -26q-7 -15 -18 -21t-30 -6t-29.5 7.5t-10.5 25.5q0 16 7.5 29t16.5 24l159 205l20 -9zM124 0l-52 4q-24 0 -37.5 -2t-20.5 -2q48 179 84 347.5 t54 323.5q14 -2 26 -3t29 -1q22 0 35 2t19 2q-47 -158 -81 -327.5t-56 -343.5z" />
<glyph unicode="&#xd1;" horiz-adv-x="721" d="M328 746q-55 0 -135 71t-111 71q-57 0 -82.5 -40.5t-25.5 -101.5h-55q0 83 40.5 139.5t122.5 56.5q68 0 134 -72t113 -72q59 0 83 40t24 104h56q0 -85 -40.5 -140.5t-123.5 -55.5zM49 182l42 181q22 87 36 162t23 155q15 -5 20 -5q3 0 10 2t11 3l107 -166l116 -172 l135 -192l59 300q10 48 20 109.5t16 111.5l35 -4q11 0 22.5 1.5t18.5 2.5q-47 -174 -83 -339.5t-64 -340.5q-2 1 -8 2.5t-11 2.5q-12 -2 -17 -5q-75 124 -155 236l-206 290l-47 -220q-15 -73 -28.5 -150.5t-22.5 -146.5q-8 0 -21.5 2.5t-16.5 2.5q-10 0 -22 -2.5t-16 -2.5z " />
<glyph unicode="&#xd2;" horiz-adv-x="794" d="M530 799q-6 -22 -21.5 -37.5t-37.5 -15.5q-18 0 -29 5.5t-11 26.5q0 13 5.5 25t17.5 29l160 205l20 -9zM443 686q135 0 227.5 -76t92.5 -210q0 -171 -120 -292t-291 -121q-140 0 -230.5 77t-90.5 215q0 38 19.5 133t132.5 184.5t260 89.5zM436 639q-136 0 -219.5 -109.5 t-83.5 -251.5q0 -108 59 -177.5t165 -69.5q136 0 220.5 105.5t84.5 244.5q0 48 -7 87.5t-30.5 81t-75 65.5t-113.5 24z" />
<glyph unicode="&#xd3;" horiz-adv-x="794" d="M551 986q8 24 22 38t37 14q19 0 30 -7t11 -26q0 -13 -6.5 -25.5t-18.5 -27.5l-159 -206l-21 9zM443 686q135 0 227.5 -76t92.5 -210q0 -171 -120 -292t-291 -121q-140 0 -230.5 77t-90.5 215q0 38 19.5 133t132.5 184.5t260 89.5zM436 639q-136 0 -219.5 -109.5 t-83.5 -251.5q0 -108 59 -177.5t165 -69.5q136 0 220.5 105.5t84.5 244.5q0 48 -7 87.5t-30.5 81t-75 65.5t-113.5 24z" />
<glyph unicode="&#xd4;" horiz-adv-x="794" d="M562 746l-79 103l-121 -103h-48l149 168h55l80 -168h-36zM443 686q135 0 227.5 -76t92.5 -210q0 -171 -120 -292t-291 -121q-140 0 -230.5 77t-90.5 215q0 38 19.5 133t132.5 184.5t260 89.5zM436 639q-136 0 -219.5 -109.5t-83.5 -251.5q0 -108 59 -177.5t165 -69.5 q136 0 220.5 105.5t84.5 244.5q0 48 -7 87.5t-30.5 81t-75 65.5t-113.5 24z" />
<glyph unicode="&#xd5;" horiz-adv-x="794" d="M599 746q-55 0 -135 71t-111 71q-57 0 -82.5 -40.5t-25.5 -101.5h-55q0 83 40.5 139.5t122.5 56.5q68 0 134 -72t113 -72q59 0 83 40t24 104h56q0 -85 -40.5 -140.5t-123.5 -55.5zM443 686q135 0 227.5 -76t92.5 -210q0 -171 -120 -292t-291 -121q-140 0 -230.5 77 t-90.5 215q0 38 19.5 133t132.5 184.5t260 89.5zM436 639q-136 0 -219.5 -109.5t-83.5 -251.5q0 -108 59 -177.5t165 -69.5q136 0 220.5 105.5t84.5 244.5q0 48 -7 87.5t-30.5 81t-75 65.5t-113.5 24z" />
<glyph unicode="&#xd6;" horiz-adv-x="794" d="M444 686q135 0 227.5 -76t92.5 -210q0 -172 -120.5 -292.5t-291.5 -120.5q-141 0 -231 77.5t-90 215.5q0 40 19.5 133.5t132.5 183t261 89.5zM400 867q20 0 35.5 -16.5t15.5 -37.5t-16 -35t-36 -14q-21 0 -36 15t-15 36q0 22 15 37t37 15zM570 867q21 0 35.5 -16.5 t14.5 -37.5t-15.5 -35t-36.5 -14t-36 15t-15 36t15.5 36.5t37.5 15.5zM438 639q-139 0 -221.5 -109t-82.5 -251q0 -109 58 -178.5t165 -69.5q137 0 221 105t84 245q0 48 -7 88t-30.5 81.5t-74 65t-112.5 23.5z" />
<glyph unicode="&#xd7;" horiz-adv-x="820" d="M641 558l35 -33l-231 -231l231 -232l-35 -34l-231 231l-231 -231l-33 34l232 232l-232 231l33 33l231 -232z" />
<glyph unicode="&#xd9;" horiz-adv-x="714" d="M519 799q-6 -22 -21.5 -37.5t-37.5 -15.5q-18 0 -29 5.5t-11 26.5q0 13 5.5 25t17.5 29l160 205l20 -9zM192 667q11 0 31 2t29 2l-53 -173q-20 -67 -34 -139t-14 -143l-1 -17l1 -26q0 -65 52 -101t121 -36q57 0 105 23t80.5 73.5t57.5 146.5t40.5 202t22.5 190l22 -3 q8 -1 20 -1q10 0 22.5 1.5t19.5 2.5q-38 -150 -67 -290.5t-56.5 -215t-94 -125.5t-189.5 -51q-104 0 -178.5 44.5t-74.5 143.5q0 26 3 43t20.5 96t36.5 177t29 178z" />
<glyph unicode="&#xda;" horiz-adv-x="714" d="M540 986q8 24 22 38t37 14q19 0 30 -7t11 -26q0 -13 -6.5 -25.5t-18.5 -27.5l-159 -206l-21 9zM192 667q11 0 31 2t29 2l-53 -173q-20 -67 -34 -139t-14 -143l-1 -17l1 -26q0 -65 52 -101t121 -36q57 0 105 23t80.5 73.5t57.5 146.5t40.5 202t22.5 190l22 -3q8 -1 20 -1 q10 0 22.5 1.5t19.5 2.5q-38 -150 -67 -290.5t-56.5 -215t-94 -125.5t-189.5 -51q-104 0 -178.5 44.5t-74.5 143.5q0 26 3 43t20.5 96t36.5 177t29 178z" />
<glyph unicode="&#xdb;" horiz-adv-x="714" d="M551 746l-79 103l-121 -103h-48l149 168h55l80 -168h-36zM192 667q11 0 31 2t29 2l-53 -173q-20 -67 -34 -139t-14 -143l-1 -17l1 -26q0 -65 52 -101t121 -36q57 0 105 23t80.5 73.5t57.5 146.5t40.5 202t22.5 190l22 -3q8 -1 20 -1q10 0 22.5 1.5t19.5 2.5 q-38 -150 -67 -290.5t-56.5 -215t-94 -125.5t-189.5 -51q-104 0 -178.5 44.5t-74.5 143.5q0 26 3 43t20.5 96t36.5 177t29 178z" />
<glyph unicode="&#xdc;" horiz-adv-x="715" d="M192 668l60 3q-38 -121 -63.5 -233t-37.5 -222l-1 -18l1 -28q0 -64 52.5 -99.5t120.5 -35.5q57 0 105 23t90 87.5t76 233t34 292.5l44 -3l42 3q-38 -150 -67.5 -290.5t-57 -215.5t-94 -126.5t-189.5 -51.5q-105 0 -179 45t-74 144q0 22 7 56l21 98q15 65 32 154.5 t29 186.5zM385 867q21 0 35 -16q16 -16 16 -37q0 -23 -16 -36.5t-35 -13.5q-21 0 -37 15t-16 36t15.5 36.5t37.5 15.5zM554 867q20 0 35 -15.5t15 -38.5q0 -21 -14.5 -35t-36.5 -14q-20 0 -36 15t-16 36t15.5 36.5t37.5 15.5z" />
<glyph unicode="&#xdd;" horiz-adv-x="480" d="M403 986q8 24 22 38t37 14q19 0 30 -7t11 -26q0 -13 -6.5 -25.5t-18.5 -27.5l-159 -206l-21 9zM184 274l-58 146l-46 114l-58 137q24 -3 30.5 -3.5t24.5 -0.5q9 0 31.5 2t24.5 2q20 -73 34 -114.5t88 -232.5l106 162l55 90q29 50 51 95l42 -4q21 0 32.5 2t18.5 2l-77 -99 l-67 -94l-141 -199l-22 -109q-16 -85 -24 -170q-13 1 -29.5 3t-25.5 2q-18 0 -30 -1l-25 -4q21 65 37 144z" />
<glyph unicode="&#xdf;" horiz-adv-x="538" d="M36 135l43 261q24 144 79 243t173 99q61 0 108 -29.5t47 -87.5t-72 -115t-72 -88q0 -33 75.5 -100.5t75.5 -125.5q0 -80 -66 -138t-148 -58q-46 0 -93 26q4 20 10 42t15 46q16 -33 39 -51t59 -18q44 0 74.5 34.5t30.5 80.5q0 53 -75.5 115.5t-75.5 112.5q0 46 80 110 t80 123q0 38 -26.5 61.5t-65.5 23.5q-84 0 -108.5 -64t-47.5 -202l-41 -230q-7 -37 -17.5 -103t-14.5 -103q-24 3 -48 7q-14 0 -25 -2.5t-23 -4.5z" />
<glyph unicode="&#xe0;" horiz-adv-x="462" d="M116 -10q-52 0 -88 31t-36 85q0 89 78 123l154 41q79 21 88 85q0 41 -21.5 65.5t-63.5 24.5q-43 0 -75.5 -19.5t-54.5 -57.5l-17 5q8 22 8 45l-2 26q55 25 83.5 32.5t57.5 7.5q65 0 113 -28t48 -88q0 -23 -4.5 -55t-5.5 -43l-34 -167l-6 -36q0 -10 9 -21t19 -11 q15 0 33 8l13 -26q-38 -24 -86 -24q-32 0 -47.5 18.5t-20.5 53.5q-34 -38 -66 -56.5t-76 -18.5zM301 536l-128 95q-11 6 -19.5 18.5t-8.5 24.5t12.5 23.5t24.5 11.5q11 0 20.5 -6t19.5 -17l119 -150h-40zM74 115q0 -32 20.5 -52.5t52.5 -20.5q40 0 77.5 29.5t45.5 68.5 l20 109q-110 -23 -163 -44.5t-53 -89.5z" />
<glyph unicode="&#xe1;" horiz-adv-x="461" d="M334 784q8 24 22 38t37 14q19 0 30 -7t11 -26q0 -13 -6.5 -25.5t-18.5 -27.5l-159 -206l-21 9zM117 -10q-53 0 -89.5 31t-36.5 84q0 90 78 123l155 40q79 22 88 87q0 41 -22.5 65.5t-63.5 24.5q-86 0 -129 -77l-16 4q3 12 5 22.5t2 23.5l-1 25q43 21 73 31t66 10 q65 0 114 -28t49 -89q0 -19 -4 -47t-9 -49l-32 -168l-6 -36q0 -9 9 -20t18 -12q7 0 15.5 2t18.5 5l14 -25q-41 -25 -86 -25q-32 0 -47.5 19t-22.5 53q-33 -37 -65 -55.5t-75 -18.5zM73 116q0 -33 21 -54t54 -21q39 0 76.5 30t45.5 69l21 110q-113 -24 -165.5 -45.5 t-52.5 -88.5z" />
<glyph unicode="&#xe2;" horiz-adv-x="462" d="M116 -10q-52 0 -88 31t-36 85q0 89 78 123l154 41q79 21 88 85q0 41 -21.5 65.5t-63.5 24.5q-43 0 -75.5 -19.5t-54.5 -57.5l-17 5q8 22 8 45l-2 26q55 25 83.5 32.5t57.5 7.5q65 0 113 -28t48 -88q0 -23 -4.5 -55t-5.5 -43l-34 -167l-6 -36q0 -10 9 -21t19 -11 q15 0 33 8l13 -26q-38 -24 -86 -24q-32 0 -47.5 18.5t-20.5 53.5q-34 -38 -66 -56.5t-76 -18.5zM356 536l-80 103l-123 -103h-46l148 168h56l79 -168h-34zM74 115q0 -32 20.5 -52.5t52.5 -20.5q40 0 77.5 29.5t45.5 68.5l20 109q-110 -23 -163 -44.5t-53 -89.5z" />
<glyph unicode="&#xe3;" horiz-adv-x="461" d="M382 544q-55 0 -135 71t-111 71q-57 0 -82.5 -40.5t-25.5 -101.5h-55q0 83 40.5 139.5t122.5 56.5q68 0 134 -72t113 -72q59 0 83 40t24 104h56q0 -85 -40.5 -140.5t-123.5 -55.5zM117 -10q-53 0 -89.5 31t-36.5 84q0 90 78 123l155 40q79 22 88 87q0 41 -22.5 65.5 t-63.5 24.5q-86 0 -129 -77l-16 4q3 12 5 22.5t2 23.5l-1 25q43 21 73 31t66 10q65 0 114 -28t49 -89q0 -19 -4 -47t-9 -49l-32 -168l-6 -36q0 -9 9 -20t18 -12q7 0 15.5 2t18.5 5l14 -25q-41 -25 -86 -25q-32 0 -47.5 19t-22.5 53q-33 -37 -65 -55.5t-75 -18.5zM73 116 q0 -33 21 -54t54 -21q39 0 76.5 30t45.5 69l21 110q-113 -24 -165.5 -45.5t-52.5 -88.5z" />
<glyph unicode="&#xe4;" horiz-adv-x="462" d="M116 -10q-52 0 -88 31t-36 85q0 89 78 123l154 41q79 21 88 85q0 41 -21.5 65.5t-63.5 24.5q-43 0 -75.5 -19.5t-54.5 -57.5l-17 5q8 22 8 45l-2 26q55 25 83.5 32.5t57.5 7.5q65 0 113 -28t48 -88q0 -23 -4.5 -55t-5.5 -43l-34 -167l-6 -36q0 -10 9 -21t19 -11 q15 0 33 8l13 -26q-38 -24 -86 -24q-32 0 -47.5 18.5t-20.5 53.5q-34 -38 -66 -56.5t-76 -18.5zM186 665q22 0 36.5 -14.5t14.5 -39.5q0 -17 -14 -33t-37 -16q-21 0 -36 15t-15 37q0 21 15 36t36 15zM356 665q21 0 35.5 -14.5t14.5 -39.5q0 -17 -14 -33t-36 -16t-37.5 15.5 t-15.5 36.5q0 22 15.5 36.5t37.5 14.5zM74 115q0 -32 20.5 -52.5t52.5 -20.5q40 0 77.5 29.5t45.5 68.5l20 109q-110 -23 -163 -44.5t-53 -89.5z" />
<glyph unicode="&#xe5;" horiz-adv-x="461" d="M276 781q44 0 76 -27.5t32 -70.5q0 -56 -40.5 -97.5t-96.5 -41.5q-41 0 -71.5 29.5t-30.5 71.5q0 55 38.5 95.5t92.5 40.5zM249 575q38 0 62 32.5t24 72.5q0 31 -15.5 51t-45.5 20q-40 0 -60.5 -35.5t-20.5 -78.5q3 -27 17 -44.5t39 -17.5zM117 -10q-53 0 -89.5 31 t-36.5 84q0 90 78 123l155 40q79 22 88 87q0 41 -22.5 65.5t-63.5 24.5q-86 0 -129 -77l-16 4q3 12 5 22.5t2 23.5l-1 25q43 21 73 31t66 10q65 0 114 -28t49 -89q0 -19 -4 -47t-9 -49l-32 -168l-6 -36q0 -9 9 -20t18 -12q7 0 15.5 2t18.5 5l14 -25q-41 -25 -86 -25 q-32 0 -47.5 19t-22.5 53q-33 -37 -65 -55.5t-75 -18.5zM73 116q0 -33 21 -54t54 -21q39 0 76.5 30t45.5 69l21 110q-113 -24 -165.5 -45.5t-52.5 -88.5z" />
<glyph unicode="&#xe7;" horiz-adv-x="451" d="M222 -13q-92 0 -153 59t-61 152q0 115 78 199.5t193 84.5q43 0 77.5 -8.5t85.5 -29.5q-10 -24 -17 -43.5t-11 -39.5h-15q-17 38 -46.5 61t-69.5 23q-86 0 -134 -82.5t-48 -176.5q0 -64 32.5 -108.5t94.5 -44.5q43 0 84 17t64 50l15 -11q-15 -31 -24 -64 q-35 -18 -71.5 -28t-73.5 -10zM85 -147q34 -15 58 -22.5t49 -7.5q26 0 44 8.5t18 31.5q0 17 -10 30.5t-26 15.5q-20 0 -35.5 -2t-25.5 -3l31 95h33l-18 -59q6 3 14.5 4t18.5 1q36 0 61.5 -21.5t25.5 -56.5q0 -42 -32 -64t-76 -22q-38 0 -65 7.5t-65 27.5v37z" />
<glyph unicode="&#xe8;" horiz-adv-x="478" d="M103 169q0 -59 36 -97t94 -38q39 0 80 21.5t75 54.5l11 -10q-6 -15 -12 -32.5t-9 -31.5q-38 -24 -78 -36.5t-82 -12.5q-95 0 -153 57t-58 153q0 114 76 199.5t189 85.5q74 0 123 -54t49 -128l-4 -60l-166 2l-167 -2q-4 -31 -4 -71zM326 535l-128 95q-12 7 -20 18t-8 24 q0 11 12.5 23.5t24.5 12.5q11 0 20.5 -6t19.5 -17l119 -150h-40zM234 280h118q5 27 5 46q0 46 -24.5 82.5t-69.5 36.5q-59 0 -95 -48.5t-53 -116.5h119z" />
<glyph unicode="&#xe9;" horiz-adv-x="478" d="M103 169q0 -59 36 -97t94 -38q39 0 80 21.5t75 54.5l11 -10q-6 -15 -12 -32.5t-9 -31.5q-38 -24 -78 -36.5t-82 -12.5q-95 0 -153 57t-58 153q0 114 76 199.5t189 85.5q74 0 123 -54t49 -128q0 -11 -1.5 -26.5t-2.5 -33.5l-166 2l-167 -2q-4 -31 -4 -71zM198 535l139 143 q14 13 26.5 20.5t28.5 7.5q15 0 27.5 -10.5t12.5 -25.5q0 -10 -13.5 -24t-25.5 -20l-154 -91h-41zM234 280h118q5 27 5 46q0 46 -24.5 82.5t-69.5 36.5q-59 0 -95 -48.5t-53 -116.5h119z" />
<glyph unicode="&#xea;" horiz-adv-x="478" d="M103 169q0 -59 36 -97t94 -38q39 0 80 21.5t75 54.5l11 -10q-6 -15 -12 -32.5t-9 -31.5q-38 -24 -78 -36.5t-82 -12.5q-95 0 -153 57t-58 153q0 114 76 199.5t189 85.5q74 0 123 -54t49 -128q0 -10 -2 -34.5t-2 -25.5l-166 2l-167 -2q-4 -31 -4 -71zM380 535l-79 103 l-124 -103h-45l148 168h56l79 -168h-35zM234 280h118q5 27 5 46q0 46 -24.5 82.5t-69.5 36.5q-59 0 -95 -48.5t-53 -116.5h119z" />
<glyph unicode="&#xeb;" horiz-adv-x="478" d="M103 169q0 -59 36 -97t94 -38q39 0 80 21.5t75 54.5l11 -10q-6 -15 -12 -32.5t-9 -31.5q-38 -24 -78 -36.5t-82 -12.5q-95 0 -153 57t-58 153q0 114 76 199.5t189 85.5q74 0 123 -54t49 -128q0 -14 -2 -34t-2 -26l-166 2l-167 -2q-4 -31 -4 -71zM211 665q19 0 36 -15 q6 -7 11 -16t5 -21t-5 -20.5t-15.5 -19.5t-30.5 -11q-23 0 -38 15t-15 37q0 21 15 36t37 15zM380 665q19 0 36 -15q6 -8 11 -17t5 -22q0 -14 -5.5 -22t-15.5 -17.5t-30 -9.5q-22 0 -37 15t-15 37q0 21 15 36t36 15zM234 280h118q5 27 5 46q0 46 -24.5 82.5t-69.5 36.5 q-59 0 -95 -48.5t-53 -116.5h119z" />
<glyph unicode="&#xec;" horiz-adv-x="241" d="M256 806q-6 -22 -21.5 -37.5t-37.5 -15.5q-18 0 -29 5.5t-11 26.5q0 13 5.5 25t17.5 29l160 205l20 -9zM93 472q27 -6 52 -6q27 0 51 6q-39 -130 -62 -247.5t-23 -224.5q-11 1 -26.5 3t-24.5 2q-18 0 -31.5 -2t-22.5 -3q38 130 62.5 251t24.5 221zM169 693q19 0 33 -14 t14 -35q0 -20 -13.5 -34.5t-33.5 -14.5q-21 0 -35 14t-14 34t14 35t35 15z" />
<glyph unicode="&#xed;" horiz-adv-x="241" d="M277 993q8 24 22 38t37 14q19 0 30 -7t11 -26q0 -13 -6.5 -25.5t-18.5 -27.5l-159 -206l-21 9zM93 472q27 -6 52 -6q27 0 51 6q-39 -130 -62 -247.5t-23 -224.5q-11 1 -26.5 3t-24.5 2q-18 0 -31.5 -2t-22.5 -3q38 130 62.5 251t24.5 221zM169 693q19 0 33 -14t14 -35 q0 -20 -13.5 -34.5t-33.5 -14.5q-21 0 -35 14t-14 34t14 35t35 15z" />
<glyph unicode="&#xee;" horiz-adv-x="241" d="M254 536l-79 103l-121 -103h-48l149 168h55l80 -168h-36zM94 471q12 -1 27 -3t24 -2q17 0 28 2l25 3q-42 -133 -65 -247t-23 -224q-10 1 -27 3t-23 2q-8 0 -15.5 -0.5t-38.5 -4.5q22 74 42 157t33 164.5t13 149.5z" />
<glyph unicode="&#xef;" horiz-adv-x="241" d="M94 471q12 -1 27 -3t24 -2q17 0 28 2l25 3q-42 -133 -65 -247t-23 -224q-12 1 -26.5 3t-23.5 2q-19 0 -30 -1.5t-24 -3.5q22 74 42 157t33 164.5t13 149.5zM85 665q20 0 37 -15q5 -8 10 -18t5 -21q0 -13 -5.5 -21.5t-15 -18t-31.5 -9.5q-21 0 -37 15t-16 37q0 21 16 36 t37 15zM254 665q19 0 36 -15q6 -7 11 -16t5 -21t-5 -20.5t-15.5 -19.5t-31.5 -11t-35.5 15.5t-14.5 36.5t14 36t36 15z" />
<glyph unicode="&#xf1;" horiz-adv-x="551" d="M465 542q-55 0 -135 71t-111 71q-57 0 -82.5 -40.5t-25.5 -101.5h-55q0 83 40.5 139.5t122.5 56.5q68 0 134 -72t113 -72q59 0 83 40t24 104h56q0 -85 -40.5 -140.5t-123.5 -55.5zM90 472l42 -6q25 0 49 6q-16 -46 -25 -95q41 50 86 77.5t102 27.5q58 0 97 -33t39 -91 q0 -20 -3 -43t-8 -44l-26 -142q-6 -31 -11 -69l-9 -60l-48 6q-10 0 -23 -2l-25 -4q26 87 45.5 179t19.5 159q-4 40 -25 63t-60 23q-87 0 -130 -71t-56.5 -170t-22.5 -183q-8 0 -25.5 2.5t-21.5 2.5q-11 0 -28.5 -2.5t-19.5 -2.5q36 116 61.5 245t25.5 227z" />
<glyph unicode="&#xf2;" horiz-adv-x="548" d="M355 595q-6 -22 -21.5 -37.5t-37.5 -15.5q-18 0 -29 5.5t-11 26.5q0 13 5.5 25t17.5 29l160 205l20 -9zM268 482q104 0 169.5 -52.5t65.5 -155.5q0 -111 -77 -197.5t-186 -86.5q-103 0 -167.5 52t-64.5 154q0 27 5.5 54t26 81t83.5 102.5t145 48.5zM97 170 q0 -62 30.5 -102.5t90.5 -40.5q93 0 142.5 88.5t49.5 188.5q0 59 -33.5 100.5t-92.5 41.5q-64 0 -108 -50.5t-62 -120.5q-17 -53 -17 -105z" />
<glyph unicode="&#xf3;" horiz-adv-x="548" d="M376 782q8 24 22 38t37 14q19 0 30 -7t11 -26q0 -13 -6.5 -25.5t-18.5 -27.5l-159 -206l-21 9zM268 482q104 0 169.5 -52.5t65.5 -155.5q0 -111 -77 -197.5t-186 -86.5q-103 0 -167.5 52t-64.5 154q0 27 5.5 54t26 81t83.5 102.5t145 48.5zM97 170q0 -62 30.5 -102.5 t90.5 -40.5q93 0 142.5 88.5t49.5 188.5q0 59 -33.5 100.5t-92.5 41.5q-64 0 -108 -50.5t-62 -120.5q-17 -53 -17 -105z" />
<glyph unicode="&#xf4;" horiz-adv-x="548" d="M267 482q104 0 169.5 -52t65.5 -154q0 -114 -76 -200.5t-186 -86.5q-105 0 -169 52.5t-64 156.5q0 33 5 53t26 77t85 105.5t144 48.5zM415 536l-79 103l-121 -103h-48l148 168h57l79 -168h-36zM97 169q0 -59 31.5 -101t89.5 -42q94 0 143 88t49 190q0 60 -33 101t-92 41 q-64 0 -107.5 -50t-62 -112t-18.5 -115z" />
<glyph unicode="&#xf5;" horiz-adv-x="548" d="M424 542q-55 0 -135 71t-111 71q-57 0 -82.5 -40.5t-25.5 -101.5h-55q0 83 40.5 139.5t122.5 56.5q68 0 134 -72t113 -72q59 0 83 40t24 104h56q0 -85 -40.5 -140.5t-123.5 -55.5zM268 482q104 0 169.5 -52.5t65.5 -155.5q0 -111 -77 -197.5t-186 -86.5q-103 0 -167.5 52 t-64.5 154q0 27 5.5 54t26 81t83.5 102.5t145 48.5zM97 170q0 -62 30.5 -102.5t90.5 -40.5q93 0 142.5 88.5t49.5 188.5q0 59 -33.5 100.5t-92.5 41.5q-64 0 -108 -50.5t-62 -120.5q-17 -53 -17 -105z" />
<glyph unicode="&#xf6;" horiz-adv-x="548" d="M267 482q104 0 169.5 -52t65.5 -154q0 -114 -76 -200.5t-186 -86.5q-104 0 -168.5 53t-64.5 156q0 20 7 53t26 83.5t83 99t144 48.5zM246 665q19 0 37 -15q3 -4 9 -13.5t6 -23.5q0 -17 -6 -25.5t-16 -17t-29 -8.5q-22 0 -37.5 15.5t-15.5 36.5q2 22 16.5 36.5t35.5 14.5z M415 665q20 0 37 -15q6 -7 11 -16t5 -21q0 -11 -4 -21q-6 -8 -16.5 -19t-31.5 -11t-36.5 15.5t-15.5 36.5t15 36t36 15zM97 169q0 -59 31.5 -101t89.5 -42q94 0 143 88t49 190q0 60 -33 101t-92 41q-64 0 -107.5 -50t-62 -112t-18.5 -115z" />
<glyph unicode="&#xf7;" horiz-adv-x="820" d="M462 464q0 -21 -16 -37t-38 -16q-21 0 -35.5 15.5t-14.5 36.5t15 36t36 15l19 -3q15 -7 24.5 -20t9.5 -27zM698 270h-576v47h576v-47zM460 123q0 -21 -14 -36t-36 -15q-20 0 -36 15t-16 36t15.5 36.5t35.5 15.5q5 0 9 -1t17 -5t19 -14t6 -32z" />
<glyph unicode="&#xf9;" horiz-adv-x="552" d="M423 0l-43 4q-12 0 -26.5 -1.5t-22.5 -2.5q4 10 11.5 36t14.5 58q-39 -52 -84.5 -78.5t-105.5 -26.5q-57 0 -96.5 33t-39.5 90q0 60 21 164l38 195q11 -2 27 -4t20 -2l48 6q-36 -135 -50 -198.5t-14 -138.5q0 -36 16 -59.5t50 -27.5q137 0 171.5 107t55.5 317 q12 -2 26 -3.5t23 -1.5q16 0 26 1.5t22 3.5q-33 -103 -60.5 -240.5t-27.5 -230.5zM356 536l-128 95q-29 15 -29 43q0 12 12.5 23.5t24.5 11.5q11 0 21 -6t20 -17l117 -150h-38z" />
<glyph unicode="&#xfa;" horiz-adv-x="551" d="M411 782q8 24 22 38t37 14q19 0 30 -7t11 -26q0 -13 -6.5 -25.5t-18.5 -27.5l-159 -206l-21 9zM423 0l-44 4q-11 0 -25 -1.5t-22 -2.5q17 45 24 93q-38 -50 -83.5 -76.5t-104.5 -26.5t-98 32t-39 90q0 50 18 147l41 213q26 -7 46 -7q11 0 23.5 2t25.5 5 q-36 -133 -50.5 -198t-14.5 -141q0 -35 16.5 -58.5t51.5 -27.5q136 0 170.5 107t55.5 318q23 -6 48 -6q24 0 48 6q-32 -105 -59.5 -243t-27.5 -229z" />
<glyph unicode="&#xfb;" horiz-adv-x="552" d="M423 0l-43 4q-12 0 -26.5 -1.5t-22.5 -2.5q4 10 11.5 36t14.5 58q-39 -52 -84.5 -78.5t-105.5 -26.5q-57 0 -96.5 33t-39.5 90q0 60 21 164l38 195q11 -2 27 -4t20 -2l48 6q-36 -135 -50 -198.5t-14 -138.5q0 -36 16 -59.5t50 -27.5q137 0 171.5 107t55.5 317 q12 -2 26 -3.5t23 -1.5q8 0 23 2t25 3q-33 -103 -60.5 -240.5t-27.5 -230.5zM409 536l-79 103l-121 -103h-47l149 168h55l79 -168h-36z" />
<glyph unicode="&#xfc;" horiz-adv-x="552" d="M423 0l-43 4q-12 0 -26.5 -1.5t-22.5 -2.5q4 10 11.5 36t14.5 58q-39 -52 -84.5 -78.5t-105.5 -26.5q-57 0 -96.5 33t-39.5 90q0 60 21 164l38 195q11 -2 27 -4t20 -2l48 6q-36 -135 -50 -198.5t-14 -138.5q0 -36 16 -59.5t50 -27.5q137 0 171.5 107t55.5 317 q12 -2 26 -3.5t23 -1.5q8 0 23 2t25 3q-33 -103 -60.5 -240.5t-27.5 -230.5zM240 665q19 0 37 -15q5 -8 9.5 -17t4.5 -22q0 -17 -8 -30q-3 -2 -13 -10.5t-30 -8.5q-21 0 -36.5 15.5t-15.5 36.5q0 22 15.5 36.5t36.5 14.5zM409 665q20 0 37 -15q5 -8 9.5 -17t4.5 -22 q0 -17 -8 -30q-3 -2 -12 -10.5t-31 -8.5q-21 0 -36.5 15.5t-15.5 36.5q0 22 15.5 36.5t36.5 14.5z" />
<glyph unicode="&#xfd;" horiz-adv-x="436" d="M352 782q8 24 22 38t37 14q19 0 30 -7t11 -26q0 -13 -6.5 -25.5t-18.5 -27.5l-159 -206l-21 9zM64 -127l59 102l-39 184l-37 177l-37 136q15 -3 27.5 -5t25.5 -2q10 0 21.5 1.5t31.5 5.5q12 -117 30 -206l38 -187l71 131q35 61 65.5 122t65.5 140q23 -7 43 -7 q9 0 19.5 1.5t23.5 5.5q-119 -180 -226 -368t-193 -373l-29 5q-15 0 -30 -1t-29 -4l63 86z" />
<glyph unicode="&#xff;" horiz-adv-x="436" d="M192 595q-15 -33 -27.5 -43t-31.5 -10l-20 3q-9 3 -14.5 7.5t-5.5 21.5q0 12 7 27l15 27l161 205l20 -9zM383 595l-12 -26q-7 -15 -18 -21t-30 -6t-29.5 7.5t-10.5 25.5q0 16 7.5 29t16.5 24l159 205l20 -9zM64 -127l59 102l-39 184l-37 177l-37 136q15 -3 27.5 -5 t25.5 -2q10 0 21.5 1.5t31.5 5.5q12 -117 30 -206l38 -187l71 131q35 61 65.5 122t65.5 140q23 -7 43 -7q9 0 19.5 1.5t23.5 5.5q-119 -180 -226 -368t-193 -373l-29 5q-15 0 -30 -1t-29 -4l63 86z" />
<glyph unicode="&#x152;" horiz-adv-x="1260" d="M941 671l169 -3l154 3q-15 -32 -15 -61q-29 5 -57 7t-61 2h-101q-9 -27 -19 -73l-15 -68l-20 -96h85q50 0 74.5 1t70.5 7q-12 -29 -12 -65q-27 4 -61.5 7t-63.5 3h-102l-23 -111q-8 -37 -15.5 -80.5t-14.5 -89.5q103 0 156.5 2.5t100.5 8.5q-5 -13 -7.5 -23.5t-2.5 -21.5 l1 -20l-224 6q-68 0 -134 -6q37 119 78.5 325t58.5 346zM443 686q135 0 227.5 -76t92.5 -210q0 -171 -120 -292t-291 -121q-140 0 -230.5 77t-90.5 215q0 38 19.5 133t132.5 184.5t260 89.5zM436 639q-136 0 -219.5 -109.5t-83.5 -251.5q0 -108 59 -177.5t165 -69.5 q136 0 220.5 105.5t84.5 244.5q0 48 -7 87.5t-30.5 81t-75 65.5t-113.5 24z" />
<glyph unicode="&#x153;" horiz-adv-x="867" d="M489 190q0 -67 34 -111.5t99 -44.5q40 0 80 21t76 55l11 -10q-14 -29 -23 -64q-38 -24 -78 -36.5t-81 -12.5q-56 0 -104 22t-76 68q-78 -89 -204 -89q-96 0 -156 57t-60 153q0 113 80 199t193 86q118 0 190 -86q44 44 88 65.5t101 21.5q77 0 125 -54.5t48 -132.5l-2 -57 l-169 2l-168 -2q-4 -21 -4 -50zM97 169q0 -59 31.5 -101t89.5 -42q94 0 143 88t49 190q0 60 -33 101t-92 41q-64 0 -107.5 -50t-62 -112t-18.5 -115zM625 280h118l3 51q0 45 -24.5 80t-69.5 35q-58 0 -94 -49.5t-53 -116.5h120z" />
<glyph unicode="&#x178;" horiz-adv-x="480" d="M243 799q-15 -33 -27.5 -43t-31.5 -10l-20 3q-9 3 -14.5 7.5t-5.5 21.5q0 12 7 27l15 27l161 205l20 -9zM434 799l-12 -26q-7 -15 -18 -21t-30 -6t-29.5 7.5t-10.5 25.5q0 16 7.5 29t16.5 24l159 205l20 -9zM184 274l-58 146l-46 114l-58 137q24 -3 30.5 -3.5t24.5 -0.5 q9 0 31.5 2t24.5 2q20 -73 34 -114.5t88 -232.5l106 162l55 90q29 50 51 95l42 -4q21 0 32.5 2t18.5 2l-77 -99l-67 -94l-141 -199l-22 -109q-16 -85 -24 -170q-13 1 -29.5 3t-25.5 2q-18 0 -30 -1l-25 -4q21 65 37 144z" />
<glyph unicode="&#x2c6;" horiz-adv-x="241" d="M254 536l-79 103l-121 -103h-48l149 168h55l80 -168h-36z" />
<glyph unicode="&#x3bc;" horiz-adv-x="553" d="M464 466q24 0 48 6q-33 -110 -60 -245t-27 -227l-43 4l-45 -4l16 78q-36 -43 -69.5 -65.5t-79.5 -22.5q-33 0 -57.5 11.5t-51.5 36.5q-19 -75 -35 -164l-25 -143q-13 3 -24 4.5t-21 1.5q-11 0 -24 -2l-25 -4q32 103 60 225.5t51.5 260.5t39.5 255q16 -4 25 -5.5t22 -1.5 q11 0 23.5 2t25.5 5q-37 -124 -50 -194.5t-13 -125.5q0 -42 26.5 -69.5t67.5 -27.5q85 0 125.5 70t52 167t19.5 180q24 -6 48 -6z" />
<glyph unicode="&#x2000;" horiz-adv-x="522" />
<glyph unicode="&#x2001;" horiz-adv-x="1045" />
<glyph unicode="&#x2002;" horiz-adv-x="522" />
<glyph unicode="&#x2003;" horiz-adv-x="1045" />
<glyph unicode="&#x2004;" horiz-adv-x="348" />
<glyph unicode="&#x2005;" horiz-adv-x="261" />
<glyph unicode="&#x2006;" horiz-adv-x="174" />
<glyph unicode="&#x2007;" horiz-adv-x="174" />
<glyph unicode="&#x2008;" horiz-adv-x="130" />
<glyph unicode="&#x2009;" horiz-adv-x="209" />
<glyph unicode="&#x200a;" horiz-adv-x="58" />
<glyph unicode="&#x2010;" horiz-adv-x="321" d="M30 281q20 0 61 -2t62 -2q20 0 60 2t61 2q-6 -16 -10.5 -38t-7.5 -47q-28 0 -71 2.5t-50 2.5q-26 0 -70 -2.5t-54 -2.5q8 23 11.5 39.5t7.5 45.5z" />
<glyph unicode="&#x2011;" horiz-adv-x="321" d="M30 281q20 0 61 -2t62 -2q20 0 60 2t61 2q-6 -16 -10.5 -38t-7.5 -47q-28 0 -71 2.5t-50 2.5q-26 0 -70 -2.5t-54 -2.5q8 23 11.5 39.5t7.5 45.5z" />
<glyph unicode="&#x2013;" horiz-adv-x="500" d="M11 196v85h442v-85h-442z" />
<glyph unicode="&#x2014;" horiz-adv-x="983" d="M150 269h654l-8 -60h-656z" />
<glyph unicode="&#x2018;" horiz-adv-x="270" d="M180 445q-7 -24 -21.5 -39t-37.5 -15q-19 0 -30 5.5t-11 26.5q0 12 6 24t18 30l160 206l21 -9z" />
<glyph unicode="&#x2019;" horiz-adv-x="270" d="M184 631q8 24 22 38t37 14q19 0 30 -7t11 -26q0 -13 -6.5 -25.5t-18.5 -27.5l-159 -206l-21 9z" />
<glyph unicode="&#x201c;" horiz-adv-x="436" d="M176 444q-15 -33 -27.5 -43t-31.5 -10l-20 3q-9 3 -14.5 7.5t-5.5 21.5q0 12 7 27l15 27l161 205l20 -9zM367 444l-12 -26q-7 -15 -18 -21t-30 -6t-29.5 7.5t-10.5 25.5q0 16 7.5 29t16.5 24l159 205l20 -9z" />
<glyph unicode="&#x201d;" horiz-adv-x="436" d="M179 631q13 27 24 39t35 12q19 0 29.5 -7t10.5 -25q0 -14 -6.5 -27t-17.5 -26l-159 -206l-21 9zM369 631q12 25 24 38t36 13q19 0 29 -6.5t10 -24.5q0 -13 -4.5 -22.5t-17.5 -31.5l-160 -206l-20 9z" />
<glyph unicode="&#x2022;" horiz-adv-x="724" d="M362 568q88 0 150.5 -62.5t62.5 -149.5q0 -88 -62.5 -150.5t-150.5 -62.5q-89 0 -150.5 62.5t-61.5 150.5q0 42 16 80.5t45 69t68.5 46.5t82.5 16z" />
<glyph unicode="&#x2026;" horiz-adv-x="835" d="M98 97q21 0 36 -15t15 -37q0 -20 -15 -35t-36 -15q-22 0 -37.5 14.5t-15.5 35.5q0 11 6 19q12 33 47 33zM364 97q21 0 36.5 -15.5t15.5 -36.5t-15.5 -35.5t-36.5 -14.5q-22 0 -37 14t-15 36l3 19q17 33 49 33zM631 97q20 0 35 -15t15 -37q0 -20 -14 -35t-36 -15 t-37.5 14.5t-15.5 35.5q0 12 4 19q13 33 49 33z" />
<glyph unicode="&#x202f;" horiz-adv-x="209" />
<glyph unicode="&#x2039;" horiz-adv-x="820" d="M202 294l490 -201v-52l-565 233v39l565 232v-53z" />
<glyph unicode="&#x203a;" horiz-adv-x="820" d="M693 274l-566 -233v52l491 201l-491 198v53l566 -232v-39z" />
<glyph unicode="&#x205f;" horiz-adv-x="261" />
<glyph unicode="&#x2122;" horiz-adv-x="820" d="M334 670h-84v-227h-38v227h-85v29h207v-29zM530 496l75 203h56v-256h-34v225l-85 -225h-25l-89 225v-225h-33v256h55z" />
</font>
</defs>
</svg>
