<?xml version="1.0" standalone="no"?>
<!DOCTYPE svg PUBLIC "-//W3C//DTD SVG 1.1//EN" "http://www.w3.org/Graphics/SVG/1.1/DTD/svg11.dtd" >
<svg xmlns="http://www.w3.org/2000/svg">
<metadata>
This is a custom SVG webfont generated by Font Squirrel.
Foundry     : Magenta ltd
Foundry URL : http://www.magenta.gr/
</metadata>
<defs>
<font id="webfont5vlWli6X" horiz-adv-x="596" >
<font-face units-per-em="1000" ascent="800" descent="-200" />
<missing-glyph horiz-adv-x="270" />
<glyph unicode=" "  horiz-adv-x="270" />
<glyph unicode="&#x09;" horiz-adv-x="270" />
<glyph unicode="&#xa0;" horiz-adv-x="270" />
<glyph unicode="!" horiz-adv-x="221" d="M265 532q-10 -45 -50 -161l-59 -168h-74q11 138 18 218t14 111l42 197h151zM149 0h-147l31 146h147z" />
<glyph unicode="&#x22;" horiz-adv-x="327" d="M188 435h-95l59 276h95zM350 435h-95l59 276h95z" />
<glyph unicode="#" horiz-adv-x="804" d="M845 520l-57 -101h-139l-68 -118h145l-58 -100h-144l-117 -205h-110l118 205h-121l-117 -205h-110l117 205h-141l57 100h141l68 118h-148l58 101h147l117 204h109l-116 -204h120l118 204h109l-117 -204h139zM542 419h-125l-69 -119h125z" />
<glyph unicode="$" horiz-adv-x="576" d="M598 498h-135q2 16 2 23q0 31 -12.5 51.5t-42.5 24.5l-39 -181q97 -27 141.5 -65.5t44.5 -99.5q0 -23 -4 -39.5t-6 -25.5q-25 -89 -98 -145.5t-170 -56.5l-21 -96h-60l21 96q-92 9 -135.5 49.5t-43.5 118.5q0 29 6 64h132q-1 -10 -1.5 -17.5t-0.5 -12.5q0 -37 15 -61 t51 -33l44 206q-175 22 -175 154q0 23 6 52q20 90 84 144q69 58 172 58l14 64h60l-14 -64q82 0 125 -44t43 -124q0 -19 -3 -40zM314 431l36 167q-39 0 -64 -24t-32 -61q-2 -14 -2 -19q0 -42 62 -63zM302 92q44 9 68 32.5t33 61.5q2 8 2 22q0 51 -63 71z" />
<glyph unicode="%" horiz-adv-x="873" d="M695 349q72 0 111 -42q35 -38 35 -99q0 -84 -61 -153q-67 -76 -165 -76q-72 0 -111 42q-35 38 -35 100q0 85 60 153q66 75 166 75zM638 86q42 0 68.5 29.5t26.5 65.5q0 26 -14 41q-17 18 -48 18q-42 0 -68.5 -29.5t-26.5 -65.5q0 -26 15.5 -42.5t46.5 -16.5zM803 709 l-579 -729h-80l579 729h80zM332 709q71 0 110 -42q35 -38 35 -98q0 -85 -60 -153q-67 -76 -165 -76q-71 0 -107.5 40t-36.5 101q0 86 59 153q66 75 165 75zM309 602q-44 0 -71 -29.5t-27 -66.5q0 -25 16 -42t47 -17q44 0 71 29.5t27 66.5q0 25 -16 42t-47 17z" />
<glyph unicode="&#x26;" horiz-adv-x="725" d="M655 -1h-168l-37 61q-142 -94 -248 -94q-113 0 -151 106q-15 42 -15 83q0 72 48 134q52 66 160 120q-24 43 -29 55q-14 32 -14 63q0 13 3 27q18 82 87 131q63 44 139 44q64 0 108 -33.5t44 -92.5v-16q-3 -13 -4 -19q-12 -56 -58 -104q-34 -35 -100 -76l78 -129 q40 59 61 121h130q-42 -122 -133 -219zM453 567q2 12 2 16q0 20 -13.5 31.5t-33.5 11.5q-23 0 -43.5 -14.5t-26.5 -41.5q-2 -10 -2 -16q0 -20 11 -42q6 -12 23 -37q27 16 50 39q27 28 33 53zM393 154l-96 164q-58 -33 -85.5 -64.5t-27.5 -64.5q0 -21 9 -42q22 -50 78 -50 q29 0 59 13.5t63 43.5z" />
<glyph unicode="'" horiz-adv-x="208" d="M266 601q-13 -59 -61 -102t-109 -48l11 51q78 21 94 95h-73l28 132h138z" />
<glyph unicode="(" horiz-adv-x="350" d="M235 -211h-105q-41 83 -63 163q-25 91 -25 179q0 30 3 61t10 65q26 122 103 249q67 109 173 223h105q-88 -108 -148 -226q-63 -123 -89 -245q-19 -88 -19 -176q0 -77 13.5 -148.5t41.5 -144.5z" />
<glyph unicode=")" horiz-adv-x="350" d="M335 257q-26 -122 -103 -247q-65 -107 -172 -221h-105q88 108 149 227.5t87 241.5q10 45 14 86.5t4 86.5q0 77 -13.5 150.5t-39.5 147.5h105q41 -80 64.5 -167t23.5 -174q0 -35 -3 -65.5t-11 -65.5z" />
<glyph unicode="*" d="M627 533l-148 -37l71 -118l-100 -62l-59 125l-113 -124l-72 60l122 119l-131 38l53 100l123 -46l30 141h100l-30 -141l140 46z" />
<glyph unicode="+" d="M619 254h-217l-54 -254h-101l54 254h-216l21 98h216l54 253h101l-54 -253h217z" />
<glyph unicode="," horiz-adv-x="218" d="M149 4q-15 -67 -64.5 -112.5t-121.5 -63.5l12 57q87 31 105 114h-80l32 149h148z" />
<glyph unicode="-" horiz-adv-x="378" d="M341 201h-278l29 136h278z" />
<glyph unicode="." horiz-adv-x="218" d="M148 0h-148l32 149h148z" />
<glyph unicode="/" d="M615 749l-427 -842h-67l426 842h68z" />
<glyph unicode="0" d="M295 -18q-98 0 -150 73q-47 66 -47 176q0 171 97 317q106 160 255 160q98 0 150 -74q46 -66 46 -178q0 -170 -96 -315q-105 -159 -255 -159zM320 99q69 0 124 125q51 115 51 234q0 61 -17 97t-53 36q-68 0 -124 -125q-52 -116 -52 -235q0 -61 17 -96.5t54 -35.5z" />
<glyph unicode="1" d="M453 0h-140l104 485h-170l21 98q88 0 132 20q60 27 90 106h115z" />
<glyph unicode="2" d="M655 493q-22 -104 -99 -167q-33 -27 -157 -92q-103 -54 -152 -113h322l-26 -121h-497q24 126 136 217q8 7 203 129q110 69 125 139q2 8 2 24q0 37 -24.5 60.5t-60.5 23.5q-43 0 -78 -31q-41 -36 -63 -106h-131q32 125 122 194q80 61 179 61q86 0 145 -46.5t59 -127.5 q0 -8 -0.5 -15t-4.5 -29z" />
<glyph unicode="3" d="M597 209q-23 -106 -119 -172q-88 -60 -192 -60q-88 0 -142 43q-61 48 -61 137q0 18 1 28t6 31h136q-2 -7 -3 -17t-1 -17q0 -42 26 -64.5t64 -22.5q47 0 84 27q41 30 52 81q3 17 3 29q0 46 -44 65q-33 14 -94 14l21 98q59 0 97 18q49 24 61 78q2 7 2 21q0 32 -21.5 51.5 t-54.5 19.5q-38 0 -70 -27q-37 -31 -52 -88h-135q24 111 111 173q78 55 176 55q82 0 139 -41.5t57 -112.5q0 -7 -0.5 -15t-3.5 -23q-10 -45 -42 -82q-28 -33 -75 -60q39 -22 58.5 -53t19.5 -74q0 -21 -4 -40z" />
<glyph unicode="4" d="M591 153h-83l-33 -153h-137l33 153h-300l26 124l350 413h175l-90 -424h83zM397 262l65 304l-259 -304h194z" />
<glyph unicode="5" d="M602 230q-25 -116 -125 -187q-91 -64 -198 -64q-85 0 -139 43q-59 47 -59 130q0 18 3 38h139q-1 -6 -1.5 -13t-0.5 -10q0 -34 25 -54t62 -20q47 0 87 31q46 36 59 98q4 16 4 33q0 43 -27.5 69.5t-66.5 26.5q-28 0 -53.5 -11.5t-49.5 -37.5l-127 6l127 382h407l-25 -121 h-308l-48 -142q29 19 61.5 29.5t62.5 10.5q80 0 138 -56t58 -137q0 -8 -0.5 -15t-4.5 -29z" />
<glyph unicode="6" d="M649 528h-144q0 31 -19.5 49.5t-49.5 18.5q-48 0 -89 -42q-49 -50 -69 -143q67 48 145 48q92 0 142 -53q45 -48 45 -125q0 -112 -83 -202q-92 -100 -228 -100q-107 0 -158 66q-44 57 -44 159q0 59 14 124q41 192 152 295q95 88 209 88q76 0 127.5 -42.5t51.5 -112.5v-14 q-2 -10 -2 -14zM328 92q59 0 98.5 49.5t39.5 107.5q0 41 -22 67q-25 29 -70 29q-61 0 -101 -50q-36 -45 -36 -103q0 -43 23 -71.5t68 -28.5z" />
<glyph unicode="7" d="M673 582q-141 -131 -230 -268.5t-148 -313.5h-147q53 170 143 304q77 116 225 264h-348l26 122h502z" />
<glyph unicode="8" d="M529 372q37 -23 55 -56.5t18 -72.5q0 -97 -87 -178q-92 -86 -220 -86q-106 0 -164 53q-52 48 -52 123q0 64 39 124.5t108 92.5q-30 23 -44.5 52.5t-14.5 61.5q0 85 84.5 154.5t198.5 69.5q91 0 145 -47t54 -115q0 -49 -29 -94.5t-91 -81.5zM389 425q53 0 86.5 31.5 t33.5 69.5q0 30 -21 50t-63 20q-53 0 -86.5 -31.5t-33.5 -71.5q0 -29 21 -48.5t63 -19.5zM319 97q60 0 98 42q35 38 35 88q0 38 -21 61q-24 26 -68 26q-57 0 -95.5 -42.5t-38.5 -92.5q0 -35 22.5 -58.5t67.5 -23.5z" />
<glyph unicode="9" d="M630 355q-40 -188 -147 -290q-93 -89 -202 -89q-80 0 -133.5 50t-53.5 135h144v-7q0 -25 18 -42q22 -21 55 -21q47 0 85 40q47 49 69 146q-26 -21 -69.5 -35.5t-77.5 -14.5q-91 0 -139 53q-44 48 -44 127q0 112 82 202q91 100 229 100q107 0 156 -65q43 -56 43 -158 q0 -31 -4 -63.5t-11 -67.5zM372 343q61 0 99 48q34 43 34 100q0 45 -22 74.5t-66 29.5q-56 0 -95.5 -51t-39.5 -109q0 -41 22 -66.5t68 -25.5z" />
<glyph unicode=":" horiz-adv-x="219" d="M149 0h-149l32 149h149zM230 380h-149l32 149h149z" />
<glyph unicode=";" horiz-adv-x="220" d="M231 380h-150l32 149h150zM151 5q-15 -70 -64 -114t-123 -62l13 57q49 17 74 42.5t31 71.5h-82l32 149h150z" />
<glyph unicode="&#x3c;" d="M573 13l-493 241l21 97l596 241l-24 -109l-442 -180l365 -181z" />
<glyph unicode="=" d="M652 361h-554l21 96h554zM606 147h-554l21 97h554z" />
<glyph unicode="&#x3e;" d="M624 254l-595 -241l23 109l441 181l-364 180l24 109l492 -241z" />
<glyph unicode="?" horiz-adv-x="565" d="M608 529q-15 -72 -75 -123l-107 -79q-57 -48 -67 -116h-133l15 71q10 46 71 94q134 105 143 146q2 9 2 25q0 36 -22.5 56.5t-56.5 20.5q-40 0 -74 -28q-39 -32 -55 -92h-140q15 116 108 184q83 61 188 61q88 0 145 -43q63 -48 63 -130q0 -10 -1 -22.5t-4 -24.5zM321 0 h-146l31 146h146z" />
<glyph unicode="@" horiz-adv-x="989" d="M795 -38q-171 -114 -361 -114q-193 0 -296 96q-92 86 -92 227q0 205 169 376q184 187 445 187q175 0 266 -87q80 -76 80 -200q0 -147 -102 -267q-108 -127 -256 -127q-52 0 -67 12q-21 16 -21 69q-36 -37 -77.5 -58.5t-86.5 -21.5q-67 0 -99.5 33.5t-32.5 88.5 q0 106 91 212q97 113 212 113q38 0 63.5 -17t42.5 -49l36 50h89l-77 -163q-64 -135 -67 -151q-4 -17 8 -27t30 -10q84 0 153 95t69 203q0 96 -58 153q-68 67 -202 67q-224 0 -378 -153q-141 -140 -141 -310q0 -115 75 -185q83 -78 240 -78q75 0 161 25t157 67zM628 348 q3 6 3.5 12.5t1.5 10.5q0 24 -22 41t-50 17q-70 0 -130 -83q-56 -78 -56 -151q0 -31 14 -50t42 -19q47 0 87 33.5t61 80.5z" />
<glyph unicode="A" horiz-adv-x="770" d="M696 0h-158l-17 150h-283l-81 -150h-157l416 729h172zM507 271l-36 312l-168 -312h204z" />
<glyph unicode="B" horiz-adv-x="675" d="M570 394q39 -17 60.5 -53t21.5 -82q0 -21 -4 -40q-22 -105 -120 -165q-87 -54 -196 -54h-332l156 729h344q83 0 136 -35q59 -39 59 -110q0 -16 -5 -41q-10 -48 -41.5 -89t-78.5 -60zM412 447q41 0 75 18q42 22 50 61q2 12 2 16q0 30 -29.5 45.5t-66.5 15.5h-171l-33 -156 h173zM349 131q50 0 88 21q46 25 56 72q2 14 2 19q0 38 -31.5 58t-74.5 20h-177l-41 -190h178z" />
<glyph unicode="C" horiz-adv-x="751" d="M752 249q-54 -127 -163 -198.5t-240 -71.5q-133 0 -209 84q-72 79 -72 207q0 48 10 95q36 166 155 273q124 111 289 111q118 0 197.5 -72.5t79.5 -187.5h-158q-8 58 -49 93t-103 35q-97 0 -170 -79q-65 -71 -87 -172q-8 -38 -8 -72q0 -80 36 -128q41 -55 119 -55 q67 0 122 36.5t94 101.5h157z" />
<glyph unicode="D" horiz-adv-x="697" d="M444 729q127 0 198 -73t71 -191q0 -38 -10 -88q-35 -166 -163 -271.5t-295 -105.5h-245l156 729h288zM416 602h-139l-101 -471h120q98 0 168 68q65 63 87 164q3 16 5 32t2 33q0 74 -33 121q-37 53 -109 53z" />
<glyph unicode="E" horiz-adv-x="593" d="M548 0h-548l156 729h529l-27 -127h-381l-33 -155h349l-27 -126h-349l-40 -187h400z" />
<glyph unicode="F" horiz-adv-x="560" d="M638 602h-361l-36 -165h317l-27 -126h-317l-66 -311h-148l156 729h509z" />
<glyph unicode="G" horiz-adv-x="761" d="M699 -1h-102l1 86q-60 -53 -123 -79.5t-134 -26.5q-131 0 -205 84q-69 79 -69 206q0 46 11 98q36 164 152 270q123 112 285 112q121 0 200 -65q84 -69 84 -182h-162q-8 51 -48.5 83.5t-96.5 32.5q-99 0 -173 -80q-67 -71 -88 -174q-4 -19 -6 -35t-2 -35q0 -81 39 -129 q43 -54 126 -54q67 0 128 47q56 43 89 111h-153l27 125h304z" />
<glyph unicode="H" horiz-adv-x="686" d="M603 0h-151l69 324h-301l-69 -324h-151l156 729h151l-58 -272h301l58 272h151z" />
<glyph unicode="I" horiz-adv-x="263" d="M180 0h-150l156 729h150z" />
<glyph unicode="J" horiz-adv-x="547" d="M512 212q-26 -122 -92 -177.5t-188 -55.5q-103 0 -149 44q-41 40 -41 120q0 52 16 127h144l-11 -47q-7 -33 -7 -54q0 -32 15 -48.5t54 -16.5q51 0 78 35q21 27 33 82l109 508h150z" />
<glyph unicode="K" horiz-adv-x="717" d="M648 0h-182l-167 333l-94 -77l-55 -256h-150l156 729h150l-64 -300l349 300h187l-353 -295z" />
<glyph unicode="L" horiz-adv-x="549" d="M507 0h-507l156 729h150l-127 -595h357z" />
<glyph unicode="M" horiz-adv-x="817" d="M734 0h-141l126 589l-274 -589h-155l-24 589l-126 -589h-140l156 729h223l25 -555l262 555h224z" />
<glyph unicode="N" horiz-adv-x="683" d="M600 0h-155l-190 501l-107 -501h-148l156 729h156l190 -502l107 502h147z" />
<glyph unicode="O" horiz-adv-x="788" d="M354 -21q-137 0 -214 81q-73 77 -73 206q0 45 11 98q35 164 153 272q124 113 287 113q137 0 214 -82q73 -77 73 -206q0 -21 -3 -47t-8 -50q-36 -164 -154 -272q-124 -113 -286 -113zM382 111q97 0 171 81q66 72 87 173q8 38 8 71q0 79 -37 127q-42 54 -121 54 q-99 0 -172 -79q-65 -70 -87 -173q-8 -38 -8 -71q0 -80 37 -128q42 -55 122 -55z" />
<glyph unicode="P" horiz-adv-x="603" d="M206 260l-56 -260h-150l156 729h324q87 0 136.5 -49.5t49.5 -130.5q0 -28 -6 -58q-22 -99 -95.5 -165t-172.5 -66h-186zM433 602h-153l-45 -210h145q50 0 86 24q40 27 50 76q3 12 3 25q0 36 -23.5 60.5t-62.5 24.5z" />
<glyph unicode="Q" horiz-adv-x="789" d="M723 34l-99 -85l-71 81q-44 -27 -95.5 -39t-104.5 -12q-136 0 -213 81q-73 77 -73 205q0 45 11 98q35 164 153 272q125 114 287 114q136 0 213 -82q74 -79 74 -207q0 -20 -3 -45.5t-8 -49.5q-30 -141 -133 -255zM572 215q25 32 41.5 70t25 77t8.5 75q0 78 -34 125 q-40 55 -117 55q-101 0 -177 -80q-69 -72 -91 -176q-7 -32 -7 -69q0 -79 37 -126q41 -53 120 -53q46 0 93 18l-61 76l99 85z" />
<glyph unicode="R" horiz-adv-x="682" d="M602 0h-164q-6 20 -6 41q0 26 10 71q5 21 9 41t6 32.5t2 25.5q0 36 -20.5 54t-69.5 18h-159l-60 -283h-150l156 729h354q87 0 142.5 -39.5t55.5 -114.5q0 -19 -5 -46q-13 -59 -51 -107q-41 -52 -98 -72q36 -14 51 -39.5t15 -61.5q0 -29 -11 -78q-6 -24 -10 -43t-5 -25 q-4 -20 -4 -35q0 -16 3.5 -26.5t13.5 -18.5zM462 603h-183l-41 -191h176q47 0 84 23q42 26 51 72q2 7 2 21q0 35 -25 55t-64 20z" />
<glyph unicode="S" horiz-adv-x="659" d="M642 221q-24 -114 -128 -181q-94 -61 -213 -61q-110 0 -180 55q-74 58 -74 159v16q0 8 2 20h150q-1 -5 -1 -15q0 -50 44 -79q40 -26 96 -26q51 0 93 21q51 26 61 73q2 14 2 19q0 50 -97 75q-174 45 -180 47q-98 40 -98 126q0 25 5 48q23 107 122 172q90 59 202 59 q103 0 169 -52.5t66 -145.5q0 -17 -3 -37h-144q1 5 1 13q0 47 -34.5 72t-86.5 25q-48 0 -87 -20q-48 -25 -58 -69q-2 -12 -2 -17q0 -49 98 -74q179 -45 182 -46q98 -40 98 -128q0 -11 -1 -23.5t-4 -25.5z" />
<glyph unicode="T" horiz-adv-x="644" d="M710 598h-216l-128 -598h-151l128 598h-215l28 131h582z" />
<glyph unicode="U" horiz-adv-x="667" d="M641 261q-27 -126 -126.5 -204t-226.5 -78q-108 0 -174 58t-66 157q0 29 8 67l100 468h151l-97 -451q-5 -25 -5 -44q0 -54 28.5 -89t84.5 -35q66 0 116 52q44 46 59 116l97 451h151z" />
<glyph unicode="V" horiz-adv-x="718" d="M801 729l-405 -729h-146l-94 729h167l38 -545l275 545h165z" />
<glyph unicode="W" horiz-adv-x="1007" d="M1086 729l-364 -729h-144l6 559l-231 -559h-145l-52 729h155l15 -514l215 514h160l-4 -514l234 514h155z" />
<glyph unicode="X" horiz-adv-x="719" d="M644 0h-173l-96 253l-203 -253h-172l307 372l-151 357h172l95 -254l203 254h174l-304 -355z" />
<glyph unicode="Y" horiz-adv-x="670" d="M758 729l-317 -458l-58 -271h-151l58 271l-134 458h150l91 -314l210 314h151z" />
<glyph unicode="Z" horiz-adv-x="652" d="M708 602l-499 -471h390l-28 -131h-571l27 127l498 470h-389l28 132h571z" />
<glyph unicode="[" horiz-adv-x="320" d="M204 -216h-250l202 945h250l-23 -106h-115l-157 -734h115z" />
<glyph unicode="\" horiz-adv-x="383" d="M293 -93h-67l-66 842h66z" />
<glyph unicode="]" horiz-adv-x="321" d="M205 -216h-251l22 105h117l157 734h-117l23 106h251z" />
<glyph unicode="^" d="M583 602h-68l-65 109l-109 -109h-70l136 183h116z" />
<glyph unicode="_" d="M501 -240h-508l22 103h508z" />
<glyph unicode="`" horiz-adv-x="207" d="M238 471h-137l27 127q12 57 61 101t108 50l-11 -51q-42 -12 -63.5 -33.5t-29.5 -62.5h73z" />
<glyph unicode="a" horiz-adv-x="566" d="M504 0h-151q-5 22 -5 41v13q2 9 2 13q-36 -40 -85.5 -63t-99.5 -23q-64 0 -101 34t-37 92q0 18 5 41q23 108 117 147q38 16 167 31q89 11 97 50q1 4 1 12q0 24 -24.5 38t-53.5 14q-37 0 -67 -21t-37 -57h-136q20 95 91.5 145.5t168.5 50.5q72 0 133 -32q72 -38 72 -101 q0 -12 -3 -26l-64 -300q-2 -12 -3 -17.5t-1 -16.5q0 -30 19 -41zM381 214l10 50q-80 -19 -125 -32q-83 -25 -94 -76q-2 -10 -2 -14q0 -24 18.5 -37.5t45.5 -13.5q53 0 94.5 35t52.5 88z" />
<glyph unicode="b" horiz-adv-x="592" d="M296 -18q-50 0 -86.5 23.5t-55.5 67.5l-16 -73h-138l156 729h140l-55 -256q35 41 82 63t96 22q86 0 130 -62q38 -54 38 -143q0 -42 -9 -83q-25 -112 -94 -193q-82 -95 -188 -95zM353 432q-60 0 -105 -54q-38 -45 -52 -110q-4 -23 -4.5 -33.5t-0.5 -16.5q0 -49 19 -78 q23 -35 70 -35q60 0 105 55q38 46 52 110q5 27 5 48q0 50 -19 79q-23 35 -70 35z" />
<glyph unicode="c" d="M584 203q-40 -100 -124.5 -160.5t-186.5 -60.5q-103 0 -163.5 59.5t-60.5 156.5q0 21 1 32t6 34q26 122 116 205q95 88 214 88q107 0 168.5 -53.5t61.5 -153.5h-155q-6 38 -30 62.5t-64 24.5q-59 0 -106 -53q-42 -47 -56 -111q-6 -26 -6 -54q0 -51 21 -82q25 -36 74 -36 q44 0 82 29t58 73h150z" />
<glyph unicode="d" horiz-adv-x="602" d="M520 0h-138l16 73q-37 -43 -84 -67t-99 -24q-86 0 -129 61q-38 53 -38 142q0 42 9 84q25 113 94 194q81 95 187 95q49 0 87 -22.5t56 -62.5l55 256h140zM353 433q-58 0 -103 -55q-38 -47 -52 -109q-3 -17 -4 -25t-1 -26q0 -49 20.5 -81.5t66.5 -32.5q61 0 106 53 q38 45 52 110q4 23 4.5 33.5t0.5 16.5q0 51 -19 80q-23 36 -71 36z" />
<glyph unicode="e" horiz-adv-x="582" d="M559 231h-361q-2 -8 -3 -18.5t-1 -18.5q0 -45 24.5 -69t62.5 -24q66 0 113 62h145q-45 -88 -126 -137q-74 -45 -157 -45q-89 0 -146 52q-62 57 -62 157q0 35 9 76q31 147 117 226t206 79q97 0 148 -49t51 -150q0 -59 -20 -141zM431 326q2 7 3 17t1 17q0 40 -23.5 60.5 t-62.5 20.5q-47 0 -82.5 -30t-46.5 -85h211z" />
<glyph unicode="f" horiz-adv-x="378" d="M401 438h-89l-94 -438h-141l94 438h-77l21 101h77q22 105 59 145q45 50 144 50l68 -3l-24 -115h-45q-36 0 -48 -21q-3 -6 -14 -56h90z" />
<glyph unicode="g" horiz-adv-x="604" d="M528 35q-29 -138 -103.5 -196t-214.5 -58q-87 0 -141 32q-64 38 -64 113q0 14 1 22h158q3 -28 24.5 -40t54.5 -12q73 0 107 44q25 32 42 111l5 24q-32 -38 -75.5 -56.5t-91.5 -18.5q-90 0 -137 57q-43 52 -43 139q0 29 1.5 41.5t6.5 34.5q24 112 98 194q83 92 191 92 q101 0 138 -85l14 66h137zM291 120q57 0 100 51q36 43 49 104q4 22 4.5 31.5t0.5 15.5q0 49 -20 78q-23 34 -70 34q-58 0 -101 -51q-37 -43 -50 -105q-3 -16 -4 -23t-1 -23q0 -49 20 -78q24 -34 72 -34z" />
<glyph unicode="h" horiz-adv-x="563" d="M482 0h-144l60 281q3 16 5.5 39t2.5 34q0 38 -11 58q-14 25 -47 25q-42 0 -84 -38t-51 -81l-68 -318h-145l156 729h145l-54 -250q40 36 86.5 56.5t92.5 20.5q69 0 105 -43q33 -39 33 -105q0 -12 -1.5 -26.5t-5.5 -32.5z" />
<glyph unicode="i" horiz-adv-x="235" d="M282 597h-144l28 132h144zM154 0h-144l115 539h144z" />
<glyph unicode="j" horiz-adv-x="260" d="M302 597h-144l28 132h144zM156 -86q-16 -74 -67 -107q-44 -29 -121 -29l-48 2l26 121h15q24 0 37.5 7t18.5 30l128 601h144z" />
<glyph unicode="k" horiz-adv-x="555" d="M496 0h-172l-80 228l-66 -57l-37 -171h-141l156 729h141l-82 -381l212 191h174l-231 -201z" />
<glyph unicode="l" horiz-adv-x="261" d="M173 0h-143l156 729h143z" />
<glyph unicode="m" horiz-adv-x="845" d="M767 0h-143l74 348q2 7 2 22q0 26 -16.5 42.5t-44.5 16.5q-42 0 -75 -30t-42 -72l-70 -327h-140l74 346q2 6 2 12v8q0 62 -64 62q-43 0 -73 -29t-39 -73l-70 -326h-142l115 539h136l-13 -60q35 36 78 57t86 21q45 0 80 -22t57 -60q33 39 76.5 61t90.5 22q66 0 106 -40 t40 -103q0 -7 -0.5 -15t-3.5 -23z" />
<glyph unicode="n" horiz-adv-x="563" d="M482 0h-144l70 326q1 8 2.5 16t1.5 19q0 33 -15 52.5t-50 19.5q-45 0 -85 -34.5t-50 -80.5l-68 -318h-144l115 539h140l-13 -64q33 39 81.5 61t95.5 22q70 0 108.5 -38.5t38.5 -103.5q0 -23 -6 -49z" />
<glyph unicode="o" horiz-adv-x="627" d="M270 -18q-104 0 -162.5 59.5t-58.5 156.5q0 32 8 70q27 125 119.5 207.5t216.5 82.5q104 0 163 -60t59 -158q0 -32 -8 -72q-27 -124 -120.5 -205t-216.5 -81zM295 102q63 0 109 54q40 47 54 113q6 26 6 51q0 50 -22 81q-26 36 -76 36q-61 0 -108 -55q-39 -46 -54 -113 q-5 -27 -5 -49q0 -52 21 -82q25 -36 75 -36z" />
<glyph unicode="p" horiz-adv-x="593" d="M296 -18q-49 0 -87 21.5t-55 62.5l-60 -281h-140l161 755h138l-15 -74q37 43 84 67.5t97 24.5q86 0 130 -62q38 -53 38 -142q0 -42 -9 -83q-25 -113 -94 -194q-81 -95 -188 -95zM355 434q-61 0 -106 -53q-38 -45 -52 -110q-6 -24 -6 -50q0 -50 20 -80q24 -35 72 -35 q59 0 103 54q37 45 50 108q6 24 6 52q0 49 -19 79q-22 35 -68 35z" />
<glyph unicode="q" horiz-adv-x="600" d="M474 -215h-140l61 285q-77 -88 -179 -88q-86 0 -130 61q-38 53 -38 142q0 42 9 83q25 114 94 195q81 95 188 95q48 0 85.5 -23.5t58.5 -63.5l14 69h138zM353 433q-58 0 -102 -53q-37 -45 -51 -107q-3 -15 -4 -24.5t-1 -27.5q0 -50 18 -80q22 -37 67 -37q60 0 106 53 q39 46 53 110q6 24 6 50q0 50 -20 80q-24 36 -72 36z" />
<glyph unicode="r" horiz-adv-x="369" d="M398 406q-81 0 -122 -20q-55 -27 -71 -101l-61 -285h-144l115 539h132l-20 -94q83 108 202 108z" />
<glyph unicode="s" horiz-adv-x="558" d="M525 165q-19 -89 -111 -141q-79 -45 -173 -45q-88 0 -144 40q-62 44 -62 122q0 17 3 35h145q-1 -5 -1 -13q0 -35 28 -53t68 -18q31 0 59 12q36 15 42 44q1 3 1 7q0 30 -66 48q-136 37 -140 39q-78 35 -78 105v15q0 6 4 22q17 82 103 132q75 44 162 44q84 0 137 -42.5 t53 -120.5q0 -14 -1 -21h-140q1 5 1 9q0 29 -21 45q-25 18 -62 18q-27 0 -54.5 -11.5t-32.5 -35.5q-1 -3 -1 -7q0 -29 66 -50q136 -42 140 -44q78 -36 78 -102q0 -21 -3 -33z" />
<glyph unicode="t" horiz-adv-x="368" d="M296 -4q-16 0 -52.5 -2t-38.5 -2q-61 0 -86.5 20.5t-25.5 67.5q0 26 8 66l63 292h-70l21 101h70l31 146h144l-31 -146h83l-21 -101h-83l-65 -300q-4 -21 8 -28t35 -7h17q8 0 16 1z" />
<glyph unicode="u" horiz-adv-x="563" d="M481 0h-140l14 64q-42 -36 -91.5 -57t-98.5 -21q-66 0 -100 36t-34 98q0 25 6 52l78 367h143l-69 -326q-4 -16 -4 -36q0 -33 15.5 -52.5t49.5 -19.5q46 0 85.5 33.5t49.5 80.5l68 320h143z" />
<glyph unicode="v" d="M648 539l-307 -539h-149l-77 539h160l26 -387l195 387h152z" />
<glyph unicode="w" horiz-adv-x="828" d="M876 539l-265 -539h-145l-4 386l-165 -386h-145l-37 539h146l8 -375l155 375h147l-3 -375l169 375h139z" />
<glyph unicode="x" horiz-adv-x="595" d="M532 0h-169l-62 171l-135 -171h-166l241 275l-118 264h164l61 -163l129 163h160l-226 -262z" />
<glyph unicode="y" d="M647 539l-343 -616q-37 -65 -81 -93.5t-112 -28.5q-16 0 -35.5 1.5t-30.5 2.5l25 116q10 -1 19 -2.5t22 -1.5q21 0 37 7.5t23.5 17.5t12.5 22t6 18.5t1 8.5q0 20 -15 135l-35 245l-26 168h157l31 -390l193 390h151z" />
<glyph unicode="z" horiz-adv-x="542" d="M478 0h-478l24 111l363 314h-278l24 114h450l-25 -118l-356 -302h301z" />
<glyph unicode="{" horiz-adv-x="431" d="M317 -205q-115 0 -164 35q-40 29 -40 86q0 36 23 111t23 105q0 38 -23 57q-27 22 -91 22l22 104q133 0 158 107l40 201q53 108 252 108l-22 -103q-106 0 -131 -76l-26 -158q-27 -98 -133 -131q44 -10 62 -35t18 -61q0 -32 -20 -101t-20 -97q0 -33 21 -51.5t73 -18.5z" />
<glyph unicode="|" horiz-adv-x="173" d="M174 333h-103l81 376h103zM66 -174h-103l80 376h103z" />
<glyph unicode="}" horiz-adv-x="430" d="M405 211q-130 0 -154 -107l-40 -201q-54 -108 -255 -108l22 104q101 0 127 79l30 159q29 97 133 126q-45 14 -63 40.5t-18 64.5q0 34 20.5 102t20.5 92q0 33 -19 48q-22 18 -75 18l22 103q116 0 165 -34q41 -29 41 -85q0 -38 -25.5 -115.5t-25.5 -105.5q0 -37 25 -56.5 t91 -19.5z" />
<glyph unicode="~" horiz-adv-x="683" d="M762 697q-21 -98 -73 -156q-61 -68 -156 -68q-66 0 -125.5 62.5t-92.5 62.5q-49 0 -79 -40q-23 -31 -35 -85h-100q20 94 75 154q63 69 154 69q65 0 124 -63t98 -63q48 0 76 42q19 28 34 85h100z" />
<glyph unicode="&#xa3;" horiz-adv-x="586" d="M522 28q-47 -24 -88.5 -34.5t-74.5 -10.5q-36 0 -116 23q-42 12 -67 12q-28 0 -58 -9t-66 -30l-34 103q81 52 107 82q36 41 36 95q0 23 -8 58h-85l11 54h53q-6 26 -10.5 53t-4.5 53q0 18 3 35q19 87 106 144q81 53 177 53q86 0 140 -46q61 -52 61 -149v-15q-2 -12 -2 -18 h-138q2 18 2 25q0 46 -24.5 69t-62.5 23q-39 0 -72.5 -24.5t-42.5 -65.5q-3 -15 -3 -30q0 -23 7 -52l15 -55h141l-11 -54h-122q0 -76 -31 -122q-24 -36 -104 -98q30 13 57.5 18.5t51.5 5.5q25 0 86 -12q30 -6 48 -6q26 0 48.5 7t52.5 26z" />
<glyph unicode="&#xa4;" horiz-adv-x="594" d="M647 570l-116 -95q4 -19 4.5 -25.5t0.5 -14.5q0 -56 -33 -104l72 -92l-91 -77l-75 92q-38 -16 -82 -16q-43 0 -75 16l-112 -92l-59 76l110 92q-3 15 -3 32q0 59 38 112l-75 97l93 75l78 -99q36 12 74 12q21 0 36.5 -3t32.5 -9l121 99zM376 464q-39 0 -63 -25t-24 -56 q0 -22 14.5 -36.5t43.5 -14.5q39 0 63 25t24 56q0 22 -14.5 36.5t-43.5 14.5z" />
<glyph unicode="&#xa5;" horiz-adv-x="670" d="M237 450l-81 279h150l91 -314l210 314h151l-194 -279h92l-23 -110h-144l-42 -60h173l-24 -110h-177l-36 -170h-151l36 170h-175l24 110h170l-17 60h-140l23 110h84z" />
<glyph unicode="&#xa6;" horiz-adv-x="173" d="M174 333h-103l81 376h103zM66 -174h-103l80 376h103z" />
<glyph unicode="&#xa7;" horiz-adv-x="526" d="M528 338q-20 -95 -117 -140q35 -37 35 -92q0 -15 -3 -30q-17 -81 -91 -131q-69 -47 -150 -47q-68 0 -110 35q-47 39 -47 111q0 16 3 34h122q0 -39 18.5 -58t46.5 -19q27 0 50.5 16.5t29.5 42.5q1 4 1 12q0 34 -63 69q-117 65 -119 66q-64 46 -64 105q0 14 3 31 q9 44 39 76.5t77 55.5q-14 15 -22.5 34.5t-8.5 39.5q0 6 2 20q18 84 87 135q63 46 139 46q65 0 109 -36.5t44 -106.5v-12q-2 -10 -2 -14h-119q2 12 2 17q0 25 -17 37.5t-43 12.5t-48 -13.5t-27 -37.5q-1 -3 -1 -7q0 -30 56 -60l123 -63q68 -44 68 -101q0 -13 -3 -28z M354 241q51 31 51 63q0 16 -12 30.5t-35 27.5l-115 67q-29 -17 -41 -32t-12 -30q0 -20 19 -38q15 -15 45 -31z" />
<glyph unicode="&#xa8;" horiz-adv-x="672" d="M600 753h-112l26 122h112zM427 753h-113l26 122h113z" />
<glyph unicode="&#xa9;" horiz-adv-x="795" d="M364 -4q-145 0 -223 85q-71 77 -71 199q0 170 119 304q131 148 329 148q145 0 223 -85q70 -76 70 -199q0 -170 -119 -304q-131 -148 -328 -148zM506 672q-167 0 -278 -124q-101 -113 -101 -256q0 -103 58 -166q65 -71 188 -71q166 0 277 125q102 115 102 257 q0 103 -58 165q-65 70 -188 70zM609 295q-21 -69 -81.5 -111t-132.5 -42q-79 0 -121 48q-38 44 -38 114q0 102 67 187q74 93 178 93q66 0 111 -33.5t45 -94.5q-1 -8 -1 -13h-94q1 6 1 11q0 25 -15 42q-19 22 -50 22q-61 0 -103 -68q-37 -60 -37 -134q0 -44 17 -72.5 t50 -28.5q38 0 65.5 21t42.5 59h96z" />
<glyph unicode="&#xaa;" horiz-adv-x="283" d="M348 450h-75q-2 8 -2 18v16q-37 -44 -92 -44q-69 0 -69 64q0 13 2 20q16 72 102 85t89 29q3 15 -9.5 23.5t-29.5 8.5q-20 0 -34 -9.5t-17 -29.5h-68q10 47 46 72.5t84 25.5q37 0 66 -15q36 -19 36 -51q0 -9 -1 -13l-32 -150q-2 -12 -2 -18q0 -15 9 -20zM287 557l5 25 l-78 -21q-26 -12 -31 -33q-1 -5 -1 -9q0 -9 6 -15q9 -8 26 -8q27 0 47.5 17t25.5 44z" />
<glyph unicode="&#xab;" horiz-adv-x="449" d="M392 63l-134 143l27 126l196 143l-26 -118l-120 -88l82 -89zM178 63l-134 143l27 126l196 143l-26 -118l-120 -88l82 -89z" />
<glyph unicode="&#xac;" horiz-adv-x="577" d="M521 67h-110l32 147h-397l23 110h507z" />
<glyph unicode="&#xad;" horiz-adv-x="577" d="M553 214h-507l23 110h507z" />
<glyph unicode="&#xae;" horiz-adv-x="795" d="M364 -4q-145 0 -223 85q-71 77 -71 199q0 170 119 304q131 148 329 148q145 0 223 -85q70 -76 70 -199q0 -170 -119 -304q-131 -148 -328 -148zM506 672q-167 0 -278 -124q-101 -113 -101 -256q0 -103 58 -166q65 -71 188 -71q166 0 277 125q102 115 102 257 q0 103 -58 165q-65 70 -188 70zM592 137h-103q-4 11 -4 24t5 34l8 39q4 19 4.5 22.5t0.5 15.5q0 22 -13 33t-43 11h-100l-39 -179h-94l99 460h223q56 0 90 -24.5t34 -72.5q0 -14 -3 -29q-8 -36 -33 -68t-61 -45q22 -8 31.5 -24t9.5 -38q0 -19 -4 -39q-7 -28 -9.5 -41.5 t-4 -23t-1.5 -11.5q0 -20 11 -28zM504 517h-115l-25 -120h111q31 0 54.5 15t30.5 45q1 5 1 13q0 22 -15.5 34.5t-41.5 12.5z" />
<glyph unicode="&#xaf;" horiz-adv-x="555" d="M705 690h-558l24 110h558z" />
<glyph unicode="&#xb0;" horiz-adv-x="331" d="M254 582q-52 0 -78.5 28.5t-26.5 73.5q0 61 43 109q47 53 119 53q53 0 81 -30q25 -27 25 -71q0 -60 -44 -109q-48 -54 -119 -54zM270 654q32 0 52.5 23t20.5 51q0 20 -12 33t-36 13q-33 0 -53 -23t-20 -50q0 -21 12 -34t36 -13z" />
<glyph unicode="&#xb1;" d="M649 346h-226l-35 -163h-101l35 163h-227l21 97h226l35 163h101l-35 -163h227zM575 0h-554l21 98h554z" />
<glyph unicode="&#xb2;" horiz-adv-x="403" d="M455 570q-13 -61 -95 -118l-177 -104h219l-15 -73h-328q17 77 91 132q14 10 130 77q70 40 79 81q1 5 1 14q0 23 -17 37t-42 14q-29 0 -51 -18q-27 -22 -38 -63h-88q22 76 80 117q53 37 116 37q58 0 98 -29.5t40 -79.5q0 -12 -3 -24z" />
<glyph unicode="&#xb3;" horiz-adv-x="406" d="M421 400q-14 -64 -74 -102q-55 -35 -125 -35q-60 0 -97 27q-42 30 -42 85q0 8 4 32h89q0 -38 18 -56.5t45 -18.5q28 0 52.5 18.5t30.5 48.5q2 12 2 16q0 28 -26 37.5t-64 9.5l12 58q37 0 62 11q34 15 41 48q1 4 1 11q0 20 -14.5 32.5t-37.5 12.5q-25 0 -46.5 -17.5 t-32.5 -53.5h-89q20 69 76 106q49 33 110 33q55 0 93 -26.5t38 -70.5q0 -6 -2 -20q-6 -30 -25 -50t-50 -35q26 -12 40 -31.5t14 -46.5q0 -11 -3 -23z" />
<glyph unicode="&#xb4;" horiz-adv-x="215" d="M188 435h-95l59 276h95z" />
<glyph unicode="&#xb5;" horiz-adv-x="543" d="M466 0h-122l10 49q-27 -27 -56.5 -42t-61.5 -15q-25 0 -47.5 10.5t-38.5 28.5l-50 -231h-143l158 739h143l-60 -281q-5 -23 -7.5 -39.5t-2.5 -35.5q0 -33 15.5 -53.5t51.5 -20.5q64 0 96 64q15 31 34 116l53 250h143z" />
<glyph unicode="&#xb6;" horiz-adv-x="488" d="M152 642h23l13 -94l54 94h22l-23 -111h-15l20 93l-55 -93h-14l-14 96l-21 -96h-14zM354 615l-20 -89q-6 -29 -45 -29h-18q-9 3 -13 4l1 12l32 -5q23 0 29 20l5 22q-11 -17 -35 -17q-29 0 -29 27q0 9 1 14q9 45 59 45h13q5 0 20 -4zM338 606l-18 1q-36 0 -45 -34 q-1 -4 -1 -10q0 -19 21 -19q28 0 35 29zM560 711h-46l-152 -712h-46l152 712h-88l-152 -712h-46l93 434q-70 0 -116 37q-38 32 -38 80q0 15 3 30q16 81 101 132q78 46 160 46h185z" />
<glyph unicode="&#xb7;" horiz-adv-x="219" d="M230 380h-149l32 149h149z" />
<glyph unicode="&#x2219;" horiz-adv-x="219" d="M230 380h-149l32 149h149z" />
<glyph unicode="&#xb9;" d="M453 0h-140l104 485h-170l21 98q88 0 132 20q60 27 90 106h115z" />
<glyph unicode="&#xba;" horiz-adv-x="627" d="M270 -18q-104 0 -162.5 59.5t-58.5 156.5q0 32 8 70q27 125 119.5 207.5t216.5 82.5q104 0 163 -60t59 -158q0 -32 -8 -72q-27 -124 -120.5 -205t-216.5 -81zM295 102q63 0 109 54q40 47 54 113q6 26 6 51q0 50 -22 81q-26 36 -76 36q-61 0 -108 -55q-39 -46 -54 -113 q-5 -27 -5 -49q0 -52 21 -82q25 -36 75 -36z" />
<glyph unicode="&#xbb;" horiz-adv-x="449" d="M423 206l-196 -143l25 117l120 89l-82 88l26 118l134 -143zM209 206l-196 -143l25 117l120 89l-82 88l26 118l134 -143z" />
<glyph unicode="&#xbd;" horiz-adv-x="855" d="M844 274q-13 -57 -93 -108l-174 -93q3 -4 30 -5t73 -1h19h17h14h12h27q14 0 28 1l-15 -68h-314l9 28q18 55 86 103l121 72q62 37 69 68q1 3 1 7v4q0 21 -16.5 35.5t-40.5 14.5q-27 0 -50 -18.5t-35 -58.5h-83q20 70 77 109q51 35 112 35q54 0 91.5 -27t37.5 -74 q0 -10 -3 -24zM779 719l-590 -739h-82l592 739h80zM261 304h-90l58 271h-106l12 55q66 0 98 20q26 16 40 51h73z" />
<glyph unicode="&#xc0;" horiz-adv-x="770" d="M588 809h-137l27 127q12 57 61 101t108 50l-11 -51q-42 -12 -63.5 -33.5t-29.5 -62.5h73zM696 0h-158l-17 150h-283l-81 -150h-157l416 729h172zM507 271l-36 312l-168 -312h204z" />
<glyph unicode="&#xc1;" horiz-adv-x="770" d="M567 809h-95l59 276h95zM696 0h-158l-17 150h-283l-81 -150h-157l416 729h172zM507 271l-36 312l-168 -312h204z" />
<glyph unicode="&#xc2;" horiz-adv-x="770" d="M675 809h-68l-65 109l-109 -109h-70l136 183h116zM696 0h-158l-17 150h-283l-81 -150h-157l416 729h172zM507 271l-36 312l-168 -312h204z" />
<glyph unicode="&#xc3;" horiz-adv-x="770" d="M874 1033q-21 -98 -73 -156q-61 -68 -156 -68q-66 0 -125.5 62.5t-92.5 62.5q-49 0 -79 -40q-23 -31 -35 -85h-100q20 94 75 154q63 69 154 69q65 0 124 -63t98 -63q48 0 76 42q19 28 34 85h100zM696 0h-158l-17 150h-283l-81 -150h-157l416 729h172zM507 271l-36 312 l-168 -312h204z" />
<glyph unicode="&#xc4;" horiz-adv-x="770" d="M662 809h-112l26 122h112zM489 809h-113l26 122h113zM696 0h-158l-17 150h-283l-81 -150h-157l416 729h172zM507 271l-36 312l-168 -312h204z" />
<glyph unicode="&#xc5;" horiz-adv-x="770" d="M506 740q-52 0 -78.5 28.5t-26.5 73.5q0 61 43 109q47 53 119 53q53 0 81 -30q25 -27 25 -71q0 -60 -44 -109q-48 -54 -119 -54zM522 812q32 0 52.5 23t20.5 51q0 20 -12 33t-36 13q-33 0 -53 -23t-20 -50q0 -21 12 -34t36 -13zM696 0h-158l-17 150h-283l-81 -150h-157 l416 729h172zM507 271l-36 312l-168 -312h204z" />
<glyph unicode="&#xc8;" horiz-adv-x="593" d="M506 809h-137l27 127q12 57 61 101t108 50l-11 -51q-42 -12 -63.5 -33.5t-29.5 -62.5h73zM548 0h-548l156 729h529l-27 -127h-381l-33 -155h349l-27 -126h-349l-40 -187h400z" />
<glyph unicode="&#xc9;" horiz-adv-x="593" d="M485 809h-95l59 276h95zM548 0h-548l156 729h529l-27 -127h-381l-33 -155h349l-27 -126h-349l-40 -187h400z" />
<glyph unicode="&#xca;" horiz-adv-x="593" d="M594 809h-68l-65 109l-109 -109h-70l136 183h116zM548 0h-548l156 729h529l-27 -127h-381l-33 -155h349l-27 -126h-349l-40 -187h400z" />
<glyph unicode="&#xcb;" horiz-adv-x="593" d="M581 809h-112l26 122h112zM408 809h-113l26 122h113zM548 0h-548l156 729h529l-27 -127h-381l-33 -155h349l-27 -126h-349l-40 -187h400z" />
<glyph unicode="&#xcc;" horiz-adv-x="263" d="M347 809h-137l27 127q12 57 61 101t108 50l-11 -51q-42 -12 -63.5 -33.5t-29.5 -62.5h73zM180 0h-150l156 729h150z" />
<glyph unicode="&#xcd;" horiz-adv-x="263" d="M326 809h-95l59 276h95zM180 0h-150l156 729h150z" />
<glyph unicode="&#xce;" horiz-adv-x="263" d="M434 809h-68l-65 109l-109 -109h-70l136 183h116zM180 0h-150l156 729h150z" />
<glyph unicode="&#xcf;" horiz-adv-x="263" d="M421 809h-112l26 122h112zM248 809h-113l26 122h113zM180 0h-150l156 729h150z" />
<glyph unicode="&#xd1;" horiz-adv-x="683" d="M828 1033q-21 -98 -73 -156q-61 -68 -156 -68q-66 0 -125.5 62.5t-92.5 62.5q-49 0 -79 -40q-23 -31 -35 -85h-100q20 94 75 154q63 69 154 69q65 0 124 -63t98 -63q48 0 76 42q19 28 34 85h100zM600 0h-155l-190 501l-107 -501h-148l156 729h156l190 -502l107 502h147z " />
<glyph unicode="&#xd2;" horiz-adv-x="788" d="M600 809h-137l27 127q12 57 61 101t108 50l-11 -51q-42 -12 -63.5 -33.5t-29.5 -62.5h73zM354 -21q-137 0 -214 81q-73 77 -73 206q0 45 11 98q35 164 153 272q124 113 287 113q137 0 214 -82q73 -77 73 -206q0 -21 -3 -47t-8 -50q-36 -164 -154 -272 q-124 -113 -286 -113zM382 111q97 0 171 81q66 72 87 173q8 38 8 71q0 79 -37 127q-42 54 -121 54q-99 0 -172 -79q-65 -70 -87 -173q-8 -38 -8 -71q0 -80 37 -128q42 -55 122 -55z" />
<glyph unicode="&#xd3;" horiz-adv-x="788" d="M579 809h-95l59 276h95zM354 -21q-137 0 -214 81q-73 77 -73 206q0 45 11 98q35 164 153 272q124 113 287 113q137 0 214 -82q73 -77 73 -206q0 -21 -3 -47t-8 -50q-36 -164 -154 -272q-124 -113 -286 -113zM382 111q97 0 171 81q66 72 87 173q8 38 8 71q0 79 -37 127 q-42 54 -121 54q-99 0 -172 -79q-65 -70 -87 -173q-8 -38 -8 -71q0 -80 37 -128q42 -55 122 -55z" />
<glyph unicode="&#xd4;" horiz-adv-x="788" d="M687 809h-68l-65 109l-109 -109h-70l136 183h116zM354 -21q-137 0 -214 81q-73 77 -73 206q0 45 11 98q35 164 153 272q124 113 287 113q137 0 214 -82q73 -77 73 -206q0 -21 -3 -47t-8 -50q-36 -164 -154 -272q-124 -113 -286 -113zM382 111q97 0 171 81q66 72 87 173 q8 38 8 71q0 79 -37 127q-42 54 -121 54q-99 0 -172 -79q-65 -70 -87 -173q-8 -38 -8 -71q0 -80 37 -128q42 -55 122 -55z" />
<glyph unicode="&#xd5;" horiz-adv-x="788" d="M886 1033q-21 -98 -73 -156q-61 -68 -156 -68q-66 0 -125.5 62.5t-92.5 62.5q-49 0 -79 -40q-23 -31 -35 -85h-100q20 94 75 154q63 69 154 69q65 0 124 -63t98 -63q48 0 76 42q19 28 34 85h100zM354 -21q-137 0 -214 81q-73 77 -73 206q0 45 11 98q35 164 153 272 q124 113 287 113q137 0 214 -82q73 -77 73 -206q0 -21 -3 -47t-8 -50q-36 -164 -154 -272q-124 -113 -286 -113zM382 111q97 0 171 81q66 72 87 173q8 38 8 71q0 79 -37 127q-42 54 -121 54q-99 0 -172 -79q-65 -70 -87 -173q-8 -38 -8 -71q0 -80 37 -128q42 -55 122 -55z " />
<glyph unicode="&#xd6;" horiz-adv-x="788" d="M674 809h-112l26 122h112zM501 809h-113l26 122h113zM354 -21q-137 0 -214 81q-73 77 -73 206q0 45 11 98q35 164 153 272q124 113 287 113q137 0 214 -82q73 -77 73 -206q0 -21 -3 -47t-8 -50q-36 -164 -154 -272q-124 -113 -286 -113zM382 111q97 0 171 81 q66 72 87 173q8 38 8 71q0 79 -37 127q-42 54 -121 54q-99 0 -172 -79q-65 -70 -87 -173q-8 -38 -8 -71q0 -80 37 -128q42 -55 122 -55z" />
<glyph unicode="&#xd9;" horiz-adv-x="667" d="M534 809h-137l27 127q12 57 61 101t108 50l-11 -51q-42 -12 -63.5 -33.5t-29.5 -62.5h73zM641 261q-27 -126 -126.5 -204t-226.5 -78q-108 0 -174 58t-66 157q0 29 8 67l100 468h151l-97 -451q-5 -25 -5 -44q0 -54 28.5 -89t84.5 -35q66 0 116 52q44 46 59 116l97 451 h151z" />
<glyph unicode="&#xda;" horiz-adv-x="667" d="M513 809h-95l59 276h95zM641 261q-27 -126 -126.5 -204t-226.5 -78q-108 0 -174 58t-66 157q0 29 8 67l100 468h151l-97 -451q-5 -25 -5 -44q0 -54 28.5 -89t84.5 -35q66 0 116 52q44 46 59 116l97 451h151z" />
<glyph unicode="&#xdb;" horiz-adv-x="667" d="M622 809h-68l-65 109l-109 -109h-70l136 183h116zM641 261q-27 -126 -126.5 -204t-226.5 -78q-108 0 -174 58t-66 157q0 29 8 67l100 468h151l-97 -451q-5 -25 -5 -44q0 -54 28.5 -89t84.5 -35q66 0 116 52q44 46 59 116l97 451h151z" />
<glyph unicode="&#xdc;" horiz-adv-x="667" d="M609 809h-112l26 122h112zM436 809h-113l26 122h113zM641 261q-27 -126 -126.5 -204t-226.5 -78q-108 0 -174 58t-66 157q0 29 8 67l100 468h151l-97 -451q-5 -25 -5 -44q0 -54 28.5 -89t84.5 -35q66 0 116 52q44 46 59 116l97 451h151z" />
<glyph unicode="&#xdd;" horiz-adv-x="670" d="M522 809h-95l59 276h95zM758 729l-317 -458l-58 -271h-151l58 271l-134 458h150l91 -314l210 314h151z" />
<glyph unicode="&#xe0;" horiz-adv-x="566" d="M438 618h-137l27 127q12 57 61 101t108 50l-11 -51q-42 -12 -63.5 -33.5t-29.5 -62.5h73zM504 0h-151q-5 22 -5 41v13q2 9 2 13q-36 -40 -85.5 -63t-99.5 -23q-64 0 -101 34t-37 92q0 18 5 41q23 108 117 147q38 16 167 31q89 11 97 50q1 4 1 12q0 24 -24.5 38t-53.5 14 q-37 0 -67 -21t-37 -57h-136q20 95 91.5 145.5t168.5 50.5q72 0 133 -32q72 -38 72 -101q0 -12 -3 -26l-64 -300q-2 -12 -3 -17.5t-1 -16.5q0 -30 19 -41zM381 214l10 50q-80 -19 -125 -32q-83 -25 -94 -76q-2 -10 -2 -14q0 -24 18.5 -37.5t45.5 -13.5q53 0 94.5 35t52.5 88 z" />
<glyph unicode="&#xe1;" horiz-adv-x="566" d="M417 618h-95l59 276h95zM504 0h-151q-5 22 -5 41v13q2 9 2 13q-36 -40 -85.5 -63t-99.5 -23q-64 0 -101 34t-37 92q0 18 5 41q23 108 117 147q38 16 167 31q89 11 97 50q1 4 1 12q0 24 -24.5 38t-53.5 14q-37 0 -67 -21t-37 -57h-136q20 95 91.5 145.5t168.5 50.5 q72 0 133 -32q72 -38 72 -101q0 -12 -3 -26l-64 -300q-2 -12 -3 -17.5t-1 -16.5q0 -30 19 -41zM381 214l10 50q-80 -19 -125 -32q-83 -25 -94 -76q-2 -10 -2 -14q0 -24 18.5 -37.5t45.5 -13.5q53 0 94.5 35t52.5 88z" />
<glyph unicode="&#xe2;" horiz-adv-x="566" d="M525 618h-68l-65 109l-109 -109h-70l136 183h116zM504 0h-151q-5 22 -5 41v13q2 9 2 13q-36 -40 -85.5 -63t-99.5 -23q-64 0 -101 34t-37 92q0 18 5 41q23 108 117 147q38 16 167 31q89 11 97 50q1 4 1 12q0 24 -24.5 38t-53.5 14q-37 0 -67 -21t-37 -57h-136 q20 95 91.5 145.5t168.5 50.5q72 0 133 -32q72 -38 72 -101q0 -12 -3 -26l-64 -300q-2 -12 -3 -17.5t-1 -16.5q0 -30 19 -41zM381 214l10 50q-80 -19 -125 -32q-83 -25 -94 -76q-2 -10 -2 -14q0 -24 18.5 -37.5t45.5 -13.5q53 0 94.5 35t52.5 88z" />
<glyph unicode="&#xe3;" horiz-adv-x="566" d="M724 842q-21 -98 -73 -156q-61 -68 -156 -68q-66 0 -125.5 62.5t-92.5 62.5q-49 0 -79 -40q-23 -31 -35 -85h-100q20 94 75 154q63 69 154 69q65 0 124 -63t98 -63q48 0 76 42q19 28 34 85h100zM504 0h-151q-5 22 -5 41v13q2 9 2 13q-36 -40 -85.5 -63t-99.5 -23 q-64 0 -101 34t-37 92q0 18 5 41q23 108 117 147q38 16 167 31q89 11 97 50q1 4 1 12q0 24 -24.5 38t-53.5 14q-37 0 -67 -21t-37 -57h-136q20 95 91.5 145.5t168.5 50.5q72 0 133 -32q72 -38 72 -101q0 -12 -3 -26l-64 -300q-2 -12 -3 -17.5t-1 -16.5q0 -30 19 -41z M381 214l10 50q-80 -19 -125 -32q-83 -25 -94 -76q-2 -10 -2 -14q0 -24 18.5 -37.5t45.5 -13.5q53 0 94.5 35t52.5 88z" />
<glyph unicode="&#xe4;" horiz-adv-x="566" d="M512 618h-112l26 122h112zM339 618h-113l26 122h113zM504 0h-151q-5 22 -5 41v13q2 9 2 13q-36 -40 -85.5 -63t-99.5 -23q-64 0 -101 34t-37 92q0 18 5 41q23 108 117 147q38 16 167 31q89 11 97 50q1 4 1 12q0 24 -24.5 38t-53.5 14q-37 0 -67 -21t-37 -57h-136 q20 95 91.5 145.5t168.5 50.5q72 0 133 -32q72 -38 72 -101q0 -12 -3 -26l-64 -300q-2 -12 -3 -17.5t-1 -16.5q0 -30 19 -41zM381 214l10 50q-80 -19 -125 -32q-83 -25 -94 -76q-2 -10 -2 -14q0 -24 18.5 -37.5t45.5 -13.5q53 0 94.5 35t52.5 88z" />
<glyph unicode="&#xe5;" horiz-adv-x="566" d="M368 618q-52 0 -78.5 28.5t-26.5 73.5q0 61 43 109q47 53 119 53q53 0 81 -30q25 -27 25 -71q0 -60 -44 -109q-48 -54 -119 -54zM384 690q32 0 52.5 23t20.5 51q0 20 -12 33t-36 13q-33 0 -53 -23t-20 -50q0 -21 12 -34t36 -13zM504 0h-151q-5 22 -5 41v13q2 9 2 13 q-36 -40 -85.5 -63t-99.5 -23q-64 0 -101 34t-37 92q0 18 5 41q23 108 117 147q38 16 167 31q89 11 97 50q1 4 1 12q0 24 -24.5 38t-53.5 14q-37 0 -67 -21t-37 -57h-136q20 95 91.5 145.5t168.5 50.5q72 0 133 -32q72 -38 72 -101q0 -12 -3 -26l-64 -300q-2 -12 -3 -17.5 t-1 -16.5q0 -30 19 -41zM381 214l10 50q-80 -19 -125 -32q-83 -25 -94 -76q-2 -10 -2 -14q0 -24 18.5 -37.5t45.5 -13.5q53 0 94.5 35t52.5 88z" />
<glyph unicode="&#xe8;" horiz-adv-x="582" d="M462 631h-137l27 127q12 57 61 101t108 50l-11 -51q-42 -12 -63.5 -33.5t-29.5 -62.5h73zM559 231h-361q-2 -8 -3 -18.5t-1 -18.5q0 -45 24.5 -69t62.5 -24q66 0 113 62h145q-45 -88 -126 -137q-74 -45 -157 -45q-89 0 -146 52q-62 57 -62 157q0 35 9 76q31 147 117 226 t206 79q97 0 148 -49t51 -150q0 -59 -20 -141zM431 326q2 7 3 17t1 17q0 40 -23.5 60.5t-62.5 20.5q-47 0 -82.5 -30t-46.5 -85h211z" />
<glyph unicode="&#xe9;" horiz-adv-x="582" d="M441 631h-95l59 276h95zM559 231h-361q-2 -8 -3 -18.5t-1 -18.5q0 -45 24.5 -69t62.5 -24q66 0 113 62h145q-45 -88 -126 -137q-74 -45 -157 -45q-89 0 -146 52q-62 57 -62 157q0 35 9 76q31 147 117 226t206 79q97 0 148 -49t51 -150q0 -59 -20 -141zM431 326q2 7 3 17 t1 17q0 40 -23.5 60.5t-62.5 20.5q-47 0 -82.5 -30t-46.5 -85h211z" />
<glyph unicode="&#xea;" horiz-adv-x="582" d="M549 631h-68l-65 109l-109 -109h-70l136 183h116zM559 231h-361q-2 -8 -3 -18.5t-1 -18.5q0 -45 24.5 -69t62.5 -24q66 0 113 62h145q-45 -88 -126 -137q-74 -45 -157 -45q-89 0 -146 52q-62 57 -62 157q0 35 9 76q31 147 117 226t206 79q97 0 148 -49t51 -150 q0 -59 -20 -141zM431 326q2 7 3 17t1 17q0 40 -23.5 60.5t-62.5 20.5q-47 0 -82.5 -30t-46.5 -85h211z" />
<glyph unicode="&#xeb;" horiz-adv-x="582" d="M536 631h-112l26 122h112zM363 631h-113l26 122h113zM559 231h-361q-2 -8 -3 -18.5t-1 -18.5q0 -45 24.5 -69t62.5 -24q66 0 113 62h145q-45 -88 -126 -137q-74 -45 -157 -45q-89 0 -146 52q-62 57 -62 157q0 35 9 76q31 147 117 226t206 79q97 0 148 -49t51 -150 q0 -59 -20 -141zM431 326q2 7 3 17t1 17q0 40 -23.5 60.5t-62.5 20.5q-47 0 -82.5 -30t-46.5 -85h211z" />
<glyph unicode="&#xec;" horiz-adv-x="235" d="M320 789h-137l27 127q12 57 61 101t108 50l-11 -51q-42 -12 -63.5 -33.5t-29.5 -62.5h73zM282 597h-144l28 132h144zM154 0h-144l115 539h144z" />
<glyph unicode="&#xed;" horiz-adv-x="235" d="M299 789h-95l59 276h95zM282 597h-144l28 132h144zM154 0h-144l115 539h144z" />
<glyph unicode="&#xee;" horiz-adv-x="235" d="M407 789h-68l-65 109l-109 -109h-70l136 183h116zM282 597h-144l28 132h144zM154 0h-144l115 539h144z" />
<glyph unicode="&#xef;" horiz-adv-x="235" d="M394 789h-112l26 122h112zM221 789h-113l26 122h113zM282 597h-144l28 132h144zM154 0h-144l115 539h144z" />
<glyph unicode="&#xf1;" horiz-adv-x="563" d="M728 842q-21 -98 -73 -156q-61 -68 -156 -68q-66 0 -125.5 62.5t-92.5 62.5q-49 0 -79 -40q-23 -31 -35 -85h-100q20 94 75 154q63 69 154 69q65 0 124 -63t98 -63q48 0 76 42q19 28 34 85h100zM482 0h-144l70 326q1 8 2.5 16t1.5 19q0 33 -15 52.5t-50 19.5 q-45 0 -85 -34.5t-50 -80.5l-68 -318h-144l115 539h140l-13 -64q33 39 81.5 61t95.5 22q70 0 108.5 -38.5t38.5 -103.5q0 -23 -6 -49z" />
<glyph unicode="&#xf2;" horiz-adv-x="627" d="M475 618h-137l27 127q12 57 61 101t108 50l-11 -51q-42 -12 -63.5 -33.5t-29.5 -62.5h73zM270 -18q-104 0 -162.5 59.5t-58.5 156.5q0 32 8 70q27 125 119.5 207.5t216.5 82.5q104 0 163 -60t59 -158q0 -32 -8 -72q-27 -124 -120.5 -205t-216.5 -81zM295 102q63 0 109 54 q40 47 54 113q6 26 6 51q0 50 -22 81q-26 36 -76 36q-61 0 -108 -55q-39 -46 -54 -113q-5 -27 -5 -49q0 -52 21 -82q25 -36 75 -36z" />
<glyph unicode="&#xf3;" horiz-adv-x="627" d="M454 618h-95l59 276h95zM270 -18q-104 0 -162.5 59.5t-58.5 156.5q0 32 8 70q27 125 119.5 207.5t216.5 82.5q104 0 163 -60t59 -158q0 -32 -8 -72q-27 -124 -120.5 -205t-216.5 -81zM295 102q63 0 109 54q40 47 54 113q6 26 6 51q0 50 -22 81q-26 36 -76 36 q-61 0 -108 -55q-39 -46 -54 -113q-5 -27 -5 -49q0 -52 21 -82q25 -36 75 -36z" />
<glyph unicode="&#xf4;" horiz-adv-x="627" d="M562 618h-68l-65 109l-109 -109h-70l136 183h116zM270 -18q-104 0 -162.5 59.5t-58.5 156.5q0 32 8 70q27 125 119.5 207.5t216.5 82.5q104 0 163 -60t59 -158q0 -32 -8 -72q-27 -124 -120.5 -205t-216.5 -81zM295 102q63 0 109 54q40 47 54 113q6 26 6 51q0 50 -22 81 q-26 36 -76 36q-61 0 -108 -55q-39 -46 -54 -113q-5 -27 -5 -49q0 -52 21 -82q25 -36 75 -36z" />
<glyph unicode="&#xf5;" horiz-adv-x="627" d="M761 842q-21 -98 -73 -156q-61 -68 -156 -68q-66 0 -125.5 62.5t-92.5 62.5q-49 0 -79 -40q-23 -31 -35 -85h-100q20 94 75 154q63 69 154 69q65 0 124 -63t98 -63q48 0 76 42q19 28 34 85h100zM270 -18q-104 0 -162.5 59.5t-58.5 156.5q0 32 8 70q27 125 119.5 207.5 t216.5 82.5q104 0 163 -60t59 -158q0 -32 -8 -72q-27 -124 -120.5 -205t-216.5 -81zM295 102q63 0 109 54q40 47 54 113q6 26 6 51q0 50 -22 81q-26 36 -76 36q-61 0 -108 -55q-39 -46 -54 -113q-5 -27 -5 -49q0 -52 21 -82q25 -36 75 -36z" />
<glyph unicode="&#xf6;" horiz-adv-x="627" d="M549 618h-112l26 122h112zM376 618h-113l26 122h113zM270 -18q-104 0 -162.5 59.5t-58.5 156.5q0 32 8 70q27 125 119.5 207.5t216.5 82.5q104 0 163 -60t59 -158q0 -32 -8 -72q-27 -124 -120.5 -205t-216.5 -81zM295 102q63 0 109 54q40 47 54 113q6 26 6 51 q0 50 -22 81q-26 36 -76 36q-61 0 -108 -55q-39 -46 -54 -113q-5 -27 -5 -49q0 -52 21 -82q25 -36 75 -36z" />
<glyph unicode="&#xf9;" horiz-adv-x="563" d="M441 618h-137l27 127q12 57 61 101t108 50l-11 -51q-42 -12 -63.5 -33.5t-29.5 -62.5h73zM481 0h-140l14 64q-42 -36 -91.5 -57t-98.5 -21q-66 0 -100 36t-34 98q0 25 6 52l78 367h143l-69 -326q-4 -16 -4 -36q0 -33 15.5 -52.5t49.5 -19.5q46 0 85.5 33.5t49.5 80.5 l68 320h143z" />
<glyph unicode="&#xfa;" horiz-adv-x="563" d="M420 618h-95l59 276h95zM481 0h-140l14 64q-42 -36 -91.5 -57t-98.5 -21q-66 0 -100 36t-34 98q0 25 6 52l78 367h143l-69 -326q-4 -16 -4 -36q0 -33 15.5 -52.5t49.5 -19.5q46 0 85.5 33.5t49.5 80.5l68 320h143z" />
<glyph unicode="&#xfb;" horiz-adv-x="563" d="M529 618h-68l-65 109l-109 -109h-70l136 183h116zM481 0h-140l14 64q-42 -36 -91.5 -57t-98.5 -21q-66 0 -100 36t-34 98q0 25 6 52l78 367h143l-69 -326q-4 -16 -4 -36q0 -33 15.5 -52.5t49.5 -19.5q46 0 85.5 33.5t49.5 80.5l68 320h143z" />
<glyph unicode="&#xfc;" horiz-adv-x="563" d="M516 618h-112l26 122h112zM343 618h-113l26 122h113zM481 0h-140l14 64q-42 -36 -91.5 -57t-98.5 -21q-66 0 -100 36t-34 98q0 25 6 52l78 367h143l-69 -326q-4 -16 -4 -36q0 -33 15.5 -52.5t49.5 -19.5q46 0 85.5 33.5t49.5 80.5l68 320h143z" />
<glyph unicode="&#xfd;" d="M446 618h-95l59 276h95zM647 539l-343 -616q-37 -65 -81 -93.5t-112 -28.5q-16 0 -35.5 1.5t-30.5 2.5l25 116q10 -1 19 -2.5t22 -1.5q21 0 37 7.5t23.5 17.5t12.5 22t6 18.5t1 8.5q0 20 -15 135l-35 245l-26 168h157l31 -390l193 390h151z" />
<glyph unicode="&#xff;" horiz-adv-x="90" d="M34 2q-1 -7 -8 -7q-6 0 -6 5q2 -3 7 -3q5 2 5 5l-5 -2q-6 0 -5 7t8 7l4 -3l1 3zM27 1q5 0 7 5v3q0 3 -4 3q-5 0 -7 -5.5t4 -5.5zM19 0l1 16l-10 -16l-5 16l-3 -16l2 18l7 -15l9 15z" />
<glyph unicode="&#x152;" horiz-adv-x="1381" d="M1336 0h-548l156 729h529l-27 -127h-381l-33 -155h349l-27 -126h-349l-40 -187h400zM354 -21q-137 0 -214 81q-73 77 -73 206q0 45 11 98q35 164 153 272q124 113 287 113q137 0 214 -82q73 -77 73 -206q0 -21 -3 -47t-8 -50q-36 -164 -154 -272q-124 -113 -286 -113z M382 111q97 0 171 81q66 72 87 173q8 38 8 71q0 79 -37 127q-42 54 -121 54q-99 0 -172 -79q-65 -70 -87 -173q-8 -38 -8 -71q0 -80 37 -128q42 -55 122 -55z" />
<glyph unicode="&#x153;" horiz-adv-x="1209" d="M1186 231h-361q-2 -8 -3 -18.5t-1 -18.5q0 -45 24.5 -69t62.5 -24q66 0 113 62h145q-45 -88 -126 -137q-74 -45 -157 -45q-89 0 -146 52q-62 57 -62 157q0 35 9 76q31 147 117 226t206 79q97 0 148 -49t51 -150q0 -59 -20 -141zM1058 326q2 7 3 17t1 17q0 40 -23.5 60.5 t-62.5 20.5q-47 0 -82.5 -30t-46.5 -85h211zM270 -18q-104 0 -162.5 59.5t-58.5 156.5q0 32 8 70q27 125 119.5 207.5t216.5 82.5q104 0 163 -60t59 -158q0 -32 -8 -72q-27 -124 -120.5 -205t-216.5 -81zM295 102q63 0 109 54q40 47 54 113q6 26 6 51q0 50 -22 81 q-26 36 -76 36q-61 0 -108 -55q-39 -46 -54 -113q-5 -27 -5 -49q0 -52 21 -82q25 -36 75 -36z" />
<glyph unicode="&#x178;" horiz-adv-x="670" d="M617 809h-112l26 122h112zM444 809h-113l26 122h113zM758 729l-317 -458l-58 -271h-151l58 271l-134 458h150l91 -314l210 314h151z" />
<glyph unicode="&#x2c6;" d="M583 602h-68l-65 109l-109 -109h-70l136 183h116z" />
<glyph unicode="&#x2dc;" horiz-adv-x="270" d="M368 284q-21 -98 -73 -156q-61 -68 -156 -68q-66 0 -125.5 62.5t-92.5 62.5q-49 0 -79 -40q-23 -31 -35 -85h-100q20 94 75 154q63 69 154 69q65 0 124 -63t98 -63q48 0 76 42q19 28 34 85h100z" />
<glyph unicode="&#x2000;" horiz-adv-x="543" />
<glyph unicode="&#x2001;" horiz-adv-x="1087" />
<glyph unicode="&#x2002;" horiz-adv-x="543" />
<glyph unicode="&#x2003;" horiz-adv-x="1087" />
<glyph unicode="&#x2004;" horiz-adv-x="362" />
<glyph unicode="&#x2005;" horiz-adv-x="271" />
<glyph unicode="&#x2006;" horiz-adv-x="181" />
<glyph unicode="&#x2007;" horiz-adv-x="181" />
<glyph unicode="&#x2008;" horiz-adv-x="135" />
<glyph unicode="&#x2009;" horiz-adv-x="217" />
<glyph unicode="&#x200a;" horiz-adv-x="60" />
<glyph unicode="&#x2010;" horiz-adv-x="378" d="M341 201h-278l29 136h278z" />
<glyph unicode="&#x2011;" horiz-adv-x="378" d="M341 201h-278l29 136h278z" />
<glyph unicode="&#x2013;" horiz-adv-x="577" d="M553 214h-507l23 110h507z" />
<glyph unicode="&#x2014;" horiz-adv-x="748" d="M724 214h-678l23 110h678z" />
<glyph unicode="&#x2018;" horiz-adv-x="208" d="M234 454h-137l27 127q12 57 61.5 101.5t107.5 49.5l-10 -50q-77 -19 -94 -97h73z" />
<glyph unicode="&#x2019;" horiz-adv-x="208" d="M266 601q-13 -60 -61 -102t-109 -48l11 51q77 19 94 96h-73l28 131h138z" />
<glyph unicode="&#x201c;" horiz-adv-x="408" d="M434 454h-137l27 127q12 57 61.5 101.5t107.5 49.5l-10 -50q-77 -19 -94 -97h73zM234 454h-137l27 127q12 57 61.5 101.5t107.5 49.5l-10 -50q-77 -19 -94 -97h73z" />
<glyph unicode="&#x201d;" horiz-adv-x="408" d="M466 601q-13 -60 -61 -102t-109 -48l11 51q77 19 94 96h-73l28 131h138zM266 601q-13 -60 -61 -102t-109 -48l11 51q77 19 94 96h-73l28 131h138z" />
<glyph unicode="&#x201e;" horiz-adv-x="423" d="M349 4q-15 -67 -64.5 -112.5t-121.5 -63.5l12 57q87 31 105 114h-80l32 149h148zM149 4q-15 -67 -64.5 -112.5t-121.5 -63.5l12 57q87 31 105 114h-80l32 149h148z" />
<glyph unicode="&#x2022;" horiz-adv-x="558" d="M576 366q-23 -108 -113 -184t-201 -76q-93 0 -151 58t-58 149q0 13 1 26.5t4 26.5q23 106 114 182.5t201 76.5q92 0 150 -59t58 -148q0 -12 -1 -25.5t-4 -26.5z" />
<glyph unicode="&#x2026;" horiz-adv-x="693" d="M589 0h-148l32 149h148zM368 0h-148l32 149h148zM148 0h-148l32 149h148z" />
<glyph unicode="&#x202f;" horiz-adv-x="217" />
<glyph unicode="&#x2039;" d="M573 13l-493 241l21 97l596 241l-24 -109l-442 -180l365 -181z" />
<glyph unicode="&#x203a;" d="M624 254l-595 -241l23 109l441 181l-364 180l24 109l492 -241z" />
<glyph unicode="&#x205f;" horiz-adv-x="271" />
<glyph unicode="&#x2122;" horiz-adv-x="765" d="M433 663h-108l-64 -299h-76l64 299h-107l14 66h291zM763 364h-71l63 295l-137 -295h-77l-12 295l-63 -295h-70l78 365h111l12 -278l132 278h112z" />
</font>
</defs>
</svg>
